<svg width="392" height="429" viewBox="0 0 392 429" fill="none" xmlns="http://www.w3.org/2000/svg">
<path d="M56.0394 194.93C42.6545 143.039 95.4011 98.8032 144.168 121.022C161.177 128.771 180.732 128.663 197.654 120.724L222.26 109.181C302.543 71.5195 386.465 153.821 350.374 234.823L348.92 238.086C342.127 253.332 340.029 270.255 342.893 286.698L343.287 288.961C353.862 349.671 296.643 400.167 237.72 382.126C220.757 376.932 202.572 377.337 185.857 383.281L133.374 401.944C91.5917 416.802 45.7508 394.472 31.6936 352.414L26.0006 335.38C18.8037 313.847 25.9175 290.115 43.7726 276.091C60.5468 262.916 67.9401 241.067 62.6127 220.414L56.0394 194.93Z" fill="#87BCDE"/>
<path d="M338.07 141H276.645C274.574 141 272.894 142.679 272.894 144.751V268.538C272.894 270.61 274.574 272.289 276.645 272.289H338.07C340.142 272.289 341.821 270.61 341.821 268.538V144.751C341.821 142.679 340.142 141 338.07 141Z" fill="#C7D1D9"/>
<path d="M307.123 264.318C311.008 264.318 314.157 261.169 314.157 257.285C314.157 253.4 311.008 250.251 307.123 250.251C303.239 250.251 300.09 253.4 300.09 257.285C300.09 261.169 303.239 264.318 307.123 264.318Z" fill="white"/>
<path d="M301.028 149.909C301.546 149.909 301.965 149.489 301.965 148.971C301.965 148.453 301.546 148.033 301.028 148.033C300.51 148.033 300.09 148.453 300.09 148.971C300.09 149.489 300.51 149.909 301.028 149.909Z" fill="white"/>
<path d="M313.219 148.033H305.248C304.73 148.033 304.31 148.453 304.31 148.971C304.31 149.489 304.73 149.909 305.248 149.909H313.219C313.737 149.909 314.157 149.489 314.157 148.971C314.157 148.453 313.737 148.033 313.219 148.033Z" fill="white"/>
<path d="M333.381 154.129H281.334C280.298 154.129 279.459 154.969 279.459 156.004V176.057C279.459 177.092 280.298 177.932 281.334 177.932H333.381C334.417 177.932 335.257 177.092 335.257 176.057V156.004C335.257 154.969 334.417 154.129 333.381 154.129Z" fill="white"/>
<path d="M310.874 161.269H285.085C284.308 161.269 283.679 161.899 283.679 162.676V163.433C283.679 164.21 284.308 164.839 285.085 164.839H310.874C311.651 164.839 312.281 164.21 312.281 163.433V162.676C312.281 161.899 311.651 161.269 310.874 161.269Z" fill="#C7D1D9"/>
<path d="M301.471 167.219H285.085C284.308 167.219 283.679 167.849 283.679 168.626V169.383C283.679 170.16 284.308 170.79 285.085 170.79H301.471C302.248 170.79 302.877 170.16 302.877 169.383V168.626C302.877 167.849 302.248 167.219 301.471 167.219Z" fill="#C7D1D9"/>
<path d="M329.293 169.312C331.106 169.312 332.576 167.842 332.576 166.029C332.576 164.217 331.106 162.747 329.293 162.747C327.481 162.747 326.011 164.217 326.011 166.029C326.011 167.842 327.481 169.312 329.293 169.312Z" fill="#C7D1D9"/>
<path d="M329.293 167.436C330.07 167.436 330.7 166.806 330.7 166.029C330.7 165.252 330.07 164.623 329.293 164.623C328.517 164.623 327.887 165.252 327.887 166.029C327.887 166.806 328.517 167.436 329.293 167.436Z" fill="#F2F2F2"/>
<path d="M333.381 181.793H281.334C280.298 181.793 279.459 182.633 279.459 183.669V197.598C279.459 198.634 280.298 199.473 281.334 199.473H333.381C334.417 199.473 335.257 198.634 335.257 197.598V183.669C335.257 182.633 334.417 181.793 333.381 181.793Z" fill="white"/>
<path d="M325.021 187.098H299.072C298.339 187.098 297.745 187.692 297.745 188.425C297.745 189.157 298.339 189.751 299.072 189.751H325.021C325.754 189.751 326.348 189.157 326.348 188.425C326.348 187.692 325.754 187.098 325.021 187.098Z" fill="#C7D1D9"/>
<path d="M315.618 191.519H299.072C298.339 191.519 297.745 192.113 297.745 192.845C297.745 193.578 298.339 194.172 299.072 194.172H315.618C316.35 194.172 316.944 193.578 316.944 192.845C316.944 192.113 316.35 191.519 315.618 191.519Z" fill="#C7D1D9"/>
<path d="M289.305 196.262C292.413 196.262 294.932 193.743 294.932 190.635C294.932 187.528 292.413 185.009 289.305 185.009C286.198 185.009 283.679 187.528 283.679 190.635C283.679 193.743 286.198 196.262 289.305 196.262Z" fill="#C5CFD6"/>
<path d="M333.381 203.362H281.334C280.298 203.362 279.459 204.202 279.459 205.238V219.167C279.459 220.203 280.298 221.042 281.334 221.042H333.381C334.417 221.042 335.257 220.203 335.257 219.167V205.238C335.257 204.202 334.417 203.362 333.381 203.362Z" fill="white"/>
<path d="M310.954 208.667H285.005C284.272 208.667 283.679 209.261 283.679 209.994C283.679 210.726 284.272 211.32 285.005 211.32H310.954C311.687 211.32 312.281 210.726 312.281 209.994C312.281 209.261 311.687 208.667 310.954 208.667Z" fill="#C7D1D9"/>
<path d="M301.551 213.088H285.005C284.272 213.088 283.679 213.682 283.679 214.414C283.679 215.147 284.272 215.741 285.005 215.741H301.551C302.283 215.741 302.877 215.147 302.877 214.414C302.877 213.682 302.283 213.088 301.551 213.088Z" fill="#C7D1D9"/>
<path d="M329.293 215.486C331.106 215.486 332.576 214.017 332.576 212.204C332.576 210.391 331.106 208.922 329.293 208.922C327.481 208.922 326.011 210.391 326.011 212.204C326.011 214.017 327.481 215.486 329.293 215.486Z" fill="#C7D1D9"/>
<path d="M329.293 213.611C330.07 213.611 330.7 212.981 330.7 212.204C330.7 211.427 330.07 210.797 329.293 210.797C328.517 210.797 327.887 211.427 327.887 212.204C327.887 212.981 328.517 213.611 329.293 213.611Z" fill="#F2F2F2"/>
<path d="M333.381 224.931H281.334C280.298 224.931 279.459 225.771 279.459 226.807V240.736C279.459 241.772 280.298 242.611 281.334 242.611H333.381C334.417 242.611 335.257 241.772 335.257 240.736V226.807C335.257 225.771 334.417 224.931 333.381 224.931Z" fill="white"/>
<path d="M325.021 230.236H299.072C298.339 230.236 297.745 230.83 297.745 231.563C297.745 232.295 298.339 232.889 299.072 232.889H325.021C325.754 232.889 326.348 232.295 326.348 231.563C326.348 230.83 325.754 230.236 325.021 230.236Z" fill="#C7D1D9"/>
<path d="M315.618 234.657H299.072C298.339 234.657 297.745 235.251 297.745 235.983C297.745 236.716 298.339 237.309 299.072 237.309H315.618C316.35 237.309 316.944 236.716 316.944 235.983C316.944 235.251 316.35 234.657 315.618 234.657Z" fill="#C7D1D9"/>
<path d="M289.305 239.4C292.413 239.4 294.932 236.881 294.932 233.773C294.932 230.666 292.413 228.146 289.305 228.146C286.198 228.146 283.679 230.666 283.679 233.773C283.679 236.881 286.198 239.4 289.305 239.4Z" fill="#C5CFD6"/>
<path d="M107.376 151.784H40.3246C38.2529 151.784 36.5735 153.464 36.5735 155.536V289.638C36.5735 291.71 38.2529 293.389 40.3246 293.389H107.376C109.448 293.389 111.127 291.71 111.127 289.638V155.536C111.127 153.464 109.448 151.784 107.376 151.784Z" fill="#F2F2F2"/>
<path d="M73.6158 284.481C77.5002 284.481 80.6491 281.332 80.6491 277.447C80.6491 273.563 77.5002 270.414 73.6158 270.414C69.7313 270.414 66.5824 273.563 66.5824 277.447C66.5824 281.332 69.7313 284.481 73.6158 284.481Z" fill="white"/>
<path d="M67.5202 161.162C68.0381 161.162 68.458 160.742 68.458 160.224C68.458 159.706 68.0381 159.287 67.5202 159.287C67.0023 159.287 66.5824 159.706 66.5824 160.224C66.5824 160.742 67.0023 161.162 67.5202 161.162Z" fill="white"/>
<path d="M79.7114 159.287H71.7403C71.2223 159.287 70.8025 159.706 70.8025 160.224C70.8025 160.742 71.2223 161.162 71.7403 161.162H79.7114C80.2293 161.162 80.6492 160.742 80.6492 160.224C80.6492 159.706 80.2293 159.287 79.7114 159.287Z" fill="white"/>
<path d="M102.687 164.913H45.0135C43.9777 164.913 43.1379 165.753 43.1379 166.789V188.358C43.1379 189.394 43.9777 190.233 45.0135 190.233H102.687C103.723 190.233 104.563 189.394 104.563 188.358V166.789C104.563 165.753 103.723 164.913 102.687 164.913Z" fill="white"/>
<path d="M94.247 172.51H62.8314C62.0545 172.51 61.4247 173.139 61.4247 173.916V174.901C61.4247 175.678 62.0545 176.308 62.8314 176.308H94.247C95.0239 176.308 95.6537 175.678 95.6537 174.901V173.916C95.6537 173.139 95.0239 172.51 94.247 172.51Z" fill="#C7D1D9"/>
<path d="M82.9936 178.839H62.8314C62.0545 178.839 61.4247 179.469 61.4247 180.246V181.231C61.4247 182.008 62.0545 182.637 62.8314 182.637H82.9936C83.7705 182.637 84.4003 182.008 84.4003 181.231V180.246C84.4003 179.469 83.7705 178.839 82.9936 178.839Z" fill="#C7D1D9"/>
<path d="M52.9846 183.2C56.0921 183.2 58.6113 180.681 58.6113 177.573C58.6113 174.466 56.0921 171.947 52.9846 171.947C49.8771 171.947 47.3579 174.466 47.3579 177.573C47.3579 180.681 49.8771 183.2 52.9846 183.2Z" fill="#C5CFD6"/>
<path d="M102.687 193.985H45.0135C43.9777 193.985 43.1379 194.824 43.1379 195.86V211.802C43.1379 212.838 43.9777 213.678 45.0135 213.678H102.687C103.723 213.678 104.563 212.838 104.563 211.802V195.86C104.563 194.824 103.723 193.985 102.687 193.985Z" fill="white"/>
<path d="M94.247 199.893H62.8314C62.0545 199.893 61.4247 200.522 61.4247 201.299V201.44C61.4247 202.217 62.0545 202.847 62.8314 202.847H94.247C95.0239 202.847 95.6537 202.217 95.6537 201.44V201.299C95.6537 200.522 95.0239 199.893 94.247 199.893Z" fill="#C7D1D9"/>
<path d="M82.9936 204.816H62.8314C62.0545 204.816 61.4247 205.446 61.4247 206.223V206.363C61.4247 207.14 62.0545 207.77 62.8314 207.77H82.9936C83.7705 207.77 84.4003 207.14 84.4003 206.363V206.223C84.4003 205.446 83.7705 204.816 82.9936 204.816Z" fill="#C7D1D9"/>
<path d="M52.9846 209.458C56.0921 209.458 58.6113 206.939 58.6113 203.831C58.6113 200.724 56.0921 198.205 52.9846 198.205C49.8771 198.205 47.3579 200.724 47.3579 203.831C47.3579 206.939 49.8771 209.458 52.9846 209.458Z" fill="#C5CFD6"/>
<path d="M102.687 217.429H45.0135C43.9777 217.429 43.1379 218.269 43.1379 219.305V235.247C43.1379 236.283 43.9777 237.123 45.0135 237.123H102.687C103.723 237.123 104.563 236.283 104.563 235.247V219.305C104.563 218.269 103.723 217.429 102.687 217.429Z" fill="white"/>
<path d="M94.247 223.337H62.8314C62.0545 223.337 61.4247 223.967 61.4247 224.744V224.884C61.4247 225.661 62.0545 226.291 62.8314 226.291H94.247C95.0239 226.291 95.6537 225.661 95.6537 224.884V224.744C95.6537 223.967 95.0239 223.337 94.247 223.337Z" fill="#C7D1D9"/>
<path d="M82.9936 228.26H62.8314C62.0545 228.26 61.4247 228.89 61.4247 229.667V229.808C61.4247 230.585 62.0545 231.215 62.8314 231.215H82.9936C83.7705 231.215 84.4003 230.585 84.4003 229.808V229.667C84.4003 228.89 83.7705 228.26 82.9936 228.26Z" fill="#C7D1D9"/>
<path d="M52.9846 232.903C56.0921 232.903 58.6113 230.383 58.6113 227.276C58.6113 224.168 56.0921 221.649 52.9846 221.649C49.8771 221.649 47.3579 224.168 47.3579 227.276C47.3579 230.383 49.8771 232.903 52.9846 232.903Z" fill="#AFB9C5"/>
<path d="M102.687 240.874H45.0135C43.9777 240.874 43.1379 241.713 43.1379 242.749V258.691C43.1379 259.727 43.9777 260.567 45.0135 260.567H102.687C103.723 260.567 104.563 259.727 104.563 258.691V242.749C104.563 241.713 103.723 240.874 102.687 240.874Z" fill="white"/>
<path d="M94.247 246.782H62.8314C62.0545 246.782 61.4247 247.412 61.4247 248.188V248.329C61.4247 249.106 62.0545 249.736 62.8314 249.736H94.247C95.0239 249.736 95.6537 249.106 95.6537 248.329V248.188C95.6537 247.412 95.0239 246.782 94.247 246.782Z" fill="#C7D1D9"/>
<path d="M82.9936 251.705H62.8314C62.0545 251.705 61.4247 252.335 61.4247 253.112V253.252C61.4247 254.029 62.0545 254.659 62.8314 254.659H82.9936C83.7705 254.659 84.4003 254.029 84.4003 253.252V253.112C84.4003 252.335 83.7705 251.705 82.9936 251.705Z" fill="#C7D1D9"/>
<path d="M52.9846 256.347C56.0921 256.347 58.6113 253.828 58.6113 250.72C58.6113 247.613 56.0921 245.094 52.9846 245.094C49.8771 245.094 47.3579 247.613 47.3579 250.72C47.3579 253.828 49.8771 256.347 52.9846 256.347Z" fill="#C5CFD6"/>
<path d="M267.267 187.889H117.691C115.62 187.889 113.94 189.568 113.94 191.64V346.374C113.94 348.446 115.62 350.125 117.691 350.125H267.267C269.339 350.125 271.019 348.446 271.019 346.374V191.64C271.019 189.568 269.339 187.889 267.267 187.889Z" fill="#F2F2F2"/>
<path d="M259.765 208.051H234.445C232.373 208.051 230.694 209.731 230.694 211.802V242.28C230.694 244.352 232.373 246.031 234.445 246.031H259.765C261.837 246.031 263.516 244.352 263.516 242.28V211.802C263.516 209.731 261.837 208.051 259.765 208.051Z" fill="white"/>
<path d="M247.105 230.089C251.249 230.089 254.607 226.73 254.607 222.587C254.607 218.444 251.249 215.085 247.105 215.085C242.962 215.085 239.603 218.444 239.603 222.587C239.603 226.73 242.962 230.089 247.105 230.089Z" fill="#C7D1D9"/>
<path d="M257.421 231.965H236.79C236.013 231.965 235.383 232.594 235.383 233.371C235.383 234.148 236.013 234.778 236.79 234.778H257.421C258.198 234.778 258.827 234.148 258.827 233.371C258.827 232.594 258.198 231.965 257.421 231.965Z" fill="#C7D1D9"/>
<path d="M253.67 236.654H240.541C239.764 236.654 239.134 237.283 239.134 238.06C239.134 238.837 239.764 239.467 240.541 239.467H253.67C254.447 239.467 255.076 238.837 255.076 238.06C255.076 237.283 254.447 236.654 253.67 236.654Z" fill="#C7D1D9"/>
<path fill-rule="evenodd" clip-rule="evenodd" d="M117.691 187.889H267.267C269.339 187.889 271.019 189.568 271.019 191.64V200.549H113.94V191.64C113.94 189.568 115.62 187.889 117.691 187.889Z" fill="#C5CFD6"/>
<path d="M120.036 196.329C121.072 196.329 121.912 195.489 121.912 194.453C121.912 193.418 121.072 192.578 120.036 192.578C119 192.578 118.16 193.418 118.16 194.453C118.16 195.489 119 196.329 120.036 196.329Z" fill="#F2F2F2"/>
<path d="M125.663 196.329C126.698 196.329 127.538 195.489 127.538 194.453C127.538 193.418 126.698 192.578 125.663 192.578C124.627 192.578 123.787 193.418 123.787 194.453C123.787 195.489 124.627 196.329 125.663 196.329Z" fill="#F2F2F2"/>
<path d="M131.289 196.329C132.325 196.329 133.165 195.489 133.165 194.453C133.165 193.418 132.325 192.578 131.289 192.578C130.253 192.578 129.414 193.418 129.414 194.453C129.414 195.489 130.253 196.329 131.289 196.329Z" fill="#F2F2F2"/>
<path d="M259.765 249.782H234.445C232.373 249.782 230.694 251.462 230.694 253.534V336.996C230.694 339.068 232.373 340.747 234.445 340.747H259.765C261.837 340.747 263.516 339.068 263.516 336.996V253.534C263.516 251.462 261.837 249.782 259.765 249.782Z" fill="white"/>
<path d="M253.201 258.223H241.01C239.974 258.223 239.134 259.062 239.134 260.098V268.538C239.134 269.574 239.974 270.414 241.01 270.414H253.201C254.237 270.414 255.076 269.574 255.076 268.538V260.098C255.076 259.062 254.237 258.223 253.201 258.223Z" fill="#C7D1D9"/>
<path d="M253.201 274.165H241.01C239.974 274.165 239.134 275.005 239.134 276.04V284.011C239.134 285.047 239.974 285.887 241.01 285.887H253.201C254.237 285.887 255.076 285.047 255.076 284.011V276.04C255.076 275.005 254.237 274.165 253.201 274.165Z" fill="#AFB9C5"/>
<path d="M253.201 289.638H241.01C239.974 289.638 239.134 290.478 239.134 291.514V299.485C239.134 300.521 239.974 301.36 241.01 301.36H253.201C254.237 301.36 255.076 300.521 255.076 299.485V291.514C255.076 290.478 254.237 289.638 253.201 289.638Z" fill="#C7D1D9"/>
<path d="M253.201 320.585H241.01C239.974 320.585 239.134 321.425 239.134 322.461V330.432C239.134 331.468 239.974 332.307 241.01 332.307H253.201C254.237 332.307 255.076 331.468 255.076 330.432V322.461C255.076 321.425 254.237 320.585 253.201 320.585Z" fill="#C7D1D9"/>
<path d="M253.201 305.112H241.01C239.974 305.112 239.134 305.951 239.134 306.987V314.958C239.134 315.994 239.974 316.834 241.01 316.834H253.201C254.237 316.834 255.076 315.994 255.076 314.958V306.987C255.076 305.951 254.237 305.112 253.201 305.112Z" fill="#C5CFD6"/>
<path d="M225.067 208.52H123.318C122.282 208.52 121.443 209.36 121.443 210.396V228.683C121.443 229.718 122.282 230.558 123.318 230.558H225.067C226.103 230.558 226.943 229.718 226.943 228.683V210.396C226.943 209.36 226.103 208.52 225.067 208.52Z" fill="white"/>
<path d="M202.561 215.132H127.069C126.292 215.132 125.663 215.761 125.663 216.538V217.031C125.663 217.807 126.292 218.437 127.069 218.437H202.561C203.337 218.437 203.967 217.807 203.967 217.031V216.538C203.967 215.761 203.337 215.132 202.561 215.132Z" fill="#C7D1D9"/>
<path d="M176.817 220.641H127.069C126.292 220.641 125.663 221.271 125.663 222.048V222.54C125.663 223.317 126.292 223.947 127.069 223.947H176.817C177.594 223.947 178.223 223.317 178.223 222.54V222.048C178.223 221.271 177.594 220.641 176.817 220.641Z" fill="#C7D1D9"/>
<path d="M215.668 222.821C217.481 222.821 218.95 221.352 218.95 219.539C218.95 217.726 217.481 216.257 215.668 216.257C213.855 216.257 212.386 217.726 212.386 219.539C212.386 221.352 213.855 222.821 215.668 222.821Z" fill="#C7D1D9"/>
<path d="M215.668 220.946C216.445 220.946 217.075 220.316 217.075 219.539C217.075 218.762 216.445 218.133 215.668 218.133C214.891 218.133 214.261 218.762 214.261 219.539C214.261 220.316 214.891 220.946 215.668 220.946Z" fill="#F2F2F2"/>
<path d="M225.067 234.309H123.318C122.282 234.309 121.443 235.149 121.443 236.185V250.72C121.443 251.756 122.282 252.596 123.318 252.596H225.067C226.103 252.596 226.943 251.756 226.943 250.72V236.185C226.943 235.149 226.103 234.309 225.067 234.309Z" fill="white"/>
<path d="M202.596 239.795H127.034C126.277 239.795 125.663 240.409 125.663 241.167C125.663 241.924 126.277 242.538 127.034 242.538H202.596C203.353 242.538 203.967 241.924 203.967 241.167C203.967 240.409 203.353 239.795 202.596 239.795Z" fill="#C7D1D9"/>
<path d="M176.852 244.367H127.034C126.277 244.367 125.663 244.981 125.663 245.738C125.663 246.496 126.277 247.11 127.034 247.11H176.852C177.609 247.11 178.223 246.496 178.223 245.738C178.223 244.981 177.609 244.367 176.852 244.367Z" fill="#C7D1D9"/>
<path d="M215.668 246.735C217.481 246.735 218.95 245.265 218.95 243.453C218.95 241.64 217.481 240.17 215.668 240.17C213.855 240.17 212.386 241.64 212.386 243.453C212.386 245.265 213.855 246.735 215.668 246.735Z" fill="#C7D1D9"/>
<path d="M215.668 244.859C216.445 244.859 217.075 244.229 217.075 243.453C217.075 242.676 216.445 242.046 215.668 242.046C214.891 242.046 214.261 242.676 214.261 243.453C214.261 244.229 214.891 244.859 215.668 244.859Z" fill="#F2F2F2"/>
<path d="M225.067 256.347H123.318C122.282 256.347 121.443 257.187 121.443 258.222V272.758C121.443 273.794 122.282 274.634 123.318 274.634H225.067C226.103 274.634 226.943 273.794 226.943 272.758V258.222C226.943 257.187 226.103 256.347 225.067 256.347Z" fill="white"/>
<path d="M202.596 261.833H127.034C126.277 261.833 125.663 262.447 125.663 263.205C125.663 263.962 126.277 264.576 127.034 264.576H202.596C203.353 264.576 203.967 263.962 203.967 263.205C203.967 262.447 203.353 261.833 202.596 261.833Z" fill="#C7D1D9"/>
<path d="M176.852 266.405H127.034C126.277 266.405 125.663 267.019 125.663 267.776C125.663 268.534 126.277 269.148 127.034 269.148H176.852C177.609 269.148 178.223 268.534 178.223 267.776C178.223 267.019 177.609 266.405 176.852 266.405Z" fill="#C7D1D9"/>
<path d="M215.668 268.773C217.481 268.773 218.95 267.303 218.95 265.49C218.95 263.678 217.481 262.208 215.668 262.208C213.855 262.208 212.386 263.678 212.386 265.49C212.386 267.303 213.855 268.773 215.668 268.773Z" fill="#C7D1D9"/>
<path d="M215.668 266.897C216.445 266.897 217.075 266.267 217.075 265.49C217.075 264.714 216.445 264.084 215.668 264.084C214.891 264.084 214.261 264.714 214.261 265.49C214.261 266.267 214.891 266.897 215.668 266.897Z" fill="#AFB9C5"/>
<path d="M225.067 322.46H123.318C122.282 322.46 121.443 323.3 121.443 324.336V338.872C121.443 339.907 122.282 340.747 123.318 340.747H225.067C226.103 340.747 226.943 339.907 226.943 338.872V324.336C226.943 323.3 226.103 322.46 225.067 322.46Z" fill="white"/>
<path d="M202.596 327.947H127.034C126.277 327.947 125.663 328.561 125.663 329.318C125.663 330.075 126.277 330.69 127.034 330.69H202.596C203.353 330.69 203.967 330.075 203.967 329.318C203.967 328.561 203.353 327.947 202.596 327.947Z" fill="#C7D1D9"/>
<path d="M176.852 332.518H127.034C126.277 332.518 125.663 333.132 125.663 333.89C125.663 334.647 126.277 335.261 127.034 335.261H176.852C177.609 335.261 178.223 334.647 178.223 333.89C178.223 333.132 177.609 332.518 176.852 332.518Z" fill="#C7D1D9"/>
<path d="M215.668 334.886C217.481 334.886 218.95 333.417 218.95 331.604C218.95 329.791 217.481 328.322 215.668 328.322C213.855 328.322 212.386 329.791 212.386 331.604C212.386 333.417 213.855 334.886 215.668 334.886Z" fill="#C7D1D9"/>
<path d="M215.668 333.011C216.445 333.011 217.075 332.381 217.075 331.604C217.075 330.827 216.445 330.197 215.668 330.197C214.891 330.197 214.261 330.827 214.261 331.604C214.261 332.381 214.891 333.011 215.668 333.011Z" fill="#F2F2F2"/>
<path d="M225.067 300.423H123.318C122.282 300.423 121.443 301.262 121.443 302.298V316.834C121.443 317.87 122.282 318.709 123.318 318.709H225.067C226.103 318.709 226.943 317.87 226.943 316.834V302.298C226.943 301.262 226.103 300.423 225.067 300.423Z" fill="white"/>
<path d="M202.596 305.909H127.034C126.277 305.909 125.663 306.523 125.663 307.28C125.663 308.038 126.277 308.652 127.034 308.652H202.596C203.353 308.652 203.967 308.038 203.967 307.28C203.967 306.523 203.353 305.909 202.596 305.909Z" fill="#C7D1D9"/>
<path d="M176.852 310.48H127.034C126.277 310.48 125.663 311.095 125.663 311.852C125.663 312.609 126.277 313.223 127.034 313.223H176.852C177.609 313.223 178.223 312.609 178.223 311.852C178.223 311.095 177.609 310.48 176.852 310.48Z" fill="#C7D1D9"/>
<path d="M215.668 312.848C217.481 312.848 218.95 311.379 218.95 309.566C218.95 307.753 217.481 306.284 215.668 306.284C213.855 306.284 212.386 307.753 212.386 309.566C212.386 311.379 213.855 312.848 215.668 312.848Z" fill="#C7D1D9"/>
<path d="M215.668 310.973C216.445 310.973 217.075 310.343 217.075 309.566C217.075 308.789 216.445 308.159 215.668 308.159C214.891 308.159 214.261 308.789 214.261 309.566C214.261 310.343 214.891 310.973 215.668 310.973Z" fill="#F2F2F2"/>
<path d="M225.067 278.385H123.318C122.282 278.385 121.443 279.224 121.443 280.26V294.796C121.443 295.832 122.282 296.671 123.318 296.671H225.067C226.103 296.671 226.943 295.832 226.943 294.796V280.26C226.943 279.224 226.103 278.385 225.067 278.385Z" fill="white"/>
<path d="M202.596 283.871H127.034C126.277 283.871 125.663 284.485 125.663 285.242C125.663 286 126.277 286.614 127.034 286.614H202.596C203.353 286.614 203.967 286 203.967 285.242C203.967 284.485 203.353 283.871 202.596 283.871Z" fill="#C7D1D9"/>
<path d="M176.852 288.443H127.034C126.277 288.443 125.663 289.057 125.663 289.814C125.663 290.572 126.277 291.186 127.034 291.186H176.852C177.609 291.186 178.223 290.572 178.223 289.814C178.223 289.057 177.609 288.443 176.852 288.443Z" fill="#C7D1D9"/>
<path d="M215.668 290.811C217.481 290.811 218.95 289.341 218.95 287.528C218.95 285.716 217.481 284.246 215.668 284.246C213.855 284.246 212.386 285.716 212.386 287.528C212.386 289.341 213.855 290.811 215.668 290.811Z" fill="#C7D1D9"/>
<path d="M215.668 288.935C216.445 288.935 217.075 288.305 217.075 287.528C217.075 286.751 216.445 286.122 215.668 286.122C214.891 286.122 214.261 286.751 214.261 287.528C214.261 288.305 214.891 288.935 215.668 288.935Z" fill="#F2F2F2"/>
<path d="M180.523 168.196C180.523 167.419 179.893 166.789 179.116 166.789C178.339 166.789 177.709 167.419 177.709 168.196V177.105C177.709 177.882 178.339 178.511 179.116 178.511C179.893 178.511 180.523 177.882 180.523 177.105V168.196Z" fill="#C7D1D9"/>
<path d="M187.087 160.693C187.087 159.916 186.457 159.287 185.681 159.287C184.904 159.287 184.274 159.916 184.274 160.693V177.104C184.274 177.881 184.904 178.511 185.681 178.511C186.457 178.511 187.087 177.881 187.087 177.104V160.693Z" fill="#C7D1D9"/>
<path d="M193.652 156.942C193.652 156.165 193.022 155.536 192.245 155.536C191.468 155.536 190.838 156.165 190.838 156.942V177.105C190.838 177.881 191.468 178.511 192.245 178.511C193.022 178.511 193.652 177.881 193.652 177.105V156.942Z" fill="#C7D1D9"/>
<path d="M200.216 160.693C200.216 159.916 199.586 159.287 198.81 159.287C198.033 159.287 197.403 159.916 197.403 160.693V177.104C197.403 177.881 198.033 178.511 198.81 178.511C199.586 178.511 200.216 177.881 200.216 177.104V160.693Z" fill="#C7D1D9"/>
<path d="M206.781 153.191C206.781 152.414 206.151 151.784 205.374 151.784C204.597 151.784 203.967 152.414 203.967 153.191V177.104C203.967 177.881 204.597 178.511 205.374 178.511C206.151 178.511 206.781 177.881 206.781 177.104V153.191Z" fill="#C5CFD6"/>
<path fill-rule="evenodd" clip-rule="evenodd" d="M327.176 334.736C326.275 335.692 324.998 336.293 323.579 336.293C320.851 336.293 318.64 334.089 318.64 331.369C318.64 328.65 320.851 326.446 323.579 326.446V317.303C315.819 317.303 309.468 323.634 309.468 331.369C309.468 339.105 315.819 345.436 323.579 345.436C327.655 345.436 331.339 343.717 333.85 340.983L327.176 334.736Z" fill="#F2F2F2"/>
<path fill-rule="evenodd" clip-rule="evenodd" d="M323.534 317.303V326.446C326.253 326.446 328.458 328.65 328.458 331.369H337.601C337.601 323.634 331.27 317.303 323.534 317.303Z" fill="#AFB9C5"/>
<path fill-rule="evenodd" clip-rule="evenodd" d="M328.269 331.369C328.269 332.967 327.516 334.387 326.348 335.304L332.097 342.623C335.444 340.002 337.601 335.941 337.601 331.369H328.269Z" fill="#C5CFD6"/>
<path fill-rule="evenodd" clip-rule="evenodd" d="M13.6218 220.01C12.9287 220.743 11.9469 221.204 10.8549 221.204C8.75663 221.204 7.05567 219.514 7.05567 217.429C7.05567 215.344 8.75663 213.654 10.8549 213.654V206.645C4.88578 206.645 0 211.499 0 217.429C0 223.359 4.88578 228.213 10.8549 228.213C13.9903 228.213 16.824 226.896 18.7556 224.799L13.6218 220.01Z" fill="#F2F2F2"/>
<path fill-rule="evenodd" clip-rule="evenodd" d="M10.7844 206.645V213.654C12.8691 213.654 14.559 215.344 14.559 217.429H21.5689C21.5689 211.499 16.7148 206.645 10.7844 206.645Z" fill="#AFB9C5"/>
<path fill-rule="evenodd" clip-rule="evenodd" d="M14.5697 217.429C14.5697 218.627 14.0054 219.692 13.1289 220.38L17.441 225.869C19.951 223.904 21.5689 220.858 21.5689 217.429H14.5697Z" fill="#C5CFD6"/>
<path fill-rule="evenodd" clip-rule="evenodd" d="M339.949 211.327C339.947 211.332 339.945 211.336 339.942 211.342C339.945 211.337 339.949 211.319 339.949 211.327Z" fill="#C5CFD6"/>
<path fill-rule="evenodd" clip-rule="evenodd" d="M339.944 211.334C339.944 211.335 339.943 211.337 339.943 211.339C339.943 211.334 339.952 211.32 339.944 211.334Z" fill="#C5CFD6"/>
<path fill-rule="evenodd" clip-rule="evenodd" d="M339.977 211.255C339.97 211.274 339.962 211.291 339.954 211.31C339.958 211.301 339.962 211.293 339.966 211.284C339.868 211.528 339.93 211.369 339.977 211.255Z" fill="#C5CFD6"/>
<path fill-rule="evenodd" clip-rule="evenodd" d="M339.956 211.311C339.952 211.32 339.948 211.329 339.945 211.338C339.917 211.39 339.956 211.311 339.956 211.311Z" fill="#C5CFD6"/>
<path fill-rule="evenodd" clip-rule="evenodd" d="M339.945 211.334C339.945 211.333 339.945 211.333 339.946 211.333C339.945 211.333 339.945 211.333 339.945 211.334Z" fill="#C5CFD6"/>
<path fill-rule="evenodd" clip-rule="evenodd" d="M339.94 211.341C339.935 211.352 339.967 211.298 339.94 211.341V211.341Z" fill="#C5CFD6"/>
<path fill-rule="evenodd" clip-rule="evenodd" d="M339.945 211.334L339.946 211.333C339.946 211.333 339.946 211.334 339.945 211.334Z" fill="#C5CFD6"/>
<path d="M360.108 186.951H319.314C318.278 186.951 317.439 187.791 317.439 188.827V214.616C317.439 215.652 318.278 216.491 319.314 216.491H360.108C361.144 216.491 361.983 215.652 361.983 214.616V188.827C361.983 187.791 361.144 186.951 360.108 186.951Z" fill="#C5CFD6"/>
<path fill-rule="evenodd" clip-rule="evenodd" d="M334.319 195.391L321.19 216.491H347.448L334.319 195.391Z" fill="#AFB9C5"/>
<path fill-rule="evenodd" clip-rule="evenodd" d="M347.213 201.018L335.725 216.491H358.701L347.213 201.018Z" fill="#AFB9C5"/>
<path d="M352.137 201.018C354.467 201.018 356.357 199.129 356.357 196.798C356.357 194.467 354.467 192.578 352.137 192.578C349.806 192.578 347.917 194.467 347.917 196.798C347.917 199.129 349.806 201.018 352.137 201.018Z" fill="white"/>
<path fill-rule="evenodd" clip-rule="evenodd" d="M36.5701 359.497C36.572 359.501 36.5738 359.506 36.5767 359.512C36.5738 359.507 36.5701 359.488 36.5701 359.497Z" fill="#C5CFD6"/>
<path fill-rule="evenodd" clip-rule="evenodd" d="M36.5745 359.504C36.5745 359.505 36.5754 359.506 36.5754 359.508C36.5754 359.504 36.567 359.49 36.5745 359.504Z" fill="#C5CFD6"/>
<path fill-rule="evenodd" clip-rule="evenodd" d="M36.542 359.424C36.5486 359.443 36.557 359.461 36.5645 359.48C36.5608 359.47 36.557 359.463 36.5533 359.453C36.6508 359.697 36.5889 359.539 36.542 359.424Z" fill="#C5CFD6"/>
<path fill-rule="evenodd" clip-rule="evenodd" d="M36.5629 359.481C36.5666 359.489 36.5704 359.499 36.5741 359.507C36.6013 359.559 36.5629 359.481 36.5629 359.481Z" fill="#C5CFD6"/>
<path fill-rule="evenodd" clip-rule="evenodd" d="M36.5739 359.504C36.5739 359.503 36.5739 359.503 36.5729 359.502C36.5739 359.503 36.5739 359.503 36.5739 359.504Z" fill="#C5CFD6"/>
<path fill-rule="evenodd" clip-rule="evenodd" d="M36.5784 359.511C36.584 359.522 36.5522 359.467 36.5784 359.511V359.511Z" fill="#C5CFD6"/>
<path fill-rule="evenodd" clip-rule="evenodd" d="M36.5743 359.504L36.5725 359.502C36.5734 359.503 36.5734 359.504 36.5743 359.504Z" fill="#C5CFD6"/>
<path d="M5.15777 323.398H67.9891C69.0249 323.398 69.8646 324.238 69.8646 325.274V365.599C69.8646 366.634 69.0249 367.474 67.9891 367.474H5.15777C4.12193 367.474 3.2822 366.634 3.2822 365.599V325.274C3.2822 324.238 4.12193 323.398 5.15777 323.398Z" fill="#C7D1D9"/>
<path fill-rule="evenodd" clip-rule="evenodd" d="M45.142 336.058L64.3923 367.474H25.8918L45.142 336.058Z" fill="#AFB9C5"/>
<path fill-rule="evenodd" clip-rule="evenodd" d="M25.2939 344.473L42.3123 367.474H8.27551L25.2939 344.473Z" fill="#C5CFD6"/>
<path d="M18.0523 344.498C14.5563 344.498 11.7223 341.664 11.7223 338.168C11.7223 334.672 14.5563 331.838 18.0523 331.838C21.5483 331.838 24.3823 334.672 24.3823 338.168C24.3823 341.664 21.5483 344.498 18.0523 344.498Z" fill="white"/>
<path fill-rule="evenodd" clip-rule="evenodd" d="M228.282 217.492C225.565 222.556 225.888 235.403 229.4 236.308C230.8 236.669 233.783 235.785 236.82 233.955L234.914 247.438H246.167L242.294 229.381C244.454 226.845 245.916 223.737 245.672 220.254C244.968 210.22 230.999 212.427 228.282 217.492Z" fill="#CAA886"/>
<path fill-rule="evenodd" clip-rule="evenodd" d="M249.918 286.356L232.743 345.543L224.664 389.981H216.555L224.649 286.356H249.918Z" fill="#CAA886"/>
<path fill-rule="evenodd" clip-rule="evenodd" d="M249.918 286.356L232.743 345.543L224.664 389.981H216.555L224.649 286.356H249.918Z" fill="black" fill-opacity="0.1"/>
<path fill-rule="evenodd" clip-rule="evenodd" d="M257.637 286.356C256.439 317.103 256.912 333.873 257.18 336.667C257.448 339.46 258.971 358.169 269.348 390.918H260.914C247.172 359.501 242.375 340.792 240.798 336.667C239.222 332.541 234.567 315.771 227.771 286.356H257.637Z" fill="#CAA886"/>
<path fill-rule="evenodd" clip-rule="evenodd" d="M250.287 286.356C245.82 306.722 238.092 339.232 227.106 383.885H215.246C214.37 338.053 218.096 307.888 224.549 286.356H250.287Z" fill="#191847"/>
<path fill-rule="evenodd" clip-rule="evenodd" d="M257.697 286.356C256.524 317.103 259.566 347.395 268.988 384.364H256.334C242.567 353.416 232.699 323.273 225.956 286.356H257.697Z" fill="#393F82"/>
<path fill-rule="evenodd" clip-rule="evenodd" d="M270.55 397.014L270.084 389.512C267.36 390.309 263.947 389.996 259.847 388.574C255.438 391.697 249.888 393.83 243.196 394.972C242.685 395.059 242.342 395.543 242.429 396.054C242.435 396.087 242.442 396.12 242.451 396.152L243.095 398.421H259.847H269.619L270.55 397.014Z" fill="#191847"/>
<path fill-rule="evenodd" clip-rule="evenodd" d="M226.474 397.014L226.009 389.512C223.284 390.309 219.872 389.996 215.771 388.574C211.362 391.697 205.812 393.83 199.12 394.972C198.61 395.059 198.266 395.543 198.354 396.054C198.359 396.087 198.367 396.12 198.376 396.152L199.019 398.421H215.771H225.543L226.474 397.014Z" fill="#191847"/>
<path fill-rule="evenodd" clip-rule="evenodd" d="M267.592 280.738L257.793 280.777C263.844 300.308 267.11 310.671 267.592 311.866C268.677 314.555 266.381 318.65 265.399 320.851C268.597 322.282 268.256 316.982 272.29 318.859C275.972 320.572 278.773 323.676 283.027 321.051C283.55 320.728 284.123 319.513 282.739 318.564C279.289 316.198 274.317 312.058 273.645 310.695C272.729 308.837 270.711 298.851 267.592 280.738ZM208.635 278.911L195.353 291.869C191.488 293.517 188.321 295.338 185.853 297.33C185.298 297.999 184.693 299.282 187.305 298.708C189.917 298.134 192.69 297.648 193.181 298.497C193.672 299.346 192.225 300.648 193.133 301.76C193.737 302.501 195.771 300.143 199.235 294.688L213.047 286.544L208.635 278.911Z" fill="#CAA886"/>
<path fill-rule="evenodd" clip-rule="evenodd" d="M239.746 239.623L235.691 238.927C228.711 256.365 216.523 272.21 199.129 286.461L212.273 302.43C229.665 282.138 240.386 261.202 239.746 239.623Z" fill="#191847"/>
<path fill-rule="evenodd" clip-rule="evenodd" d="M257.421 290.576H221.316C229.681 270.238 233.863 252.961 233.863 238.745L244.754 237.122C253.313 250.888 255.73 267.837 257.421 290.576Z" fill="#C7D1D9"/>
<path fill-rule="evenodd" clip-rule="evenodd" d="M244.269 237.122C243.419 237.152 242.123 237.204 240.382 237.281L237.751 244.801C237.472 253.971 235.847 272.45 232.874 300.238L256.541 300.238C256.479 302.157 256.377 304.094 256.234 306.049H273.832C271.2 276.352 261.587 253.376 244.993 237.122L244.985 237.13L244.98 237.122H244.269Z" fill="#393F82"/>
<path fill-rule="evenodd" clip-rule="evenodd" d="M249.919 300.422L256.535 300.422C256.825 291.815 256.306 283.568 254.978 275.681C254.304 287.645 252.618 295.892 249.919 300.422Z" fill="black" fill-opacity="0.1"/>
<path fill-rule="evenodd" clip-rule="evenodd" d="M251.273 285.887L239.603 280.461V285.887H251.273Z" fill="white" fill-opacity="0.2"/>
<path fill-rule="evenodd" clip-rule="evenodd" d="M130.888 217.492C133.605 222.556 133.282 235.403 129.77 236.308C128.37 236.669 125.387 235.785 122.35 233.955L124.256 247.438H113.003L116.876 229.381C114.716 226.845 113.254 223.737 113.498 220.254C114.202 210.22 128.17 212.427 130.888 217.492Z" fill="#B28B67"/>
<path fill-rule="evenodd" clip-rule="evenodd" d="M124.474 211.655C122.99 211.412 118.997 211.244 118.26 211.245C117.79 211.245 117.28 211.352 117.001 210.92C116.773 210.566 116.856 209.968 116.788 209.557C116.709 209.08 116.597 208.609 116.483 208.139C116.16 206.803 115.671 205.531 114.986 204.337C113.702 202.097 111.822 200.343 109.447 199.322C106.825 198.195 103.857 197.937 101.037 198.165C98.0183 198.41 95.286 199.406 92.4361 200.344C89.7203 201.238 86.8759 201.589 84.0355 201.153C81.1736 200.713 79.0113 199.162 76.5974 197.69C74.1262 196.183 71.3022 195.197 68.3808 195.424C65.6539 195.635 63.1405 196.761 60.8856 198.265C58.7759 199.673 57.035 201.366 56.0522 203.749C54.9949 206.312 54.9959 209.126 56.7346 211.391C59.2547 214.675 63.9332 215.524 67.8255 215.44C70.0769 215.391 72.288 214.98 74.4136 214.233C77.2483 213.236 79.6979 211.546 82.3498 210.175C83.5944 209.531 84.8808 209.003 86.2293 208.622C87.5377 208.253 88.8265 208.083 90.0113 208.873C91.2645 209.71 92.3876 210.531 93.8213 211.055C95.1968 211.557 96.6537 211.838 98.1191 211.826C100.97 211.804 103.781 210.916 106.55 210.321C108.808 209.836 111.224 209.352 113.526 209.819C114.487 210.013 115.89 210.415 116.237 211.413C110.398 212.472 108.104 219.694 109.75 224.996C110.639 227.857 115.98 231.202 118.057 229.698C119.372 228.745 118.574 227.494 118.057 226.668C117.067 225.086 116.728 223.054 118.56 221.953C120.14 221.003 121.801 223.259 121.833 223.256C122.267 223.222 126.019 221.1 128.605 218.003C131.155 218.154 131.542 216.473 130.933 215.097C130.324 213.722 126.523 211.991 124.474 211.655Z" fill="#A55728"/>
<path fill-rule="evenodd" clip-rule="evenodd" d="M110.189 286.356L145.031 344.605L171.152 393.849H176.778L133.012 286.356L110.189 286.356Z" fill="#997659"/>
<path fill-rule="evenodd" clip-rule="evenodd" d="M167.712 391.576C167.187 392.976 166.925 394.024 166.925 394.719C166.925 395.565 167.066 396.799 167.348 398.421C168.328 398.421 177.144 398.421 193.794 398.421C194.481 396.149 194.084 394.922 192.604 394.741C191.123 394.56 189.893 394.396 188.914 394.25L176.622 388.77C176.385 388.665 176.108 388.771 176.002 389.008C176.001 389.012 175.999 389.016 175.997 389.02L175.207 390.937C173.836 391.576 172.722 391.896 171.865 391.896C171.169 391.896 170.208 391.615 168.981 391.052L168.981 391.052C168.51 390.837 167.953 391.043 167.737 391.514C167.728 391.534 167.72 391.555 167.712 391.576Z" fill="#E4E4E4"/>
<path fill-rule="evenodd" clip-rule="evenodd" d="M163.897 385.964L174.747 382.681C169.994 368.47 164.167 352.831 157.268 335.765C150.369 318.698 142.96 302.229 135.04 286.356H104.396C113.2 306.434 122.535 324.678 132.399 341.087C142.262 357.496 152.762 372.455 163.897 385.964Z" fill="#1820BF"/>
<path fill-rule="evenodd" clip-rule="evenodd" d="M107.899 286.356C104.611 306.825 98.2687 332.977 97.6701 333.784C97.2711 334.322 82.9057 339.135 54.5741 348.225L55.7894 353.186C89.5749 348.311 107.377 344.529 109.196 341.84C111.924 337.806 125.545 305.938 130.82 286.356H107.899Z" fill="#B28B67"/>
<path fill-rule="evenodd" clip-rule="evenodd" d="M64.5332 343.936L66.6739 351.926C91.9434 354.143 107.427 352.541 113.123 347.122C118.82 341.703 125.313 321.448 132.602 286.356H103.38C98.7622 315.091 96.1805 330.062 95.635 331.268C95.0895 332.475 84.7222 336.697 64.5332 343.936Z" fill="#2B44FF"/>
<path fill-rule="evenodd" clip-rule="evenodd" d="M55.9615 346.158C54.4914 345.884 53.414 345.808 52.7293 345.929C51.8966 346.076 50.706 346.429 49.1574 346.988C49.3277 347.954 50.8585 356.635 53.7497 373.032C56.1066 373.314 57.2456 372.711 57.1669 371.221C57.0882 369.731 57.0357 368.492 57.0094 367.502L60.2715 354.445C60.3343 354.194 60.1815 353.939 59.9302 353.877C59.9259 353.875 59.9216 353.874 59.9173 353.873L57.8926 353.428C57.0247 352.189 56.5164 351.148 56.3676 350.304C56.2467 349.618 56.3566 348.622 56.6975 347.317L56.6975 347.317C56.8283 346.815 56.528 346.303 56.0269 346.172C56.0053 346.167 55.9835 346.162 55.9615 346.158Z" fill="#E4E4E4"/>
<path fill-rule="evenodd" clip-rule="evenodd" d="M91.5781 280.739L101.377 280.777C95.3265 300.308 92.0603 310.671 91.5781 311.866C90.4931 314.555 92.7891 318.65 93.7709 320.851C90.5731 322.282 90.9138 316.982 86.8798 318.859C83.1977 320.572 80.3968 323.676 76.1427 321.051C75.6197 320.728 75.0466 319.513 76.4314 318.564C79.8813 316.198 84.853 312.058 85.5247 310.695C86.4408 308.837 88.4586 298.851 91.5781 280.739ZM150.535 278.911L163.817 291.869C167.682 293.517 170.849 295.338 173.317 297.33C173.872 297.999 174.477 299.282 171.865 298.708C169.253 298.134 166.48 297.648 165.989 298.497C165.498 299.347 166.945 300.648 166.037 301.76C165.433 302.501 163.399 300.144 159.935 294.688L146.123 286.545L150.535 278.911Z" fill="#B28B67"/>
<path fill-rule="evenodd" clip-rule="evenodd" d="M119.424 239.623L123.479 238.927C130.459 256.365 142.647 272.21 160.041 286.462L146.897 302.43C129.505 282.138 118.784 261.202 119.424 239.623Z" fill="#E87613"/>
<path fill-rule="evenodd" clip-rule="evenodd" d="M101.749 290.576H137.854C129.489 270.238 125.307 252.961 125.307 238.745L114.416 237.123C105.857 250.888 103.44 267.837 101.749 290.576Z" fill="#C7D1D9"/>
<path fill-rule="evenodd" clip-rule="evenodd" d="M114.901 237.123C115.751 237.152 117.047 237.205 118.788 237.281L121.419 244.802C121.698 253.971 123.323 272.45 126.296 300.238L102.629 300.238C102.691 302.157 102.793 304.094 102.936 306.049H85.3381C87.9704 276.352 97.5833 253.376 114.177 237.123L114.185 237.131L114.19 237.123H114.901Z" fill="#FFA434"/>
<path fill-rule="evenodd" clip-rule="evenodd" d="M109.252 300.423L102.635 300.422C102.345 291.815 102.864 283.568 104.192 275.682C104.866 287.645 106.552 295.892 109.252 300.423Z" fill="black" fill-opacity="0.1"/>
<path fill-rule="evenodd" clip-rule="evenodd" d="M107.897 285.887L119.567 280.462V285.887H107.897Z" fill="white" fill-opacity="0.2"/>
</svg>
