<svg width="209" height="203" viewBox="0 0 209 203" fill="none" xmlns="http://www.w3.org/2000/svg">
<path d="M19.9457 92.3259C13.5924 67.7329 38.5822 46.755 61.7028 57.2727C69.7568 60.9365 79.0121 60.8851 87.0249 57.132L98.8272 51.6039C136.832 33.8029 176.525 72.7752 159.423 111.1L158.732 112.647C155.509 119.87 154.514 127.889 155.873 135.681L156.039 136.635C161.059 165.41 133.946 189.355 106.012 180.815C97.9812 178.36 89.3739 178.552 81.4603 181.362L56.4975 190.225C36.7323 197.242 15.0543 186.682 8.3965 166.793L5.69208 158.714C2.27926 148.519 5.65015 137.279 14.1104 130.644C22.0582 124.411 25.5616 114.064 23.0353 104.285L19.9457 92.3259Z" fill="#DBC2CF"/>
<path d="M120.85 78.8223L121.107 78.2438C121.478 77.4083 121.91 76.7798 122.405 76.3583C122.903 75.9297 123.635 75.5707 124.601 75.2814C125.936 74.8911 126.821 74.5443 127.255 74.2411C127.696 73.9409 128.046 73.4981 128.306 72.9125C128.629 72.1842 128.642 71.519 128.345 70.9171C128.058 70.3113 127.476 69.8135 126.598 69.4237C126.033 69.1734 125.453 68.9972 124.858 68.8953C124.265 68.7861 123.545 68.7529 122.697 68.7954L122.707 67.0689C124.37 66.9608 125.937 67.2332 127.408 67.8859C128.772 68.4912 129.684 69.2973 130.143 70.3045C130.602 71.3116 130.56 72.4257 130.019 73.6469C129.787 74.1682 129.511 74.5971 129.191 74.9336C128.881 75.2661 128.511 75.5507 128.082 75.7874C127.655 76.0169 126.817 76.3248 125.569 76.711C124.575 77.0051 123.87 77.3034 123.454 77.6059C123.045 77.9115 122.69 78.4035 122.389 79.0819L122.232 79.4354L120.85 78.8223ZM118.914 81.7707C119.345 80.7995 119.989 80.504 120.845 80.8843C121.26 81.0681 121.522 81.334 121.632 81.6822C121.75 82.0335 121.704 82.4449 121.495 82.9162C121.292 83.3732 121.02 83.6796 120.677 83.8352C120.338 83.9838 119.964 83.9677 119.557 83.7871C119.186 83.6223 118.928 83.3754 118.784 83.0463C118.642 82.7101 118.686 82.2848 118.914 81.7707Z" fill="#243B4A"/>
<path d="M40.7783 111.401L40.6455 110.783C40.4536 109.889 40.4336 109.126 40.5856 108.494C40.7359 107.855 41.1164 107.134 41.7272 106.331C42.5774 105.23 43.0886 104.429 43.2608 103.929C43.4407 103.426 43.4634 102.862 43.3289 102.236C43.1616 101.457 42.7807 100.911 42.1864 100.599C41.5981 100.278 40.8341 100.219 39.8946 100.42C39.2912 100.55 38.7186 100.749 38.1769 101.017C37.6335 101.277 37.0316 101.674 36.371 102.208L35.3629 100.806C36.6442 99.74 38.0715 99.0379 39.6451 98.7C41.104 98.3868 42.3154 98.5022 43.2792 99.0463C44.2431 99.5905 44.8652 100.516 45.1457 101.822C45.2654 102.379 45.2948 102.888 45.2339 103.349C45.179 103.8 45.0474 104.248 44.8392 104.692C44.6293 105.129 44.1333 105.871 43.3513 106.918C42.7209 107.74 42.3264 108.396 42.1678 108.886C42.0169 109.374 42.0193 109.98 42.1752 110.706L42.2563 111.084L40.7783 111.401ZM40.9476 114.925C40.7245 113.886 41.0713 113.268 41.9879 113.071C42.4309 112.976 42.7995 113.037 43.0937 113.253C43.3956 113.468 43.6006 113.828 43.7089 114.332C43.8138 114.821 43.7736 115.229 43.5883 115.556C43.4012 115.876 43.09 116.083 42.6547 116.176C42.2575 116.262 41.9036 116.214 41.593 116.033C41.2808 115.844 41.0657 115.475 40.9476 114.925Z" fill="#243B4A"/>
<path fill-rule="evenodd" clip-rule="evenodd" d="M146.236 136.741C144.625 136.899 143.014 137.057 141.403 137.216C133.687 137.805 125.974 139.036 118.318 139.775C118.127 139.465 117.754 139.516 117.528 139.732C116.764 139.665 115.907 139.081 115.215 139.688C115.193 139.685 115.17 139.681 115.148 139.679C113.915 137.314 113.064 134.791 112.237 132.265C111.709 130.712 110.999 129.209 109.688 128.166C107.449 126.612 102.319 123.461 99.69 123.593C99.6464 123.123 99.427 122.637 99.0667 122.324C99.8608 120.97 96.6858 120.087 96.4619 120.244C96.6054 115.721 94.4779 111.793 89.7868 110.893C85.5842 110.017 79.6066 109.87 77.3463 114.262C77.0979 114.234 74.5581 114.221 74.3124 114.248C73.9303 113.764 69.7346 118.35 71.4542 119.946C56.0798 126.747 47.3378 125.936 43.0824 145.055C42.5071 146.851 42.4652 148.817 41.8577 150.573C39.6965 155.62 37.9435 160.993 37.5072 166.485C36.4536 166.755 36.3324 168.612 37.5529 168.881C38.0191 168.984 38.4089 169.124 38.7489 169.39C38.4831 173.89 39.5715 184.17 40.2572 184.138C41.6555 188.588 47.8924 189.844 52.308 188.28C51.5468 189.713 52.308 190.613 52.308 191.378C68.1963 191.979 85.5685 191.633 101.452 192.457C103.484 192.428 105.621 192.956 107.625 192.653C108.847 192.36 108.85 190.438 107.61 190.2L113.027 189.024C112.906 188.978 115.26 187.412 117.039 184.487C118.695 181.214 117.568 177.263 118.318 173.703C124.178 173.223 130.136 173.018 135.932 172.026C136.722 174.391 140.143 171.563 141.231 170.425C141.23 170.423 141.228 170.422 141.227 170.42C141.753 170.276 142.175 169.783 142.189 169.199C142.558 168.671 142.636 167.928 142.282 167.418C143.904 158.058 146.377 148.5 147.271 139.052C147.587 138.982 147.885 138.843 148.137 138.63L148.116 138.61C148.544 138.133 148.627 137.31 147.914 136.905C147.34 136.578 146.86 136.68 146.236 136.741Z" fill="#D08B5B"/>
<path fill-rule="evenodd" clip-rule="evenodd" d="M84.9644 171.776L86.2055 172.565L96.3594 175.837L102.565 176.627L107.642 175.837V184.524L108.657 192.647C108.206 193.475 103.918 193.475 95.7953 192.647C90.617 192.12 71.6917 191.864 67.3828 191.752L67.1386 191.745C62.0753 191.599 57.0735 191.599 52.1334 191.745V188.699L66.2361 181.704L78.8721 174.596L84.9644 171.776ZM77.7697 113.552L78.7023 114.248L76.6662 117.594L86.5846 125.616V132.024L89.7247 134.994L91.5196 132.024L94.0487 128.661L95.8461 123.209L95.2341 119.617L96.4648 119.501C96.4707 119.747 96.4697 119.995 96.4618 120.244C96.6857 120.087 99.8607 120.97 99.0667 122.324C99.4269 122.638 99.6463 123.123 99.6899 123.593C102.319 123.461 107.449 126.612 109.687 128.166C110.999 129.209 111.709 130.713 112.237 132.265L112.361 132.644L112.489 133.033L112.619 133.422C113.333 135.558 114.103 137.675 115.148 139.679C115.17 139.681 115.193 139.685 115.215 139.688C115.907 139.081 116.764 139.665 117.528 139.732C117.749 139.521 118.11 139.467 118.304 139.754L118.318 139.775L108.799 141.65L102.519 163.678L97.0505 159.239L94.1151 159.675L86.3633 162.471L77.3474 164.813L56.7653 170.488H54.1443L38.8926 166.804L37.5181 166.351C37.972 160.906 39.714 155.579 41.8577 150.573C42.4651 148.817 42.507 146.851 43.0823 145.055C47.3377 125.936 56.0797 126.747 71.4541 119.946C69.7345 118.35 73.9303 113.764 74.3123 114.248L74.3364 114.246L74.3885 114.243L74.4556 114.241C75.0553 114.224 77.1233 114.237 77.3462 114.262C77.4756 114.011 77.6171 113.774 77.7697 113.552Z" fill="#FFCF77"/>
<path fill-rule="evenodd" clip-rule="evenodd" d="M147.757 137.41L147.474 138.99C147.406 139.012 147.338 139.031 147.268 139.046C147.179 139.988 147.074 140.931 146.956 141.875L145.198 151.672C144.895 153.406 144.607 155.143 144.322 156.88L143.943 158.747L143.709 159.907C143.202 162.419 142.711 164.923 142.279 167.413C142.344 167.507 142.395 167.608 142.432 167.715L142.398 167.855L142.375 167.949L142.352 168.041C142.011 169.35 141.419 170.619 140.023 171.005C138.97 171.295 137.814 171.321 136.727 171.436L136.606 171.449L117.578 173.589C115.279 173.847 112.98 174.114 110.683 174.383L108.69 174.616C105.914 174.938 103.121 175.191 100.386 175.773C100.285 175.794 100.202 175.835 100.134 175.887C100.685 173.802 101.212 171.719 101.69 169.613C102.228 167.242 102.739 164.867 103.314 162.505C104.473 157.746 105.772 153.019 107.195 148.332C107.493 147.348 107.799 146.366 108.111 145.387L108.33 144.702L108.499 144.156C108.759 143.325 109.082 142.47 109.847 142.011C110.742 141.474 111.963 141.385 112.978 141.199L113.665 141.07C114.694 140.878 115.724 140.693 116.755 140.516C121.691 139.667 126.656 138.986 131.639 138.474C136.824 137.942 142.027 137.596 147.236 137.426L147.757 137.41ZM100.528 170.077L100.577 170.081L99.8661 175.763C99.7524 175.683 99.6081 175.634 99.432 175.635C97.1006 175.642 94.8657 174.897 92.7041 174.077L92.3749 173.952L91.4571 173.599C90.5242 173.242 89.5863 172.892 88.631 172.602L88.2448 172.486L88.0485 172.428C87.3251 172.217 86.5642 172.025 85.8118 171.977L85.7092 171.971L85.9283 171.856C85.9604 171.84 85.9885 171.821 86.0134 171.8C86.4276 171.831 86.8425 171.823 87.2794 171.744C88.1009 171.596 88.8998 171.31 89.6334 170.912L89.961 170.735L90.0951 170.664L90.1837 170.618L90.2718 170.573C90.9019 170.259 91.5043 170.062 92.2998 170.23C93.2028 170.42 93.9942 170.906 94.8082 171.318L94.9527 171.39L95.0499 171.437L95.1489 171.483L95.2491 171.529C96.3499 172.024 98.1018 172.559 98.5239 171.062C98.6935 170.461 98.5607 169.898 98.2665 169.404C98.8148 169.357 99.7943 170.003 100.528 170.077ZM127.93 151.357L127.943 151.425C128.099 152.263 127.709 153.064 127.118 153.649C126.633 154.128 125.776 154.394 125.533 155.084C125.395 155.476 125.542 155.848 125.826 156.107L125.76 156.14L125.696 156.172L125.634 156.206L125.573 156.239L125.514 156.272C124.549 156.827 123.763 157.728 124.633 158.817C125.621 160.053 127.684 160.093 129.137 159.996L129.235 159.989C130.645 159.884 132.314 159.41 133.079 158.109C133.429 157.512 133.391 156.79 132.902 156.279C132.607 155.971 132.081 155.654 131.599 155.616C131.62 155.345 131.588 155.082 131.492 154.861C131.286 154.382 130.736 154.06 130.205 154.048C130.248 153.032 129.434 152.028 128.834 151.216L128.773 151.132L128.714 151.05C128.439 150.668 127.85 150.882 127.93 151.357ZM128.734 152.439L129.281 154.484L129.271 154.501C129.079 154.867 129.583 155.281 129.882 154.974L129.912 154.942C130.267 154.575 130.812 155.068 130.819 155.458C130.829 156.008 130.471 156.432 130.045 156.713L130.015 156.732L129.937 156.781C129.587 157.012 129.852 157.495 130.236 157.437C130.712 157.364 131.102 156.987 131.342 156.516C131.599 156.589 131.891 156.58 132.161 156.731C132.843 157.113 132.451 157.779 132.007 158.182L131.989 158.199L131.953 158.23C131.139 158.924 130.03 159.165 128.986 159.217L128.925 159.22C127.87 159.265 126.495 159.28 125.59 158.659C125.027 158.273 124.864 157.725 125.341 157.206C125.61 156.913 125.882 156.617 126.162 156.331C126.581 156.531 126.956 156.45 127.384 156.261C127.439 156.237 127.409 156.153 127.355 156.153C127.118 156.152 126.251 155.713 126.208 155.433C126.169 155.173 126.649 154.954 126.883 154.829L126.917 154.81L126.946 154.793C127.19 154.646 127.42 154.473 127.63 154.28C128.163 153.789 128.551 153.174 128.72 152.5L128.734 152.439Z" fill="white"/>
<path fill-rule="evenodd" clip-rule="evenodd" d="M77.6392 113.242C78.1179 112.039 79.7361 112.507 79.5557 113.77C79.4477 114.527 79.0331 115.327 78.6607 115.99C78.3574 116.531 78.0115 117.058 77.5425 117.462C78.3774 118.241 79.244 118.992 80.1326 119.704C81.1021 120.482 82.1217 121.198 83.1756 121.857C84.0997 122.435 85.0656 122.947 85.9366 123.606C86.7466 124.218 87.4844 124.955 87.8599 125.917C88.2599 126.942 88.0861 128 87.7915 129.024L87.7577 129.139C87.4568 130.154 86.9359 131.376 87.6582 132.332C88.0259 132.818 88.5604 133.163 89.022 133.552C89.4322 133.897 89.8172 134.273 90.1704 134.677C90.9404 135.557 91.5667 136.548 91.9619 137.651L91.9972 137.752C92.336 138.729 92.5835 139.926 92.1258 140.885C91.9945 141.16 91.5709 141.07 91.4974 140.803C91.3311 140.196 91.3398 139.561 91.2003 138.946C91.0552 138.306 90.8138 137.699 90.4985 137.124C89.8883 136.013 89.0621 135.064 88.0858 134.261L87.7936 134.023C87.032 133.398 86.3323 132.735 86.1777 131.701C86.0124 130.594 86.4557 129.54 86.7408 128.493C86.9395 127.763 87.0044 127.063 86.7897 126.403C86.5274 126.832 86.1695 127.238 85.8864 127.6C85.3227 128.323 84.7536 129.04 84.186 129.759C83.6041 130.497 83.0365 131.246 82.4959 132.014C82.2542 132.358 82.015 132.704 81.7766 133.05C81.5973 133.31 81.3473 133.57 81.1519 133.836C81.1994 133.977 81.1958 134.141 81.1097 134.257C80.0734 135.657 78.5992 132.736 78.2147 131.998C77.4317 130.495 76.849 128.898 76.0634 127.395C75.2494 125.837 74.3225 124.321 73.2894 122.899C72.6645 122.038 71.9641 121.23 71.3924 120.343C70.0456 121.564 68.2734 122.383 66.6457 123.125C64.8572 123.941 62.9991 124.607 61.1654 125.314L60.6237 125.525C57.4642 126.758 54.2274 128.112 51.6013 130.303C48.5153 132.876 46.6896 136.464 45.3304 140.178C43.7658 144.455 42.4714 148.847 41.2648 153.236C40.6473 155.482 40.0614 157.738 39.5106 160.001C39.0253 161.994 38.623 164.008 38.0611 165.981C39.2006 165.941 40.5002 166.382 41.4731 166.509C45.9068 167.09 50.2809 168.015 54.4669 169.617C54.984 169.815 55.1336 170.331 55.021 170.75C55.3192 170.665 55.6171 170.58 55.9153 170.496C55.5886 169.996 55.7446 169.101 55.7702 168.546L55.7718 168.508C55.7982 167.769 55.8784 167.028 55.9304 166.291C56.0295 164.884 56.1584 163.487 56.3299 162.089L56.3736 161.739C56.5679 160.217 56.7115 158.686 56.9235 157.167L56.9485 156.993C56.8469 156.605 56.7285 156.221 56.6043 155.839C56.2733 154.82 55.8061 153.862 55.3967 152.876C55.3484 152.76 55.5138 152.693 55.5911 152.763C56.2845 153.386 56.8353 154.178 57.2778 155.005C57.2854 154.966 57.2922 154.927 57.3002 154.888L57.3507 154.64C57.4752 154.034 57.6267 153.396 57.9985 152.904C58.0381 152.852 58.1164 152.841 58.1538 152.904C58.5097 153.506 58.5495 154.269 58.6042 154.954C58.6661 155.729 58.6739 156.514 58.663 157.291C58.6417 158.81 58.5346 160.334 58.4493 161.85C58.3656 163.34 58.2013 164.811 57.9895 166.287L57.9493 166.564C57.8457 167.266 57.761 167.977 57.6244 168.675L57.5859 168.864C57.5129 169.21 57.468 169.698 57.3227 170.103C61.0613 169.06 64.8058 168.041 68.5573 167.04C71.2687 166.317 73.983 165.604 76.6961 164.887C76.8393 164.629 77.0176 164.388 77.24 164.172C77.973 163.462 78.9444 163.146 79.8354 163.692C79.9078 163.737 79.9139 163.85 79.8354 163.893C79.6647 163.986 79.4936 164.082 79.3257 164.182L80.9548 163.741C82.1725 163.411 83.4047 162.998 84.651 162.768C86.9466 161.635 89.4156 160.815 91.8338 160.005L92.1188 159.908C93.357 159.486 94.6377 159.014 95.9169 158.78C96.8535 158.608 97.9528 158.815 98.3294 159.775C98.8062 160.089 99.2548 160.458 99.6877 160.821C100.001 161.084 100.301 161.363 100.606 161.634L100.662 161.684C100.911 161.9 101.109 162.045 101.17 162.389C101.202 162.567 101.089 162.808 100.869 162.784C100.198 162.712 99.6519 161.934 99.1965 161.47C98.8448 161.11 98.4902 160.739 98.1691 160.344C97.9819 160.446 97.7254 160.428 97.6062 160.202C96.9884 159.032 95.296 159.843 94.3596 160.12L93.0181 160.517C92.3474 160.716 91.677 160.916 91.0077 161.119C89.1683 161.678 87.3379 162.303 85.4818 162.816C85.6478 162.998 85.6249 163.323 85.3095 163.447C83.8566 164.017 82.2626 164.312 80.7532 164.703C79.8002 164.95 78.8477 165.199 77.8956 165.449C77.7324 165.713 77.6149 166.012 77.5655 166.361C77.3838 167.641 77.7343 169.119 78.0756 170.357L78.127 170.542C78.4076 171.538 78.8204 172.759 79.6796 173.387C79.8893 173.541 80.1564 173.647 80.4255 173.672C82.1074 172.806 83.7891 171.94 85.4718 171.076C85.7835 170.916 86.0716 171.133 86.1415 171.391C86.7349 171.293 87.3268 171.14 87.866 170.957C88.772 170.649 89.4794 170.062 90.3287 169.657C91.972 168.872 93.6502 169.836 95.1216 170.569L95.4607 170.736C96.1205 171.056 97.4932 171.671 97.8099 170.795C98.1161 169.948 97.1479 169.043 96.5227 168.662C95.7774 168.207 94.9096 167.964 94.0672 167.761C93.5863 167.645 93.0995 167.551 92.6097 167.482C92.0542 167.404 91.4804 167.416 90.9455 167.235C90.6797 167.146 90.6388 166.724 90.9455 166.654C91.7688 166.467 92.7516 166.671 93.6108 166.88L94.0599 166.991C94.9256 167.203 95.7996 167.47 96.5881 167.894C97.1615 168.202 97.7666 168.67 98.162 169.243C98.5053 168.924 98.9326 168.935 99.3776 169.053L99.6192 169.12C100.018 169.231 100.342 169.307 100.73 169.231C100.782 168.948 100.834 168.666 100.89 168.383C101.444 165.606 102.05 162.84 102.72 160.088C103.874 155.342 105.21 150.648 106.716 146.002L106.868 145.538C107.215 144.475 107.495 143.317 108.055 142.341C108.584 141.418 109.433 140.886 110.441 140.604C111.585 140.285 112.788 140.118 113.955 139.902C114.215 139.854 114.477 139.808 114.737 139.761C114.517 139.363 114.352 138.912 114.204 138.565L114.178 138.505C113.86 137.78 113.575 137.042 113.299 136.299L113.092 135.741C112.594 134.398 112.08 133.076 111.379 131.819C110.642 130.496 109.663 129.415 108.444 128.52C105.957 126.695 102.961 125.764 100.549 123.814C100.45 123.734 100.577 123.597 100.677 123.648C102.306 124.466 104.063 125.022 105.757 125.688L106.091 125.82C107.43 126.351 108.789 126.929 109.948 127.788C111.24 128.746 112.257 129.936 113.022 131.351C113.776 132.745 114.258 134.306 114.789 135.796L114.932 136.193C115.146 136.788 115.368 137.382 115.622 137.961C115.823 138.421 116.199 138.946 116.37 139.471C116.838 139.39 117.305 139.308 117.773 139.23C127.912 137.538 138.164 136.543 148.439 136.252C148.841 136.241 149.049 136.624 148.99 136.975C148.004 142.805 147.128 148.656 146.166 154.491C145.747 157.038 145.318 159.583 144.88 162.126C144.658 163.415 144.402 164.699 144.192 165.989C144.022 167.032 143.899 168.082 143.608 169.1C143.346 170.013 142.945 170.893 142.287 171.589C141.577 172.34 140.586 172.704 139.589 172.875C137.057 173.311 134.46 173.489 131.908 173.779L118.319 175.325C118.517 177.13 118.532 178.907 118.441 180.733L118.389 181.73C118.347 182.532 118.296 183.335 118.181 184.128C118.036 185.124 117.581 185.967 116.91 186.71C116.294 187.393 115.546 187.975 114.818 188.534C114.063 189.113 113.282 189.673 112.394 190.031L112.279 190.077C111.499 190.381 110.038 190.852 108.973 190.68C109.112 191.378 109.381 192.128 109.142 192.818C109.032 193.139 108.612 193.298 108.356 193.026C107.847 192.485 107.807 191.771 107.687 191.066C107.561 190.332 107.453 189.596 107.357 188.858C107.172 187.431 107.027 185.99 106.983 184.551C106.938 183.073 106.955 181.592 107.035 180.116C107.076 179.357 107.126 178.6 107.223 177.846C107.264 177.525 107.306 177.203 107.354 176.883C107.371 176.766 107.391 176.65 107.411 176.534L106.192 176.671C104.322 176.88 102.45 177.068 100.567 177.098C100.344 177.101 100.172 177 100.06 176.852C99.9407 177.046 99.7327 177.186 99.4347 177.184C96.8045 177.175 94.3552 176.315 91.9629 175.301C90.7571 174.79 89.5699 174.237 88.3623 173.73C87.2351 173.257 86.0301 172.92 84.9301 172.387L82.0396 173.903C82.0184 173.977 81.9912 174.048 81.9623 174.107C81.7741 174.491 81.403 174.7 81.0241 174.856C80.6603 175.007 80.2836 175.054 79.9166 175.016C77.7245 176.165 75.5318 177.313 73.3377 178.458L71.1431 179.602C66.7705 181.878 62.4153 184.192 58.0153 186.415L57.6913 186.578C56.1715 187.34 54.5396 188.113 52.853 188.689C52.823 189.116 52.842 189.531 52.8777 189.983L52.8863 190.082C52.9366 190.616 53.0444 191.285 52.6161 191.665C52.3933 191.863 51.9952 191.863 51.8437 191.565C51.5688 191.025 51.8156 190.173 51.9027 189.585C51.9336 189.377 51.9713 189.162 52.027 188.954C50.0935 189.529 48.1014 189.808 46.1338 189.485C44.2181 189.171 42.7344 187.964 41.5383 186.488C40.2759 184.93 39.3789 183.115 38.8976 181.168C38.3498 178.954 38.3141 176.667 38.3269 174.399C38.3406 171.983 38.4299 169.556 38.7237 167.157C38.4018 167.081 38.0449 167.016 37.7196 167.038C37.5585 167.296 37.246 167.405 36.9636 167.371C36.3495 168.048 37.9071 168.741 38.4049 168.914C38.5777 168.974 38.5592 169.255 38.3599 169.246L38.2343 169.24C37.4651 169.2 36.6705 169.068 36.2183 168.353C35.8559 167.781 35.9648 167.102 36.3968 166.635C36.6821 163.937 37.3642 161.31 37.9991 158.678C38.6221 156.095 39.3149 153.529 40.0493 150.975L40.3785 149.832C41.5347 145.828 42.7432 141.792 44.3382 137.947C45.1346 136.028 46.052 134.143 47.2957 132.469C48.4549 130.909 49.8235 129.574 51.3967 128.433C54.3295 126.307 57.7708 125.022 61.1521 123.798L61.3034 123.744C63.0557 123.11 64.8036 122.468 66.5359 121.782C68.0679 121.174 69.5356 120.404 71.0604 119.788C71.0108 119.698 70.963 119.607 70.917 119.515L70.8888 119.539C70.884 119.543 70.879 119.546 70.8739 119.55C70.7205 119.656 70.4948 119.604 70.3684 119.485C70.0116 119.148 70.1324 118.774 70.3706 118.425L70.4016 118.381C70.6929 117.972 70.9527 117.541 71.2216 117.118L71.3899 116.854C71.8412 116.147 72.3155 115.436 72.9172 114.852C73.1958 114.582 73.5009 114.379 73.8241 114.229C73.7965 114.17 74.0388 114.051 74.1075 114.111C75.1316 113.736 76.3098 113.814 77.4263 113.918L77.6392 113.242ZM117.661 175.4L116.237 175.562C114.671 175.74 113.104 175.912 111.537 176.083L108.133 176.453C108.124 176.647 108.1 176.837 108.096 176.983C108.074 177.739 108.057 178.495 108.042 179.251C108.01 180.766 108.045 182.282 108.144 183.794C108.241 185.259 108.368 186.725 108.566 188.18L108.607 188.471L108.63 188.624C108.792 188.639 108.95 188.716 109.082 188.874C109.37 189.217 110.413 188.883 110.82 188.738C111.489 188.5 112.12 188.097 112.702 187.694C113.27 187.3 113.782 186.84 114.273 186.356L114.675 185.958C115.076 185.56 115.476 185.137 115.721 184.636C116.054 183.958 116.097 183.126 116.194 182.387C116.314 181.478 116.457 180.57 116.608 179.665L117.661 175.4ZM76.3284 165.862L76.1808 165.901C70.816 167.326 65.4592 168.794 60.078 170.156C57.4149 170.831 54.7393 171.456 52.073 172.117L51.6413 172.225C49.5379 172.757 47.4092 173.397 45.7984 174.923C45.7389 174.979 45.6526 174.892 45.7086 174.833C47.4446 172.985 49.9136 172.202 52.2842 171.524C52.7224 171.399 53.1611 171.277 53.5994 171.152C50.3755 170.003 47.1006 169.003 43.7501 168.289C42.8874 168.106 42.0146 167.971 41.1525 167.787C40.5513 167.658 39.9642 167.472 39.3693 167.318L38.9014 167.2L38.8952 168.679C38.8874 170.773 38.8911 172.866 38.998 174.96L39.0182 175.348C39.1429 177.679 39.3375 180.058 40.1646 182.256C40.8366 184.041 41.9079 185.724 43.3088 187.024C44.0176 187.682 44.7797 188.195 45.7218 188.448C46.5965 188.682 47.513 188.71 48.4121 188.647C52.7252 188.346 56.5645 186.003 60.3111 184.064C66.4392 180.891 72.568 177.719 78.7023 174.559C78.5365 174.445 78.3803 174.315 78.2383 174.168C77.4157 173.318 76.9818 172.155 76.6968 171.029C76.3934 169.83 76.212 168.545 76.1909 167.308L76.3284 165.862ZM84.1338 175.784C84.1879 175.754 84.2507 175.791 84.2531 175.852C84.2721 176.321 84.0132 176.783 83.8197 177.205L83.7993 177.25C83.5643 177.773 83.3069 178.288 83.0408 178.796C82.5088 179.81 81.956 180.814 81.379 181.803C80.2188 183.794 78.9294 185.7 77.4054 187.433C77.0612 187.825 76.4951 187.323 76.716 186.901C77.781 184.869 79.0226 182.951 80.3007 181.049C80.9405 180.097 81.5798 179.143 82.226 178.196C82.4955 177.8 82.7685 177.406 83.0489 177.018L83.218 176.786L84.1338 175.784ZM147.76 137.416C142.376 137.578 136.999 137.929 131.641 138.48C126.659 138.991 121.694 139.672 116.757 140.521C115.726 140.699 114.696 140.883 113.668 141.075L113.051 141.191C112.022 141.386 110.765 141.467 109.85 142.016C108.884 142.596 108.623 143.806 108.302 144.805C107.924 145.979 107.556 147.157 107.198 148.337C105.775 153.024 104.476 157.752 103.317 162.51C102.741 164.873 102.231 167.248 101.693 169.619C101.215 171.725 100.688 173.808 100.137 175.893C100.205 175.84 100.288 175.8 100.388 175.778C103.124 175.196 105.917 174.943 108.693 174.622L108.962 174.591C111.834 174.253 114.706 173.917 117.58 173.594L136.609 171.454C137.731 171.328 138.933 171.311 140.025 171.01C141.882 170.498 142.317 168.422 142.629 166.769L142.638 166.719C143.578 161.724 144.325 156.685 145.201 151.678L147.76 137.416ZM100.58 170.086C99.8408 170.038 98.8297 169.361 98.2692 169.41C98.5634 169.903 98.6962 170.466 98.5266 171.068C98.0547 172.741 95.9204 171.875 94.8924 171.364C94.0495 170.945 93.2356 170.432 92.3025 170.235C91.2453 170.013 90.5292 170.433 89.6361 170.918C88.9025 171.316 88.1036 171.602 87.282 171.749C86.8452 171.828 86.4302 171.837 86.0161 171.806C85.9911 171.826 85.963 171.845 85.931 171.862L85.7119 171.977C86.7026 172.022 87.7117 172.328 88.6336 172.608C89.589 172.898 90.5269 173.247 91.4598 173.605L92.3776 173.957C94.6414 174.824 96.9847 175.648 99.4347 175.64C99.6108 175.64 99.7551 175.689 99.8687 175.768L100.58 170.086ZM96.4462 164.843C97.1761 164.754 97.8497 164.85 98.4329 165.325C99.1362 165.898 99.6087 166.848 100.62 166.91C100.915 166.928 100.983 167.343 100.69 167.429C99.9375 167.652 99.3281 167.245 98.8154 166.716L98.4706 166.356C97.9639 165.831 97.4965 165.426 96.6367 165.457C95.7158 165.491 94.7934 165.704 93.8785 165.812C92.8421 165.934 91.806 166.039 90.7663 166.129C90.7181 166.133 90.7098 166.057 90.7551 166.046L91.9195 165.756L96.4462 164.843ZM95.7417 161.859L95.8621 161.847C96.9219 161.744 97.8911 161.74 98.8377 162.311L99.0192 162.42C99.8726 162.939 100.801 163.55 101.335 164.39C101.422 164.527 101.278 164.689 101.132 164.654C100.106 164.408 99.3565 163.655 98.494 163.092C97.526 162.46 96.5261 162.564 95.4223 162.663C94.3537 162.758 93.2856 162.888 92.2274 163.066C91.2332 163.234 90.2357 163.498 89.2314 163.582L89.2316 163.58C89.1168 163.58 89.0514 163.407 89.1684 163.349C90.1876 162.84 91.3681 162.599 92.4768 162.367L95.7417 161.859ZM127.937 151.385C127.835 150.895 128.437 150.667 128.717 151.056L128.776 151.138C129.379 151.965 130.252 153.002 130.208 154.054C130.738 154.065 131.288 154.388 131.495 154.866C131.591 155.088 131.623 155.35 131.602 155.622C132.084 155.659 132.61 155.976 132.905 156.284C133.393 156.795 133.432 157.517 133.081 158.114C132.317 159.416 130.647 159.889 129.238 159.995L129.188 159.999C127.732 160.099 125.634 160.072 124.636 158.823C123.673 157.618 124.737 156.643 125.828 156.113C125.544 155.854 125.397 155.482 125.536 155.089C125.778 154.4 126.636 154.134 127.121 153.654C127.711 153.07 128.102 152.268 127.946 151.43L127.937 151.385ZM128.737 152.444C128.577 153.142 128.182 153.78 127.633 154.286C127.423 154.479 127.193 154.651 126.949 154.799L126.919 154.816C126.703 154.938 126.17 155.166 126.211 155.438C126.253 155.719 127.121 156.158 127.358 156.158C127.411 156.158 127.442 156.242 127.387 156.267C126.958 156.456 126.584 156.537 126.165 156.337C125.885 156.623 125.613 156.919 125.343 157.212C124.867 157.731 125.03 158.279 125.593 158.665C126.497 159.286 127.873 159.271 128.928 159.225C129.99 159.18 131.126 158.943 131.956 158.236L131.992 158.204C132.443 157.803 132.855 157.123 132.164 156.737C131.894 156.586 131.601 156.595 131.345 156.521C131.104 156.992 130.715 157.369 130.239 157.442C129.854 157.501 129.59 157.018 129.939 156.787L130.018 156.738C130.457 156.458 130.832 156.026 130.822 155.464C130.815 155.074 130.27 154.581 129.915 154.947L129.899 154.965C129.602 155.3 129.079 154.878 129.274 154.507L129.283 154.49L128.737 152.444ZM59.4513 133.041C59.45 132.957 59.5679 132.926 59.6091 132.998C60.2986 134.212 60.6591 135.699 61.0264 137.035C61.4112 138.435 61.7218 139.85 62.0008 141.274C62.5659 144.159 62.867 147.028 62.8875 149.968C62.8902 150.388 62.2063 150.5 62.1394 150.069C61.6952 147.209 61.2697 144.346 60.8221 141.487C60.5969 140.049 60.3348 138.616 60.084 137.182L59.4513 133.041ZM66.2779 135.154C66.2272 134.987 66.4706 134.931 66.5329 135.084C67.9168 138.481 68.3854 142.331 67.497 145.914C67.361 146.462 66.5581 146.225 66.6606 145.684L66.2779 135.154ZM84.1282 132.136C84.1212 132.011 84.2838 131.991 84.3451 132.077C85.0008 133.001 85.2728 134.238 86.4233 134.716C86.9976 134.954 87.644 134.913 88.1515 135.315C88.4907 135.585 88.7509 136.01 88.4962 136.417C88.4141 136.549 88.1842 136.615 88.0727 136.472C87.91 136.263 87.8239 136.014 87.6029 135.857C87.2912 135.637 86.8708 135.623 86.5134 135.519C86.0511 135.385 85.6436 135.151 85.3098 134.802L84.1282 132.136ZM95.083 116.726C95.1506 116.692 95.2155 116.714 95.2587 116.772C95.3204 116.855 95.3128 116.936 95.2372 116.994C95.3382 117.2 95.4575 117.717 95.4745 117.792C95.5435 118.097 95.617 118.4 95.6938 118.703C95.8488 119.315 95.9847 119.931 96.1398 120.542C96.3043 121.19 96.5003 121.831 96.7183 122.463C96.7324 122.504 96.7479 122.546 96.7641 122.588L96.789 122.652L96.7951 122.642C96.8394 122.572 96.9317 122.621 96.9207 122.695C96.9106 122.763 96.8969 122.83 96.8854 122.897L96.9083 122.958C97.0509 123.342 97.1486 123.746 96.8869 124.085C96.789 124.212 96.6812 124.287 96.547 124.309C96.3317 125.019 96.0616 125.715 95.7725 126.384L95.6877 126.579C95.2623 127.555 94.8087 128.518 94.1315 129.349C93.392 130.256 92.375 130.876 91.7309 131.87C91.4312 132.332 91.2227 132.818 91.0535 133.34L90.9898 133.538C90.8697 133.908 90.7311 134.266 90.3847 134.482C90.2741 134.551 90.1085 134.529 90.0193 134.435C89.3089 133.684 90.0526 132.28 90.481 131.553C91.0765 130.541 91.9383 129.894 92.8013 129.13C93.7315 128.308 94.3248 127.207 94.8988 126.123C95.2503 125.458 95.5897 124.78 95.947 124.112C95.5737 123.782 95.4542 123.127 95.3277 122.672L95.3162 122.631C95.1071 121.901 94.9411 121.153 94.8361 120.401C94.7352 119.678 94.6931 118.966 94.7198 118.239L94.7275 118.054L95.083 116.726ZM96.471 120.166C96.3885 120.053 96.525 119.925 96.6382 119.949C97.3262 120.091 97.9988 120.508 98.6163 120.844L98.6823 120.88C99.1752 121.146 99.6711 121.471 99.93 121.988C100.211 122.549 100.188 123.195 100.15 123.805L100.146 123.862C100.099 124.594 100.092 125.354 99.9368 126.072C99.8576 126.44 99.5247 126.543 99.2401 126.456C98.9014 127.526 97.9499 128.314 97.255 129.158C96.3689 130.233 96.5356 131.686 96.6282 132.982C96.6657 133.506 96.0131 133.656 95.677 133.376L94.9025 132.732C94.7735 132.625 94.6447 132.517 94.5162 132.409C94.4062 132.317 94.2971 132.223 94.189 132.129L94.0275 131.986C93.9558 131.922 93.6398 131.569 93.5474 131.555C93.3236 131.519 92.7919 132.109 92.6099 132.294L92.5869 132.317C92.2443 132.653 91.9349 133.014 91.6466 133.397C91.5936 133.468 91.4899 133.409 91.5278 133.328C91.7861 132.775 92.0864 132.246 92.443 131.751L92.5151 131.652C92.7524 131.332 93.0709 130.768 93.4897 130.673C94.001 130.558 94.5116 131.071 94.8837 131.356L94.9073 131.373C95.0843 131.506 95.2593 131.641 95.4339 131.777C95.4156 130.813 95.5375 129.838 96.0356 129.007C96.3868 128.42 96.913 127.986 97.3633 127.482C97.8645 126.921 98.1263 126.231 98.58 125.647C98.6385 125.572 98.719 125.532 98.8062 125.519C98.8237 125.049 98.8929 124.575 98.9463 124.11L98.9618 123.971C99.0159 123.466 99.1436 122.849 98.8964 122.376C98.6629 121.93 98.1271 121.615 97.7304 121.312L97.4065 121.06L96.471 120.166ZM74.142 114.828C73.9348 114.948 73.7412 115.097 73.5656 115.283C73.0126 115.869 72.6173 116.599 72.2326 117.302C72.0254 117.68 71.8257 118.062 71.6169 118.439C71.5261 118.604 71.4327 118.766 71.3382 118.928C71.2946 119.003 71.1648 119.151 71.1005 119.243C71.172 119.343 71.2459 119.441 71.3212 119.539C71.35 119.576 73.3335 121.737 74.0248 122.582C75.0836 123.878 76.0299 125.246 76.839 126.71C77.6312 128.144 78.2343 129.663 78.9682 131.125C79.3356 131.857 79.7458 132.583 80.2687 133.217C80.2889 133.241 80.3102 133.265 80.3309 133.289C80.5305 132.75 81.0419 132.173 81.293 131.841L81.3165 131.81C81.8861 131.042 82.4877 130.297 83.1023 129.565C83.6637 128.897 84.2394 128.243 84.829 127.599L85.0508 127.359C85.4616 126.915 85.9834 126.251 86.5847 125.934C86.5203 125.819 86.4457 125.705 86.36 125.593C85.7965 124.857 85.0001 124.323 84.2142 123.841L83.7045 123.531C81.7834 122.36 79.8922 121.135 78.2244 119.614C77.342 118.809 76.4718 117.966 75.7301 117.027L75.4678 116.695L74.142 114.828ZM77.3474 114.248C76.4478 114.324 75.4763 114.306 74.6449 114.599C75.384 115.298 76.0866 116.052 76.8083 116.762C76.8725 116.282 77.0038 115.807 77.115 115.339" fill="black"/>
<path fill-rule="evenodd" clip-rule="evenodd" d="M107.525 83.2808C105.306 69.8351 88.3672 67.4109 77.3291 70.2409C77.1256 67.6546 75.4997 65.3693 73.4707 63.8661C64.8518 57.6509 54.6479 68.203 56.6907 77.2974C57.0572 80.0523 59.2548 83.1961 62.3296 82.7246C58.4647 90.0543 56.9544 104.834 65.4699 109.403C66.2914 109.989 66.4277 111.179 67.06 111.942C68.0864 113.172 72.4717 114.74 74.844 113.484C75.5894 114.17 76.4495 114.838 77.4549 115.075C82.6493 119.242 90.2405 120.182 96.5656 118.463C100.463 117.8 104.502 116.039 106.507 112.44C108.206 109.7 107.423 106.491 106.644 103.592C106.308 101.997 106.089 100.389 105.954 98.7683C106.23 98.4451 106.245 97.9962 106.314 97.5875C106.613 96.1388 107.267 94.7943 107.594 93.3497C108.326 90.0704 108.199 86.5669 107.525 83.2808Z" fill="#D08B5B"/>
<path fill-rule="evenodd" clip-rule="evenodd" d="M59.3593 68.7097C61.2756 65.0527 65.0323 62.9894 68.7892 63.2723C72.6331 63.5619 75.5748 66.2175 76.2559 70.5055L76.2759 70.636L76.3168 70.9143L76.2795 70.9271L76.2975 70.9587L76.3297 71.0127C76.3678 71.0749 76.4147 71.1458 76.4787 71.2383L76.5641 71.3605L76.8518 71.7651L76.8722 71.7941L76.9335 71.8825L77.057 71.8388C83.0797 69.7313 89.7882 69.753 95.7848 71.9939L95.9663 72.0625L96.1335 72.1271L96.2278 72.1517C99.9043 73.126 102.842 75.4691 104.853 78.8239L104.914 78.9259L104.975 79.0305C106.811 82.19 107.752 86.0952 107.686 90.0159L107.684 90.1359L107.683 90.1551L107.673 90.2733C107.585 91.2143 107.349 92.0553 106.86 93.3377L106.798 93.5003L106.701 93.7485L106.399 94.5135L106.326 94.7039L105.461 96.9788L105.621 94.6956C105.639 94.4417 105.649 94.2187 105.657 93.8783L105.659 93.817L105.678 92.8507L105.684 92.6349C105.687 92.5345 105.69 92.4439 105.694 92.3555L105.7 92.2236L105.712 92.0188L105.715 91.9761L105.709 91.9302C105.525 90.479 104.86 89.2399 103.716 88.0661L103.657 88.0054L103.596 87.9449L103.524 87.8736C102.681 87.0475 101.829 86.4159 100.063 85.2568L99.9872 85.2068L98.9613 84.538L98.5773 84.2857C97.7308 83.7269 97.2149 83.365 96.6693 82.9429L96.5519 82.8515L96.4599 82.779C95.5154 82.0299 94.7777 81.2937 94.2112 80.4996L94.1586 80.425L94.047 80.2648L94.1268 80.0937L94.1255 80.096L94.1254 80.0953L94.1292 80.077L94.1346 80.0464L94.1401 80.0094C94.1501 79.9359 94.1587 79.84 94.1648 79.7317C94.167 79.6926 94.1688 79.6525 94.1703 79.612L94.1722 79.5508L94.1732 79.498L94.1521 79.5603C93.0584 82.7236 90.4668 85.3629 86.8137 87.3106L86.7027 87.3694L86.5771 87.435C82.9765 89.3022 78.5721 90.3743 74.7535 90.4046L74.6305 90.4053L74.5089 90.4055L74.415 90.328C74.0646 90.0387 73.4197 90.3989 73.537 90.9143C74.6223 95.6821 74.8499 100.617 74.1872 105.372L74.1637 105.538L74.1611 105.554L74.1359 105.688C74.1139 105.808 74.093 105.931 74.0702 106.073L74.0344 106.301L73.8963 107.227L73.8336 107.623L73.8064 107.784C73.5731 109.134 73.2774 110.052 72.7401 110.844L72.6886 110.919L72.6358 110.969L72.5842 111.021C72.4783 111.13 72.4118 111.219 72.3793 111.281L72.3724 111.294L72.3685 111.303L72.3778 111.306C72.5486 111.368 72.8982 111.355 73.1893 111.275L73.2254 111.265L73.2594 111.254L73.4952 111.178L73.6597 111.409L73.7087 111.478C73.7989 111.603 73.8931 111.729 74.0108 111.882L74.1496 112.063L74.4702 112.476L74.176 112.679C73.1828 113.367 71.7944 113.23 70.3192 112.586L70.2616 112.56L70.2408 112.55C69.5374 112.177 69.0767 111.726 68.3179 110.765L68.229 110.652L67.8913 110.218L67.7626 110.055C67.6728 109.943 67.596 109.85 67.5191 109.76L67.4934 109.73L67.4035 109.627L67.3837 109.587C67.0124 108.838 66.4815 108.34 65.5522 107.804L65.4211 107.73L65.3372 107.672C62.9792 106.034 61.5874 103.45 61.0022 100.098C60.5448 97.4777 60.5921 94.5298 61.0112 91.2192L61.0314 91.0613L61.053 90.8968C61.4157 88.1106 62.2454 85.5091 63.5029 83.1407L63.5684 83.0184L63.6274 82.9096L63.3323 82.675L63.2112 82.5806C63.111 82.5035 63.0379 82.4505 62.9716 82.4068L62.936 82.3838L62.9029 82.3633L62.8939 82.3799L62.6688 82.3558C61.7183 82.254 60.7811 81.8425 60.0182 81.2083L59.9553 81.1551L59.8942 81.0937C58.4196 79.591 57.6954 77.5078 57.6948 75.1289C57.6943 73.0261 58.2699 70.7883 59.2546 68.9056L59.3033 68.8133L59.3593 68.7097Z" fill="#E8E1E1"/>
<path fill-rule="evenodd" clip-rule="evenodd" d="M107.347 90.1303C107.219 91.7515 106.533 93.2103 105.959 94.7212C106.022 93.8272 105.992 92.8969 106.055 91.9686C105.387 86.1557 97.4988 84.6285 94.4365 80.2331C94.5525 79.9849 94.5943 77.7656 94.1376 78.3897C92.3664 86.1569 81.8386 90.0536 74.6308 90.0687C74.0856 89.6185 73.0045 90.094 73.2087 90.9914C74.2866 95.7266 74.5226 100.68 73.8304 105.492C73.5043 107.191 73.4492 109.235 72.432 110.699C71.3523 111.728 72.6503 111.81 73.3647 111.578C73.5638 111.859 73.774 112.131 73.985 112.403C72.9589 113.113 71.4618 112.726 70.3998 112.253C69.2184 111.626 68.5432 110.412 67.6872 109.439C67.2198 108.496 66.511 107.954 65.5998 107.444C60.5303 103.991 60.6612 96.4167 61.3889 90.9425C63.5096 74.6526 81.5517 66.7927 96.0312 72.4518C103.851 74.4556 107.515 82.5576 107.347 90.1303ZM60.1853 80.9079C57.093 77.8218 57.7154 72.4267 59.6593 68.8689C63.5545 61.4355 74.6179 61.677 75.9427 70.6872C70.3008 72.624 65.5401 76.7771 62.7057 82.0211C61.7829 81.9223 60.8907 81.5104 60.1853 80.9079ZM77.3288 70.2453C77.1255 67.6588 75.4996 65.3735 73.4705 63.8702C64.8515 57.6551 54.6477 68.2072 56.6905 77.3016C57.0569 80.0565 59.2546 83.2003 62.3293 82.7288C58.4645 90.0585 56.9543 104.838 65.4696 109.407C66.2911 109.993 66.4275 111.183 67.0598 111.946C68.0862 113.177 72.4714 114.744 74.8438 113.488C75.4078 114.181 78.6093 116.29 78.376 114.223C78.1404 113.666 77.4127 113.521 76.9281 113.245C75.9097 112.682 75.0249 111.888 74.3297 110.955C76.5133 104.785 76.3469 97.9153 75.1237 91.5623C82.4337 91.1938 91.0353 87.9829 94.2596 80.9321C96.4392 86.0633 103.198 86.7236 104.906 92.4605C105.009 95.4736 104.364 98.442 104.832 101.457C104.969 104.409 106.527 107.343 105.626 110.276C103.11 116.673 94.0536 117.611 88.0702 117.344C86.6489 117.226 85.4694 116.457 84.301 115.726C83.6007 115.393 82.7672 116.09 83.1962 116.833C84.8344 119.124 88.2039 119.324 90.7913 119.242C97.5061 118.843 107.21 116.855 107.559 108.546C107.337 105.252 106.048 102.1 105.954 98.7725C106.23 98.4492 106.245 98.0005 106.314 97.5917C106.613 96.1428 107.267 94.7985 107.594 93.3539C108.325 90.0746 108.198 86.5712 107.525 83.285C105.306 69.8393 88.3671 67.4151 77.3288 70.2453Z" fill="black"/>
<path fill-rule="evenodd" clip-rule="evenodd" d="M94.7665 110.618C95.6193 110.499 96.5364 110.016 97.3509 110.409C97.7317 110.592 97.9124 111.22 97.655 111.568C97.2618 112.101 96.8559 112.189 96.2176 112.24C95.7392 112.279 95.2581 112.282 94.7809 112.226L94.6595 112.212C93.8079 112.102 92.9229 111.864 92.2631 111.292C92.1282 111.175 92.1974 110.922 92.3705 110.885C93.154 110.72 93.9735 110.729 94.7665 110.618ZM93.7628 108.654C93.7625 108.647 93.773 108.647 93.7733 108.654C93.7939 109.142 93.9309 109.594 94.1841 110.011C94.1876 110.017 94.1784 110.022 94.1749 110.016C93.9217 109.599 93.7834 109.142 93.7628 108.654ZM96.451 98.5953C97.303 99.1132 98.6011 100.321 97.6846 101.605C96.6057 102.737 95.0525 101.439 94.2871 100.852C93.5773 100.397 92.7799 101.567 93.4384 102.098C98.9693 106.193 101.214 98.7307 96.8819 97.9864C96.4049 97.9044 96.2278 98.4351 96.451 98.5953ZM100.812 92.8C101.012 92.8 101.203 92.8679 101.377 92.9936C101.549 93.1172 101.704 93.2977 101.833 93.5228C102.078 93.9488 102.231 94.537 102.231 95.1873C102.231 95.8377 102.078 96.4258 101.833 96.8518C101.704 97.0769 101.549 97.2574 101.377 97.3811C101.203 97.5067 101.012 97.5746 100.812 97.5746C100.611 97.5746 100.42 97.5067 100.246 97.3811C100.074 97.2574 99.9191 97.0769 99.7898 96.8518C99.5451 96.4258 99.3921 95.8377 99.3921 95.1873C99.3921 94.537 99.5451 93.9488 99.7898 93.5228C99.9191 93.2977 100.074 93.1172 100.246 92.9936C100.42 92.8679 100.611 92.8 100.812 92.8ZM91.5469 93.4634L91.6222 93.4491C92.0616 93.3692 92.2837 93.3961 92.6663 93.6955C92.9539 93.9206 92.8716 94.3639 92.6663 94.6006C92.3089 95.0131 91.9596 94.94 91.47 94.9558L91.4356 94.957C91.0275 94.9736 90.6191 94.9852 90.2107 94.9914C90.099 94.9932 89.9872 94.9928 89.8755 94.9934C89.8873 96.027 89.2914 96.8139 88.5066 97.4122C87.9994 97.7991 87.3578 97.3528 87.1768 96.8712C87.0271 96.4728 86.9949 95.9828 87.0725 95.5465C87.1013 95.3857 87.1612 95.2111 87.2529 95.0623L87.2787 95.0223L87.2745 94.9652C87.2735 94.9511 87.2745 94.9375 87.274 94.9234C86.5455 94.8791 85.8212 94.8061 85.0971 94.7142L84.8557 94.683C84.2377 94.6012 83.33 94.5749 82.8299 94.1729C82.8141 94.16 82.8197 94.1319 82.8364 94.123C83.1114 93.975 83.3903 93.9833 83.6978 93.9697L83.7419 93.9676C84.0763 93.9503 84.41 93.9359 84.7442 93.9244L85.0786 93.914C85.9341 93.8895 86.7903 93.848 87.6449 93.8025C87.7935 93.7946 87.9421 93.7852 88.0909 93.7761C88.2464 93.7109 88.4118 93.6719 88.5752 93.6646C88.7106 93.6585 88.8408 93.6773 88.9632 93.7162C89.2753 93.6921 89.5873 93.6658 89.899 93.6376L90.2107 93.6087C90.6504 93.5668 91.1128 93.5485 91.5469 93.4634ZM96.9475 85.717C97.8877 85.255 99.0308 85.2437 99.999 85.6261L100.063 85.6521C101.041 86.0579 102.219 86.9952 101.964 88.1628C101.731 89.2314 100.055 89.0503 99.9697 88.0402C99.4285 87.2904 98.2148 87.1259 97.4519 87.6027C96.9893 87.892 96.6717 88.379 96.4546 88.8703C96.2696 89.2886 96.2347 89.8052 95.9505 90.1696C95.9413 90.1815 95.9228 90.1836 95.9093 90.1805C95.0618 89.9844 95.0422 88.6376 95.1867 87.9844C95.3967 87.0347 96.0706 86.1482 96.9475 85.717Z" fill="black"/>
</svg>
