<svg width="163" height="194" viewBox="0 0 163 194" fill="none" xmlns="http://www.w3.org/2000/svg">
<path d="M147.469 110.994L147.618 110.657C147.835 110.169 148.087 109.803 148.376 109.557C148.666 109.307 149.093 109.097 149.657 108.928C150.436 108.701 150.952 108.499 151.205 108.322C151.462 108.147 151.666 107.888 151.818 107.547C152.006 107.122 152.014 106.734 151.841 106.383C151.673 106.029 151.334 105.739 150.821 105.511C150.492 105.365 150.154 105.263 149.806 105.203C149.461 105.14 149.04 105.12 148.546 105.145L148.551 104.138C149.522 104.075 150.436 104.234 151.294 104.614C152.09 104.967 152.621 105.438 152.889 106.025C153.157 106.613 153.133 107.263 152.817 107.975C152.682 108.279 152.521 108.529 152.334 108.726C152.153 108.92 151.938 109.086 151.687 109.224C151.438 109.358 150.95 109.537 150.221 109.762C149.642 109.934 149.23 110.108 148.988 110.284C148.749 110.463 148.542 110.75 148.366 111.145L148.275 111.352L147.469 110.994ZM146.339 112.714C146.59 112.147 146.966 111.975 147.466 112.197C147.707 112.304 147.861 112.459 147.925 112.662C147.994 112.867 147.967 113.107 147.845 113.382C147.727 113.649 147.567 113.827 147.368 113.918C147.17 114.005 146.952 113.996 146.715 113.89C146.498 113.794 146.347 113.65 146.263 113.458C146.181 113.262 146.206 113.014 146.339 112.714Z" fill="#243B4A"/>
<path fill-rule="evenodd" clip-rule="evenodd" d="M88.6691 131.133C89.6419 131.229 90.6148 131.324 91.5876 131.42C96.2468 131.776 100.904 132.519 105.528 132.965C105.643 132.778 105.868 132.809 106.005 132.939C106.466 132.899 106.983 132.546 107.401 132.913C107.415 132.911 107.428 132.909 107.442 132.907C108.186 131.479 108.701 129.956 109.2 128.431C109.518 127.493 109.947 126.585 110.739 125.955C112.091 125.017 115.189 123.114 116.776 123.194C116.803 122.91 116.935 122.617 117.153 122.427C116.673 121.61 118.59 121.077 118.726 121.171C118.639 118.44 119.924 116.068 122.757 115.524C125.294 114.996 128.904 114.907 130.269 117.559C130.419 117.542 131.953 117.534 132.101 117.551C132.332 117.259 134.865 120.027 133.827 120.991C143.111 125.098 148.39 124.608 150.96 136.154C151.307 137.239 151.332 138.425 151.699 139.486C153.004 142.533 154.063 145.778 154.326 149.094C154.963 149.257 155.036 150.379 154.299 150.542C154.017 150.604 153.782 150.688 153.577 150.849C153.737 153.566 153.08 159.774 152.666 159.755C151.821 162.442 148.055 163.2 145.389 162.256C145.848 163.121 145.389 163.665 145.389 164.127C135.794 164.49 125.304 164.281 115.712 164.778C114.485 164.761 113.195 165.08 111.985 164.896C111.246 164.719 111.245 163.559 111.994 163.415L108.723 162.705C108.796 162.677 107.374 161.732 106.3 159.965C105.3 157.989 105.981 155.603 105.528 153.453C101.989 153.164 98.3913 153.04 94.8912 152.441C94.4139 153.868 92.348 152.161 91.6913 151.474C91.6921 151.473 91.693 151.472 91.6938 151.471C91.376 151.384 91.1211 151.086 91.1126 150.733C90.8897 150.415 90.8429 149.966 91.0567 149.658C90.0771 144.006 88.5837 138.234 88.0439 132.529C87.8531 132.486 87.6734 132.403 87.521 132.274L87.5334 132.262C87.2753 131.974 87.2251 131.477 87.6554 131.233C88.0025 131.035 88.2924 131.096 88.6691 131.133Z" fill="#D08B5B"/>
<path fill-rule="evenodd" clip-rule="evenodd" d="M125.669 152.289L124.919 152.766L118.788 154.742L115.041 155.219L111.975 154.742V159.988L111.362 164.893C111.634 165.393 114.223 165.393 119.128 164.893C122.255 164.575 133.684 164.42 136.286 164.352L136.433 164.348C139.491 164.26 142.511 164.26 145.494 164.348V162.509L136.978 158.285L129.348 153.993L125.669 152.289ZM130.013 117.13L129.45 117.551L130.68 119.571L124.69 124.416V128.285L122.794 130.079L121.71 128.285L120.183 126.254L119.098 122.962L119.467 120.793L118.724 120.723C118.72 120.871 118.721 121.021 118.726 121.171C118.591 121.077 116.673 121.61 117.153 122.428C116.935 122.617 116.803 122.91 116.776 123.194C115.189 123.114 112.091 125.017 110.739 125.956C109.947 126.585 109.518 127.493 109.2 128.431L109.125 128.66L109.047 128.894L108.969 129.129C108.538 130.419 108.073 131.697 107.442 132.908C107.429 132.909 107.415 132.911 107.401 132.913C106.983 132.546 106.466 132.899 106.005 132.939C105.871 132.812 105.653 132.78 105.536 132.953L105.528 132.966L111.276 134.098L115.068 147.4L118.37 144.719L120.143 144.983L124.824 146.671L130.268 148.085L142.697 151.512H144.28L153.49 149.288L154.32 149.014C154.046 145.726 152.994 142.509 151.699 139.486C151.332 138.426 151.307 137.239 150.96 136.154C148.39 124.608 143.111 125.098 133.827 120.992C134.866 120.028 132.332 117.259 132.101 117.551L132.087 117.55L132.055 117.548L132.015 117.547C131.652 117.536 130.404 117.544 130.269 117.559C130.191 117.407 130.105 117.265 130.013 117.13Z" fill="#FFCF77"/>
<path fill-rule="evenodd" clip-rule="evenodd" d="M87.7504 131.537L87.9216 132.491C87.9623 132.505 88.0037 132.516 88.0457 132.525C88.0995 133.094 88.1628 133.664 88.2341 134.234L89.2956 140.15C89.4787 141.196 89.6525 142.245 89.825 143.295L90.0537 144.422L90.1953 145.122C90.5009 146.639 90.7979 148.151 91.0584 149.655C91.0191 149.711 90.9886 149.773 90.9664 149.837L90.9864 149.922L91.0004 149.979L91.0147 150.034C91.2203 150.825 91.578 151.591 92.4211 151.824C93.057 151.999 93.7548 152.015 94.4114 152.084L94.4842 152.092L105.975 153.384C107.363 153.54 108.751 153.701 110.139 153.864L111.341 154.005C113.018 154.199 114.704 154.352 116.356 154.703C116.417 154.716 116.467 154.74 116.508 154.772C116.176 153.513 115.857 152.256 115.569 150.984C115.244 149.552 114.936 148.118 114.588 146.691C113.888 143.817 113.104 140.963 112.245 138.132C112.064 137.538 111.88 136.946 111.691 136.354L111.559 135.941L111.457 135.611C111.3 135.109 111.105 134.593 110.643 134.315C110.103 133.991 109.366 133.937 108.753 133.825L108.337 133.747C107.716 133.631 107.094 133.52 106.472 133.413C103.491 132.9 100.493 132.489 97.4839 132.18C94.3528 131.858 91.2108 131.649 88.065 131.547L87.7504 131.537ZM116.27 151.264L116.241 151.266L116.67 154.697C116.739 154.649 116.826 154.62 116.932 154.62C118.34 154.624 119.69 154.174 120.995 153.679L121.194 153.604L121.748 153.391C122.311 153.175 122.878 152.964 123.455 152.789L123.688 152.718L123.806 152.683C124.243 152.556 124.703 152.44 125.157 152.411L125.219 152.408L125.087 152.338C125.067 152.328 125.05 152.317 125.035 152.304C124.785 152.323 124.535 152.318 124.271 152.27C123.775 152.181 123.292 152.008 122.849 151.768L122.651 151.661L122.571 151.618L122.517 151.59L122.464 151.563C122.083 151.374 121.72 151.255 121.239 151.356C120.694 151.471 120.216 151.765 119.724 152.013L119.637 152.056L119.579 152.085L119.519 152.113L119.458 152.14C118.793 152.44 117.736 152.762 117.481 151.859C117.378 151.495 117.458 151.155 117.636 150.857C117.305 150.829 116.714 151.219 116.27 151.264ZM99.7234 139.959L99.7154 140C99.6214 140.506 99.8571 140.99 100.214 141.343C100.506 141.633 101.024 141.794 101.171 142.21C101.254 142.447 101.166 142.671 100.994 142.828L101.034 142.848L101.072 142.867L101.11 142.887L101.147 142.907L101.182 142.928C101.765 143.262 102.24 143.807 101.714 144.464C101.118 145.21 99.8721 145.235 98.9943 145.176L98.9352 145.172C98.0841 145.108 97.0758 144.822 96.6143 144.037C96.4026 143.676 96.4259 143.24 96.721 142.931C96.899 142.745 97.2165 142.554 97.5077 142.531C97.495 142.367 97.5145 142.209 97.5722 142.075C97.697 141.786 98.0292 141.592 98.3495 141.585C98.3236 140.971 98.8152 140.365 99.1772 139.874L99.2142 139.824L99.25 139.774C99.4161 139.543 99.7715 139.673 99.7234 139.959ZM99.2376 140.612L98.9078 141.848L98.9135 141.858C99.0297 142.079 98.7251 142.329 98.5445 142.144L98.5263 142.124C98.3119 141.903 97.9829 142.2 97.9788 142.436C97.9729 142.768 98.1889 143.024 98.4462 143.194L98.4642 143.205L98.5116 143.235C98.7228 143.374 98.5629 143.666 98.3308 143.631C98.0436 143.587 97.8082 143.359 97.663 143.074C97.508 143.119 97.3315 143.113 97.1682 143.205C96.7567 143.435 96.9934 143.838 97.2614 144.081L97.2722 144.091L97.2941 144.11C97.7857 144.529 98.4551 144.675 99.086 144.706L99.1224 144.707C99.7597 144.735 100.59 144.744 101.136 144.369C101.476 144.136 101.575 143.805 101.287 143.492C101.124 143.314 100.96 143.136 100.791 142.963C100.538 143.084 100.312 143.035 100.053 142.921C100.02 142.906 100.038 142.855 100.071 142.855C100.214 142.855 100.737 142.59 100.763 142.421C100.787 142.264 100.497 142.132 100.356 142.056L100.335 142.045L100.318 142.034C100.17 141.945 100.031 141.841 99.9045 141.724C99.5825 141.428 99.3487 141.056 99.2466 140.65L99.2376 140.612Z" fill="white"/>
<path fill-rule="evenodd" clip-rule="evenodd" d="M130.092 116.943C129.803 116.217 128.826 116.499 128.935 117.262C129 117.719 129.25 118.202 129.475 118.603C129.658 118.929 129.867 119.247 130.151 119.492C129.646 119.962 129.123 120.415 128.587 120.846C128.001 121.315 127.385 121.748 126.749 122.145C126.191 122.494 125.608 122.803 125.082 123.201C124.593 123.571 124.147 124.016 123.92 124.597C123.679 125.216 123.784 125.855 123.962 126.473L123.982 126.543C124.164 127.155 124.478 127.894 124.042 128.471C123.82 128.765 123.497 128.973 123.219 129.207C122.971 129.416 122.738 129.643 122.525 129.887C122.06 130.419 121.682 131.017 121.443 131.683L121.422 131.744C121.217 132.334 121.068 133.056 121.344 133.636C121.424 133.802 121.679 133.748 121.724 133.586C121.824 133.22 121.819 132.836 121.903 132.465C121.991 132.078 122.137 131.712 122.327 131.365C122.695 130.694 123.194 130.12 123.784 129.636L123.96 129.492C124.42 129.115 124.843 128.714 124.936 128.09C125.036 127.422 124.768 126.785 124.596 126.152C124.476 125.712 124.437 125.289 124.567 124.891C124.725 125.149 124.941 125.395 125.112 125.614C125.452 126.05 125.796 126.483 126.139 126.917C126.49 127.363 126.833 127.815 127.159 128.279C127.305 128.487 127.45 128.695 127.594 128.904C127.702 129.062 127.853 129.219 127.971 129.379C127.942 129.464 127.944 129.563 127.996 129.633C128.622 130.479 129.512 128.715 129.745 128.269C130.217 127.361 130.569 126.397 131.044 125.49C131.535 124.549 132.095 123.633 132.719 122.774C133.096 122.255 133.519 121.767 133.864 121.231C134.678 121.968 135.748 122.463 136.731 122.911C137.811 123.404 138.933 123.806 140.04 124.233L140.367 124.36C142.275 125.105 144.23 125.923 145.816 127.245C147.679 128.8 148.782 130.966 149.602 133.209C150.547 135.791 151.329 138.444 152.057 141.094C152.43 142.45 152.784 143.812 153.117 145.179C153.41 146.383 153.653 147.599 153.992 148.79C153.304 148.766 152.519 149.032 151.932 149.109C149.254 149.46 146.613 150.019 144.085 150.986C143.773 151.105 143.682 151.417 143.75 151.67C143.57 151.619 143.39 151.568 143.21 151.517C143.408 151.215 143.314 150.674 143.298 150.339L143.297 150.316C143.281 149.87 143.233 149.423 143.201 148.977C143.141 148.128 143.064 147.284 142.96 146.44L142.934 146.229C142.816 145.31 142.73 144.385 142.602 143.468L142.587 143.363C142.648 143.128 142.719 142.896 142.794 142.666C142.994 142.051 143.276 141.472 143.524 140.877C143.553 140.806 143.453 140.766 143.406 140.808C142.988 141.185 142.655 141.663 142.388 142.163C142.383 142.139 142.379 142.115 142.374 142.092L142.344 141.942C142.268 141.576 142.177 141.191 141.953 140.894C141.929 140.862 141.881 140.856 141.859 140.894C141.644 141.257 141.62 141.718 141.587 142.132C141.549 142.6 141.545 143.074 141.551 143.543C141.564 144.46 141.629 145.38 141.68 146.296C141.731 147.196 141.83 148.084 141.958 148.975L141.982 149.142C142.045 149.566 142.096 149.996 142.178 150.417L142.202 150.531C142.246 150.74 142.273 151.035 142.361 151.28C140.103 150.65 137.842 150.034 135.576 149.43C133.939 148.993 132.3 148.563 130.662 148.129C130.575 147.974 130.468 147.828 130.333 147.698C129.891 147.269 129.304 147.078 128.766 147.408C128.722 147.435 128.719 147.503 128.766 147.529C128.869 147.586 128.972 147.644 129.074 147.704L128.09 147.437C127.355 147.238 126.611 146.989 125.858 146.85C124.472 146.166 122.981 145.671 121.521 145.182L121.348 145.123C120.601 144.868 119.827 144.583 119.055 144.442C118.489 144.338 117.826 144.463 117.598 145.042C117.31 145.232 117.039 145.455 116.778 145.674C116.589 145.833 116.408 146.001 116.224 146.166L116.19 146.195C116.039 146.326 115.92 146.414 115.883 146.621C115.864 146.729 115.932 146.874 116.064 146.86C116.47 146.817 116.8 146.347 117.074 146.066C117.287 145.849 117.501 145.625 117.695 145.386C117.808 145.448 117.963 145.437 118.035 145.301C118.408 144.594 119.43 145.084 119.995 145.251L120.805 145.491C121.21 145.611 121.615 145.732 122.019 145.854C123.13 146.192 124.235 146.569 125.356 146.879C125.256 146.989 125.27 147.185 125.46 147.26C126.338 147.604 127.3 147.782 128.212 148.018C128.787 148.168 129.362 148.318 129.937 148.469C130.036 148.629 130.107 148.809 130.137 149.02C130.246 149.793 130.035 150.685 129.829 151.433L129.798 151.545C129.628 152.146 129.379 152.883 128.86 153.263C128.733 153.355 128.572 153.42 128.41 153.434C127.394 152.912 126.378 152.389 125.362 151.867C125.174 151.771 125 151.901 124.958 152.057C124.6 151.998 124.242 151.906 123.917 151.795C123.369 151.609 122.942 151.255 122.429 151.01C121.437 150.536 120.424 151.118 119.535 151.561L119.33 151.661C118.932 151.855 118.103 152.226 117.912 151.697C117.727 151.186 118.312 150.639 118.689 150.409C119.139 150.135 119.663 149.988 120.172 149.865C120.462 149.795 120.756 149.738 121.052 149.697C121.387 149.65 121.734 149.657 122.057 149.548C122.218 149.494 122.242 149.239 122.057 149.197C121.56 149.084 120.966 149.207 120.447 149.333L120.176 149.4C119.654 149.528 119.126 149.689 118.65 149.945C118.303 150.131 117.938 150.414 117.699 150.76C117.492 150.568 117.234 150.574 116.965 150.646L116.819 150.686C116.578 150.753 116.383 150.799 116.149 150.753C116.117 150.582 116.086 150.411 116.052 150.241C115.718 148.564 115.351 146.893 114.947 145.232C114.25 142.366 113.443 139.531 112.533 136.726L112.442 136.445C112.232 135.804 112.064 135.104 111.725 134.515C111.406 133.957 110.893 133.636 110.284 133.466C109.593 133.273 108.867 133.172 108.162 133.042C108.005 133.013 107.847 132.985 107.69 132.957C107.823 132.717 107.922 132.444 108.012 132.235L108.027 132.199C108.22 131.761 108.392 131.315 108.559 130.867L108.683 130.53C108.984 129.718 109.295 128.92 109.718 128.161C110.163 127.362 110.754 126.709 111.49 126.169C112.992 125.067 114.801 124.505 116.258 123.327C116.317 123.279 116.241 123.196 116.18 123.227C115.197 123.721 114.136 124.057 113.113 124.459L112.911 124.539C112.103 124.859 111.282 125.208 110.582 125.727C109.802 126.305 109.188 127.024 108.726 127.878C108.271 128.72 107.98 129.663 107.658 130.563L107.573 130.802C107.443 131.162 107.309 131.52 107.156 131.87C107.034 132.148 106.807 132.465 106.704 132.782C106.422 132.733 106.139 132.684 105.857 132.636C99.7341 131.614 93.5432 131.014 87.3385 130.838C87.0958 130.831 86.9702 131.063 87.006 131.274C87.6014 134.795 88.1306 138.328 88.7112 141.852C88.9646 143.39 89.2231 144.927 89.4876 146.463C89.6217 147.241 89.7766 148.016 89.9035 148.795C90.006 149.425 90.0804 150.059 90.2563 150.674C90.4141 151.225 90.6562 151.756 91.0538 152.177C91.4825 152.63 92.0808 152.85 92.6831 152.954C94.212 153.217 95.7801 153.324 97.3214 153.499L105.527 154.433C105.407 155.523 105.398 156.596 105.453 157.699L105.485 158.3C105.51 158.785 105.541 159.27 105.611 159.749C105.698 160.35 105.973 160.859 106.378 161.308C106.75 161.72 107.202 162.072 107.641 162.409C108.097 162.759 108.569 163.097 109.105 163.313L109.175 163.341C109.645 163.525 110.528 163.809 111.171 163.705C111.087 164.126 110.924 164.579 111.069 164.996C111.135 165.19 111.389 165.286 111.544 165.122C111.851 164.795 111.875 164.364 111.948 163.938C112.023 163.495 112.089 163.051 112.147 162.605C112.259 161.743 112.346 160.873 112.373 160.004C112.4 159.111 112.389 158.217 112.341 157.326C112.317 156.868 112.286 156.41 112.228 155.955C112.203 155.761 112.178 155.567 112.149 155.374C112.138 155.303 112.126 155.233 112.114 155.163L112.85 155.246C113.98 155.372 115.11 155.486 116.247 155.503C116.382 155.505 116.485 155.444 116.553 155.355C116.625 155.472 116.751 155.556 116.931 155.556C118.519 155.55 119.998 155.03 121.443 154.418C122.171 154.11 122.888 153.776 123.617 153.47C124.298 153.184 125.025 152.98 125.689 152.659L127.435 153.574C127.448 153.619 127.464 153.662 127.482 153.697C127.595 153.929 127.819 154.055 128.048 154.15C128.268 154.241 128.495 154.269 128.717 154.246C130.041 154.94 131.365 155.633 132.69 156.324L134.015 157.015C136.655 158.39 139.285 159.787 141.942 161.13L142.138 161.228C143.056 161.688 144.041 162.155 145.06 162.503C145.078 162.761 145.066 163.012 145.045 163.284L145.04 163.344C145.009 163.666 144.944 164.07 145.203 164.3C145.337 164.419 145.578 164.42 145.669 164.24C145.835 163.913 145.686 163.399 145.633 163.044C145.615 162.918 145.592 162.788 145.558 162.663C146.726 163.01 147.929 163.179 149.117 162.984C150.274 162.794 151.17 162.065 151.892 161.174C152.655 160.233 153.196 159.137 153.487 157.961C153.818 156.624 153.839 155.243 153.831 153.874C153.823 152.415 153.769 150.949 153.592 149.5C153.786 149.455 154.002 149.415 154.198 149.429C154.295 149.584 154.484 149.65 154.655 149.63C155.026 150.039 154.085 150.457 153.784 150.561C153.68 150.598 153.691 150.767 153.812 150.762L153.887 150.759C154.352 150.734 154.832 150.655 155.105 150.223C155.324 149.877 155.258 149.467 154.997 149.185C154.825 147.556 154.413 145.969 154.029 144.38C153.653 142.821 153.235 141.271 152.791 139.729L152.593 139.039C151.894 136.621 151.165 134.184 150.201 131.862C149.721 130.703 149.167 129.565 148.416 128.554C147.716 127.611 146.889 126.805 145.939 126.117C144.168 124.833 142.09 124.057 140.048 123.318L139.957 123.285C138.899 122.902 137.843 122.515 136.797 122.1C135.872 121.733 134.986 121.268 134.065 120.896C134.095 120.842 134.124 120.787 134.151 120.731L134.169 120.745C134.171 120.748 134.174 120.75 134.178 120.752C134.27 120.816 134.406 120.785 134.483 120.713C134.698 120.509 134.625 120.284 134.481 120.073L134.463 120.046C134.287 119.8 134.13 119.539 133.968 119.284L133.866 119.124C133.593 118.698 133.307 118.268 132.944 117.916C132.775 117.752 132.591 117.63 132.396 117.539C132.413 117.504 132.266 117.431 132.225 117.468C131.606 117.241 130.895 117.289 130.221 117.351L130.092 116.943ZM105.924 154.478L106.784 154.576C107.73 154.683 108.676 154.787 109.623 154.891L111.678 155.114C111.684 155.231 111.698 155.346 111.7 155.434C111.714 155.89 111.724 156.347 111.733 156.803C111.752 157.718 111.731 158.634 111.671 159.547C111.613 160.432 111.536 161.317 111.417 162.195L111.392 162.371L111.378 162.463C111.28 162.473 111.185 162.519 111.105 162.614C110.931 162.822 110.302 162.62 110.056 162.533C109.651 162.389 109.271 162.146 108.919 161.902C108.576 161.664 108.267 161.386 107.97 161.094L107.727 160.854C107.486 160.614 107.244 160.358 107.096 160.056C106.895 159.646 106.869 159.143 106.81 158.697C106.738 158.148 106.651 157.6 106.56 157.054L105.924 154.478ZM130.884 148.718L130.973 148.742C134.212 149.603 137.447 150.489 140.697 151.312C142.305 151.719 143.921 152.096 145.531 152.496L145.791 152.561C147.062 152.882 148.347 153.268 149.32 154.19C149.356 154.224 149.408 154.172 149.374 154.136C148.326 153.02 146.835 152.547 145.403 152.138C145.139 152.062 144.874 151.988 144.609 151.913C146.556 151.219 148.533 150.615 150.557 150.184C151.078 150.073 151.605 149.992 152.125 149.881C152.488 149.803 152.843 149.691 153.202 149.598L153.485 149.526L153.488 150.419C153.493 151.684 153.491 152.948 153.426 154.213L153.414 154.447C153.339 155.854 153.221 157.291 152.722 158.618C152.316 159.696 151.669 160.712 150.823 161.498C150.395 161.895 149.935 162.204 149.366 162.357C148.838 162.499 148.284 162.515 147.741 162.478C145.137 162.296 142.818 160.881 140.556 159.71C136.855 157.794 133.154 155.879 129.45 153.97C129.55 153.902 129.645 153.823 129.73 153.734C130.227 153.221 130.489 152.519 130.661 151.839C130.844 151.115 130.954 150.339 130.967 149.591L130.884 148.718ZM126.17 154.71C126.138 154.692 126.1 154.714 126.098 154.751C126.087 155.034 126.243 155.313 126.36 155.568L126.372 155.595C126.514 155.911 126.67 156.222 126.83 156.529C127.152 157.141 127.485 157.747 127.834 158.345C128.534 159.547 129.313 160.698 130.233 161.744C130.441 161.981 130.783 161.678 130.65 161.423C130.007 160.196 129.257 159.038 128.485 157.889C128.099 157.314 127.713 156.739 127.322 156.166C127.16 155.927 126.995 155.689 126.825 155.455L126.723 155.315L126.17 154.71ZM87.7488 131.541C90.9997 131.639 94.2468 131.851 97.4822 132.183C100.491 132.492 103.489 132.903 106.47 133.416C107.093 133.523 107.715 133.635 108.336 133.751L108.708 133.821C109.33 133.938 110.088 133.987 110.641 134.319C111.225 134.669 111.382 135.4 111.576 136.003C111.804 136.712 112.027 137.423 112.243 138.136C113.102 140.966 113.887 143.821 114.586 146.695C114.934 148.121 115.242 149.555 115.567 150.987C115.856 152.259 116.174 153.516 116.507 154.776C116.466 154.744 116.415 154.72 116.355 154.707C114.703 154.355 113.016 154.202 111.34 154.008L111.178 153.989C109.443 153.785 107.709 153.583 105.973 153.388L94.4826 152.095C93.8049 152.019 93.0789 152.009 92.4194 151.827C91.2982 151.518 91.0354 150.264 90.8472 149.266L90.8416 149.236C90.2744 146.22 89.8229 143.177 89.294 140.153L87.7488 131.541ZM116.239 151.269C116.685 151.24 117.296 150.831 117.634 150.861C117.457 151.159 117.377 151.499 117.479 151.862C117.764 152.872 119.053 152.35 119.674 152.041C120.183 151.788 120.674 151.478 121.238 151.359C121.876 151.225 122.308 151.479 122.848 151.771C123.291 152.012 123.773 152.184 124.269 152.274C124.533 152.321 124.784 152.326 125.034 152.308C125.049 152.32 125.066 152.331 125.085 152.342L125.217 152.411C124.619 152.438 124.01 152.623 123.453 152.792C122.876 152.967 122.31 153.178 121.746 153.394L121.192 153.607C119.825 154.13 118.41 154.628 116.931 154.623C116.824 154.623 116.737 154.652 116.669 154.7L116.239 151.269ZM118.735 148.103C118.295 148.049 117.888 148.107 117.536 148.394C117.111 148.74 116.826 149.314 116.215 149.351C116.037 149.362 115.996 149.613 116.173 149.665C116.627 149.799 116.995 149.554 117.305 149.234L117.513 149.017C117.819 148.7 118.101 148.455 118.62 148.474C119.176 148.494 119.733 148.623 120.286 148.688C120.912 148.762 121.537 148.825 122.165 148.88C122.194 148.882 122.199 148.836 122.172 148.829L121.469 148.654L118.735 148.103ZM119.161 146.301L119.088 146.294C118.448 146.232 117.863 146.23 117.291 146.574L117.182 146.64C116.666 146.953 116.105 147.322 115.783 147.829C115.73 147.913 115.818 148.01 115.906 147.989C116.525 147.84 116.978 147.386 117.499 147.046C118.083 146.664 118.687 146.727 119.354 146.786C119.999 146.844 120.644 146.923 121.283 147.03C121.883 147.131 122.486 147.291 123.092 147.342L123.092 147.34C123.161 147.34 123.201 147.236 123.13 147.201C122.515 146.894 121.802 146.748 121.132 146.608L119.161 146.301ZM99.7192 139.976C99.781 139.68 99.4171 139.543 99.2484 139.778L99.2125 139.827C98.8481 140.326 98.321 140.953 98.3479 141.588C98.0275 141.595 97.6954 141.79 97.5706 142.079C97.5129 142.212 97.4933 142.371 97.5061 142.535C97.2149 142.557 96.8973 142.749 96.7193 142.935C96.4243 143.243 96.401 143.679 96.6126 144.04C97.0742 144.826 98.0824 145.112 98.9336 145.176L98.9639 145.178C99.843 145.238 101.11 145.222 101.713 144.468C102.294 143.74 101.651 143.151 100.992 142.831C101.164 142.675 101.253 142.45 101.169 142.213C101.023 141.797 100.505 141.636 100.212 141.347C99.8554 140.994 99.6197 140.51 99.7137 140.004L99.7192 139.976ZM99.236 140.616C99.3329 141.037 99.5711 141.422 99.9028 141.728C100.03 141.845 100.168 141.949 100.316 142.038L100.334 142.048C100.464 142.122 100.786 142.259 100.761 142.424C100.736 142.593 100.212 142.858 100.069 142.859C100.037 142.859 100.018 142.909 100.051 142.924C100.31 143.038 100.536 143.087 100.789 142.967C100.958 143.139 101.123 143.318 101.285 143.495C101.573 143.808 101.475 144.139 101.135 144.372C100.588 144.747 99.7581 144.738 99.1207 144.711C98.4792 144.683 97.7935 144.54 97.2924 144.113L97.2706 144.094C96.9983 143.852 96.7495 143.441 97.1666 143.208C97.3299 143.117 97.5063 143.122 97.6614 143.078C97.8065 143.362 98.0419 143.59 98.3291 143.634C98.5613 143.669 98.7211 143.378 98.51 143.238L98.4625 143.209C98.1974 143.039 97.9711 142.779 97.9771 142.439C97.9812 142.204 98.3103 141.906 98.5247 142.127L98.5345 142.138C98.7139 142.34 99.0298 142.085 98.9119 141.861L98.9062 141.851L99.236 140.616ZM141.075 128.899C141.076 128.848 141.005 128.83 140.98 128.873C140.564 129.606 140.346 130.504 140.124 131.311C139.892 132.157 139.704 133.011 139.536 133.871C139.194 135.613 139.013 137.345 139 139.121C138.999 139.374 139.412 139.442 139.452 139.182C139.72 137.455 139.977 135.726 140.247 133.999C140.383 133.131 140.542 132.266 140.693 131.4L141.075 128.899ZM136.953 130.175C136.983 130.074 136.836 130.04 136.799 130.133C135.963 132.184 135.68 134.509 136.217 136.673C136.299 137.004 136.784 136.86 136.722 136.533L136.953 130.175ZM126.174 128.352C126.178 128.277 126.08 128.265 126.043 128.317C125.647 128.875 125.483 129.622 124.788 129.91C124.441 130.054 124.051 130.029 123.744 130.272C123.539 130.435 123.382 130.692 123.536 130.938C123.586 131.018 123.724 131.057 123.792 130.971C123.89 130.845 123.942 130.694 124.075 130.6C124.264 130.466 124.518 130.458 124.733 130.396C125.013 130.315 125.259 130.173 125.46 129.963L126.174 128.352ZM119.558 119.047C119.518 119.026 119.479 119.04 119.452 119.075C119.415 119.125 119.42 119.174 119.465 119.209C119.404 119.333 119.332 119.645 119.322 119.691C119.28 119.875 119.236 120.058 119.19 120.241C119.096 120.61 119.014 120.982 118.92 121.351C118.821 121.743 118.703 122.13 118.571 122.511C118.562 122.536 118.553 122.561 118.543 122.587L118.528 122.626L118.525 122.62C118.498 122.577 118.442 122.607 118.449 122.652C118.455 122.692 118.463 122.733 118.47 122.774L118.456 122.81C118.37 123.042 118.311 123.286 118.469 123.491C118.528 123.567 118.593 123.613 118.674 123.626C118.804 124.055 118.968 124.475 119.142 124.879L119.193 124.997C119.45 125.586 119.724 126.168 120.133 126.67C120.58 127.217 121.194 127.591 121.583 128.192C121.764 128.471 121.89 128.764 121.992 129.08L122.03 129.199C122.103 129.422 122.186 129.639 122.396 129.769C122.462 129.811 122.562 129.798 122.616 129.741C123.045 129.287 122.596 128.44 122.337 128C121.978 127.389 121.457 126.998 120.936 126.538C120.375 126.041 120.016 125.376 119.67 124.721C119.457 124.32 119.253 123.91 119.037 123.507C119.262 123.308 119.334 122.912 119.411 122.637L119.418 122.613C119.544 122.172 119.644 121.72 119.708 121.266C119.769 120.83 119.794 120.4 119.778 119.961L119.773 119.849L119.558 119.047ZM118.72 121.124C118.77 121.056 118.688 120.979 118.619 120.993C118.204 121.079 117.798 121.33 117.425 121.534L117.385 121.555C117.087 121.716 116.788 121.913 116.632 122.224C116.462 122.563 116.476 122.954 116.499 123.322L116.501 123.356C116.529 123.798 116.534 124.257 116.627 124.691C116.675 124.913 116.876 124.975 117.048 124.923C117.253 125.569 117.827 126.044 118.247 126.554C118.782 127.204 118.681 128.081 118.625 128.863C118.603 129.18 118.997 129.27 119.2 129.101L119.667 128.713C119.745 128.648 119.823 128.583 119.901 128.518C119.967 128.462 120.033 128.405 120.098 128.348L120.196 128.262C120.239 128.223 120.43 128.01 120.486 128.001C120.621 127.98 120.942 128.336 121.052 128.448L121.066 128.462C121.273 128.665 121.46 128.883 121.634 129.114C121.666 129.157 121.728 129.121 121.705 129.072C121.549 128.738 121.368 128.419 121.153 128.12L121.109 128.06C120.966 127.867 120.774 127.526 120.521 127.469C120.212 127.4 119.904 127.709 119.679 127.881L119.665 127.892C119.558 127.972 119.452 128.054 119.347 128.136C119.358 127.553 119.284 126.965 118.983 126.463C118.771 126.109 118.453 125.846 118.182 125.542C117.879 125.203 117.721 124.787 117.447 124.434C117.411 124.389 117.363 124.364 117.31 124.357C117.3 124.073 117.258 123.786 117.226 123.506L117.216 123.422C117.184 123.117 117.106 122.745 117.256 122.459C117.397 122.189 117.72 121.999 117.96 121.816L118.155 121.664L118.72 121.124ZM132.204 117.901C132.329 117.973 132.446 118.063 132.552 118.176C132.886 118.53 133.125 118.971 133.357 119.395C133.482 119.623 133.603 119.854 133.729 120.082C133.784 120.181 133.84 120.279 133.897 120.377C133.923 120.422 134.002 120.511 134.041 120.567C133.997 120.627 133.953 120.687 133.907 120.746C133.89 120.768 132.692 122.073 132.275 122.583C131.635 123.366 131.064 124.192 130.575 125.076C130.097 125.942 129.733 126.859 129.29 127.742C129.068 128.184 128.82 128.623 128.504 129.005C128.492 129.02 128.479 129.034 128.467 129.049C128.346 128.723 128.037 128.375 127.886 128.174L127.872 128.156C127.528 127.692 127.164 127.242 126.793 126.8C126.454 126.396 126.107 126.001 125.75 125.613L125.617 125.468C125.369 125.2 125.053 124.799 124.69 124.607C124.729 124.538 124.774 124.469 124.826 124.402C125.166 123.957 125.647 123.634 126.122 123.343L126.43 123.156C127.59 122.449 128.732 121.709 129.739 120.791C130.272 120.305 130.797 119.796 131.245 119.229L131.403 119.028L132.204 117.901ZM130.268 117.551C130.812 117.596 131.398 117.585 131.9 117.762C131.454 118.184 131.03 118.64 130.594 119.069C130.555 118.779 130.476 118.492 130.409 118.209" fill="black"/>
<path fill-rule="evenodd" clip-rule="evenodd" d="M112.045 98.8507C113.385 90.7313 123.614 89.2675 130.28 90.9764C130.402 89.4146 131.384 88.0346 132.609 87.1269C137.814 83.3737 143.976 89.7458 142.742 95.2375C142.521 96.9012 141.194 98.7996 139.337 98.5148C141.671 102.941 142.583 111.866 137.441 114.625C136.945 114.979 136.862 115.697 136.481 116.158C135.861 116.901 133.213 117.848 131.78 117.089C131.33 117.504 130.811 117.907 130.204 118.05C127.067 120.566 122.483 121.134 118.663 120.096C116.31 119.696 113.871 118.632 112.66 116.459C111.634 114.805 112.107 112.867 112.577 111.116C112.78 110.153 112.913 109.182 112.994 108.203C112.827 108.008 112.818 107.737 112.776 107.49C112.596 106.615 112.201 105.803 112.004 104.931C111.562 102.951 111.639 100.835 112.045 98.8507Z" fill="#D08B5B"/>
<path fill-rule="evenodd" clip-rule="evenodd" d="M141.131 90.0519C139.973 87.8436 137.705 86.5976 135.436 86.7685C133.115 86.9433 131.339 88.547 130.927 91.1364L130.915 91.2151L130.891 91.3832L130.913 91.3909L130.902 91.41L130.883 91.4426C130.86 91.4802 130.831 91.523 130.793 91.5788L130.741 91.6527L130.568 91.8969L130.555 91.9145L130.518 91.9679L130.444 91.9415C126.807 90.6688 122.756 90.6819 119.135 92.0351L119.025 92.0765L118.924 92.1156L118.867 92.1304C116.647 92.7188 114.873 94.1337 113.658 96.1595L113.622 96.2211L113.585 96.2843C112.476 98.1921 111.908 100.55 111.948 102.918L111.949 102.99L111.95 103.002L111.956 103.073C112.009 103.642 112.151 104.149 112.447 104.924L112.484 105.022L112.543 105.172L112.725 105.634L112.769 105.749L113.291 107.123L113.195 105.744C113.184 105.591 113.178 105.456 113.173 105.25L113.172 105.213L113.16 104.63L113.157 104.499C113.155 104.439 113.153 104.384 113.151 104.331L113.147 104.251L113.14 104.127L113.138 104.102L113.142 104.074C113.253 103.198 113.654 102.449 114.345 101.741L114.381 101.704L114.418 101.667L114.461 101.624C114.97 101.125 115.485 100.744 116.551 100.044L116.597 100.014L117.216 99.61L117.448 99.4577C117.959 99.1202 118.271 98.9017 118.6 98.6468L118.671 98.5916L118.727 98.5479C119.297 98.0955 119.743 97.651 120.085 97.1714L120.117 97.1264L120.184 97.0296L120.136 96.9263L120.137 96.9277L120.137 96.9272L120.134 96.9162L120.131 96.8978L120.128 96.8754C120.122 96.831 120.117 96.7731 120.113 96.7077C120.112 96.6841 120.11 96.6599 120.11 96.6354L120.108 96.5985L120.108 96.5666L120.121 96.6042C120.781 98.5144 122.346 100.108 124.552 101.284L124.619 101.32L124.695 101.359C126.869 102.487 129.529 103.134 131.835 103.153L131.909 103.153L131.982 103.153L132.039 103.106C132.251 102.932 132.64 103.149 132.569 103.46C131.914 106.34 131.776 109.32 132.177 112.191L132.191 112.291L132.192 112.301L132.208 112.382C132.221 112.454 132.233 112.528 132.247 112.614L132.269 112.752L132.352 113.311L132.39 113.55L132.407 113.648C132.547 114.463 132.726 115.017 133.05 115.495L133.082 115.54L133.113 115.571L133.145 115.602C133.209 115.668 133.249 115.722 133.268 115.759L133.273 115.767L133.275 115.772L133.269 115.775C133.166 115.812 132.955 115.804 132.779 115.756L132.757 115.75L132.737 115.743L132.594 115.697L132.495 115.837L132.466 115.878C132.411 115.953 132.354 116.029 132.283 116.122L132.199 116.231L132.006 116.481L132.183 116.604C132.783 117.019 133.622 116.936 134.512 116.547L134.547 116.532L134.56 116.525C134.984 116.3 135.263 116.028 135.721 115.448L135.775 115.379L135.978 115.117L136.056 115.019C136.11 114.951 136.157 114.895 136.203 114.841L136.219 114.823L136.273 114.76L136.285 114.736C136.509 114.284 136.83 113.983 137.391 113.66L137.47 113.615L137.521 113.58C138.945 112.591 139.785 111.03 140.139 109.006C140.415 107.424 140.386 105.644 140.133 103.645L140.121 103.549L140.108 103.45C139.889 101.767 139.388 100.196 138.628 98.7663L138.589 98.6924L138.553 98.6267L138.731 98.4851L138.805 98.4281C138.865 98.3815 138.909 98.3495 138.949 98.3231L138.971 98.3092L138.991 98.2968L138.996 98.3068L139.132 98.2923C139.706 98.2308 140.272 97.9823 140.733 97.5993L140.771 97.5673L140.808 97.5301C141.698 96.6227 142.135 95.3648 142.136 93.9282C142.136 92.6584 141.788 91.3071 141.194 90.1702L141.164 90.1145L141.131 90.0519Z" fill="#E8E1E1"/>
<path fill-rule="evenodd" clip-rule="evenodd" d="M112.153 102.988C112.23 103.967 112.644 104.847 112.991 105.76C112.953 105.22 112.971 104.658 112.933 104.098C113.336 100.587 118.1 99.6652 119.949 97.011C119.879 96.8611 119.854 95.5209 120.129 95.8978C121.199 100.588 127.556 102.941 131.909 102.95C132.238 102.678 132.891 102.966 132.768 103.508C132.117 106.367 131.974 109.358 132.392 112.264C132.589 113.29 132.622 114.524 133.237 115.408C133.889 116.03 133.105 116.079 132.673 115.939C132.553 116.109 132.426 116.273 132.299 116.437C132.918 116.866 133.822 116.632 134.464 116.346C135.177 115.968 135.585 115.235 136.102 114.647C136.384 114.078 136.812 113.751 137.362 113.442C140.424 111.357 140.345 106.784 139.905 103.478C138.625 93.6411 127.73 88.8948 118.986 92.3121C114.264 93.5222 112.051 98.4146 112.153 102.988ZM140.632 97.4185C142.499 95.5549 142.123 92.2969 140.95 90.1486C138.597 85.6598 131.917 85.8056 131.117 91.2465C134.524 92.4161 137.398 94.924 139.11 98.0907C139.667 98.031 140.206 97.7823 140.632 97.4185ZM130.28 90.9797C130.402 89.4178 131.384 88.0378 132.609 87.13C137.814 83.3769 143.976 89.749 142.742 95.2407C142.521 96.9044 141.194 98.8028 139.337 98.5181C141.671 102.944 142.583 111.869 137.441 114.628C136.945 114.982 136.862 115.701 136.481 116.161C135.861 116.904 133.213 117.851 131.78 117.092C131.44 117.511 129.506 118.785 129.647 117.536C129.789 117.2 130.229 117.112 130.522 116.946C131.137 116.606 131.671 116.126 132.091 115.563C130.772 111.837 130.873 107.689 131.611 103.852C127.197 103.63 122.003 101.691 120.056 97.4331C118.74 100.532 114.658 100.93 113.627 104.395C113.565 106.214 113.954 108.007 113.672 109.827C113.589 111.61 112.648 113.381 113.192 115.153C114.711 119.015 120.18 119.582 123.793 119.421C124.651 119.35 125.364 118.885 126.069 118.444C126.492 118.243 126.996 118.663 126.736 119.112C125.747 120.496 123.712 120.617 122.15 120.567C118.095 120.326 112.235 119.125 112.025 114.108C112.158 112.119 112.937 110.215 112.994 108.206C112.827 108.011 112.818 107.74 112.776 107.493C112.596 106.618 112.201 105.806 112.004 104.934C111.562 102.954 111.639 100.838 112.045 98.8539C113.385 90.7346 123.614 89.2707 130.28 90.9797Z" fill="black"/>
<path fill-rule="evenodd" clip-rule="evenodd" d="M119.75 115.359C119.235 115.287 118.681 114.995 118.189 115.232C117.959 115.343 117.85 115.722 118.005 115.933C118.243 116.254 118.488 116.308 118.873 116.338C119.162 116.362 119.453 116.363 119.741 116.33L119.814 116.321C120.329 116.255 120.863 116.111 121.261 115.766C121.343 115.695 121.301 115.542 121.196 115.52C120.723 115.42 120.229 115.425 119.75 115.359ZM120.356 114.173C120.356 114.169 120.35 114.169 120.349 114.173C120.337 114.467 120.254 114.74 120.101 114.992C120.099 114.996 120.105 114.999 120.107 114.995C120.26 114.743 120.343 114.468 120.356 114.173ZM118.732 108.099C118.218 108.411 117.434 109.141 117.988 109.916C118.639 110.599 119.577 109.816 120.039 109.461C120.468 109.186 120.949 109.893 120.552 110.214C117.212 112.686 115.856 108.18 118.472 107.731C118.76 107.681 118.867 108.002 118.732 108.099ZM116.099 104.599C115.978 104.599 115.863 104.64 115.758 104.716C115.654 104.791 115.56 104.9 115.482 105.036C115.335 105.293 115.242 105.648 115.242 106.041C115.242 106.433 115.335 106.789 115.482 107.046C115.56 107.182 115.654 107.291 115.758 107.365C115.863 107.441 115.978 107.482 116.099 107.482C116.22 107.482 116.336 107.441 116.441 107.365C116.544 107.291 116.638 107.182 116.716 107.046C116.864 106.789 116.956 106.433 116.956 106.041C116.956 105.648 116.864 105.293 116.716 105.036C116.638 104.9 116.544 104.791 116.441 104.716C116.336 104.64 116.22 104.599 116.099 104.599ZM121.694 105L121.648 104.991C121.383 104.943 121.249 104.959 121.018 105.14C120.844 105.276 120.894 105.543 121.018 105.686C121.234 105.935 121.445 105.891 121.74 105.901L121.761 105.902C122.008 105.912 122.254 105.919 122.501 105.922C122.568 105.923 122.636 105.923 122.703 105.924C122.696 106.548 123.056 107.023 123.53 107.384C123.836 107.618 124.224 107.348 124.333 107.058C124.423 106.817 124.443 106.521 124.396 106.258C124.378 106.16 124.342 106.055 124.287 105.965L124.271 105.941L124.274 105.907C124.274 105.898 124.274 105.89 124.274 105.881C124.714 105.855 125.151 105.81 125.589 105.755L125.734 105.736C126.108 105.687 126.656 105.671 126.958 105.428C126.967 105.42 126.964 105.403 126.954 105.398C126.788 105.309 126.619 105.314 126.434 105.305L126.407 105.304C126.205 105.294 126.004 105.285 125.802 105.278L125.6 105.272C125.083 105.257 124.566 105.232 124.05 105.204C123.96 105.2 123.871 105.194 123.781 105.188C123.687 105.149 123.587 105.126 123.488 105.121C123.407 105.117 123.328 105.129 123.254 105.152C123.066 105.138 122.877 105.122 122.689 105.105L122.501 105.087C122.235 105.062 121.956 105.051 121.694 105ZM118.433 100.322C117.865 100.043 117.175 100.036 116.59 100.267L116.551 100.283C115.961 100.528 115.249 101.094 115.403 101.799C115.544 102.444 116.556 102.335 116.608 101.725C116.934 101.272 117.667 101.173 118.128 101.461C118.407 101.635 118.599 101.929 118.73 102.226C118.842 102.479 118.863 102.791 119.035 103.011C119.04 103.018 119.051 103.019 119.06 103.017C119.571 102.899 119.583 102.086 119.496 101.691C119.369 101.118 118.962 100.582 118.433 100.322Z" fill="black"/>
<g opacity="0.2">
<path opacity="0.2" d="M67.3641 122.145C93.8105 128.85 120.685 112.846 127.39 86.4C134.095 59.9536 118.092 33.079 91.6452 26.374C65.1988 19.6689 38.3242 35.6725 31.6192 62.1189C24.9142 88.5653 40.9177 115.44 67.3641 122.145Z" fill="#FFA434"/>
<path opacity="0.2" d="M81.4153 189.08C86.1296 190.275 90.9204 187.422 92.1156 182.708C93.3109 177.994 90.458 173.203 85.7437 172.008C81.0293 170.812 76.2386 173.665 75.0433 178.38C73.8481 183.094 76.7009 187.885 81.4153 189.08Z" fill="#FFA434"/>
<path opacity="0.2" fill-rule="evenodd" clip-rule="evenodd" d="M87.0639 11.2464L94.6814 24.0385L81.8894 31.656L74.2719 18.864L87.0639 11.2464Z" fill="#FFA434"/>
<path opacity="0.2" fill-rule="evenodd" clip-rule="evenodd" d="M22.3224 147.73L26.0524 153.993L19.7888 157.723L16.0588 151.46L22.3224 147.73Z" fill="#FFA434"/>
<path opacity="0.2" fill-rule="evenodd" clip-rule="evenodd" d="M127.664 35.506L129.529 38.6378L126.397 40.5027L124.532 37.3709L127.664 35.506Z" fill="#2026A2"/>
</g>
<path fill-rule="evenodd" clip-rule="evenodd" d="M43.818 26.3539L81.2037 34.4552C85.4294 35.3709 88.1127 39.5388 87.197 43.7645L67.0417 136.777C66.126 141.003 61.9581 143.686 57.7323 142.771L20.3467 134.669C16.121 133.754 13.4377 129.586 14.3534 125.36L34.5087 32.3473C35.4244 28.1216 39.5923 25.4382 43.818 26.3539Z" fill="#F2F2F2"/>
<path fill-rule="evenodd" clip-rule="evenodd" d="M48.9166 30.7664C48.5767 32.3348 49.5492 33.8821 51.0972 34.2639L51.1807 34.2833L71.2115 38.6238C72.7798 38.9637 74.3271 37.9912 74.709 36.4431L74.7283 36.3597L74.9126 35.5093L80.7924 36.7834C83.6095 37.3939 85.3984 40.1725 84.7879 42.9896L64.559 136.342C63.9485 139.159 61.1699 140.948 58.3527 140.338L20.6367 132.165C17.8196 131.554 16.0307 128.776 16.6411 125.959L36.8701 32.6061C37.4805 29.789 40.2592 28.0001 43.0763 28.6106L49.1008 29.916L48.9166 30.7664Z" fill="#240E6A"/>
<path fill-rule="evenodd" clip-rule="evenodd" d="M58.6013 71.2695C65.1318 72.5769 68.2789 80.227 65.6307 88.3567L65.1029 89.9775C66.2196 90.4678 66.71 91.948 66.2009 93.5108L65.0021 97.1908C64.4839 98.7818 63.1091 99.9082 61.8086 99.8783C59.6765 104.997 55.6274 108.872 51.2866 110.296L49.7118 115.13L50.5564 115.299C58.9527 116.98 62.999 126.816 59.5941 137.268L59.3257 139.806L56.8279 140.479L48.8257 138.806L37.3258 136.307L17.364 131.807L16.3256 131.307L17.364 128.814C20.7689 118.362 30.3357 111.251 38.732 112.932L39.5766 113.101L41.1512 108.267C38.2126 105.386 37.0294 100.463 38.2888 95.1698C37.1295 94.7074 36.612 93.2022 37.1302 91.6112L38.329 87.9312C38.8382 86.3683 40.174 85.2536 41.4539 85.2432L41.9818 83.6225C44.6301 75.4928 52.0709 69.9622 58.6013 71.2695Z" fill="#EAC7A8"/>
<path fill-rule="evenodd" clip-rule="evenodd" d="M40.8252 108.46C42.0653 109.676 43.618 110.529 45.4317 110.892C47.2452 111.255 49.1289 111.091 50.9607 110.49L50.504 111.892C48.7379 112.785 46.8434 113.134 45.0434 112.774C43.0563 112.376 41.497 111.176 40.4924 109.482L40.8252 108.46Z" fill="black" fill-opacity="0.24"/>
<path fill-rule="evenodd" clip-rule="evenodd" d="M48.623 95.5708C48.1501 97.0225 48.7926 97.8447 49.6272 98.0118C50.4619 98.1789 51.5286 97.6988 52.0015 96.2471C51.4812 96.3479 50.8814 96.3302 50.2021 96.1943C49.53 96.0597 49.0037 95.8519 48.623 95.5708Z" fill="black" fill-opacity="0.16"/>
<mask id="mask0" mask-type="alpha" maskUnits="userSpaceOnUse" x="15" y="112" width="47" height="30">
<path fill-rule="evenodd" clip-rule="evenodd" d="M33.7395 113.976C32.2122 118.453 35.725 123.102 41.5855 124.36C47.4461 125.618 53.4352 123.009 54.9625 118.532C55.0903 118.158 55.1828 117.782 55.2416 117.407C60.6509 121.27 62.6376 129.754 59.6114 138.624L58.772 141.085L15.8973 131.881L16.7367 129.421C19.8 120.442 27.0471 113.86 34.2616 112.806C34.0531 113.18 33.878 113.571 33.7395 113.976Z" fill="white"/>
</mask>
<g mask="url(#mask0)">
<path fill-rule="evenodd" clip-rule="evenodd" d="M33.74 113.977C32.2127 118.453 35.7255 123.102 41.5861 124.36C47.4466 125.618 53.4357 123.009 54.963 118.532C55.0908 118.158 55.1833 117.782 55.2421 117.407C60.6514 121.27 62.6381 129.754 59.6119 138.624L59.5 139.5L57.5 140.5L55.2421 140.5L47.7732 139.506L36.0592 137.484L25.881 134.928L16.7028 132.89L15.7028 132.372L16.7372 129.421C19.8005 120.442 27.0476 113.86 34.2621 112.806C34.0536 113.18 33.8785 113.571 33.74 113.977Z" fill="#E37232"/>
</g>
<path fill-rule="evenodd" clip-rule="evenodd" d="M44.6019 100.402C44.0125 102.941 45.0804 105.221 47.1442 105.635C49.2143 106.049 51.5541 104.438 52.5854 101.975C52.6684 101.777 52.5964 101.406 52.3697 101.361C49.2248 100.731 46.8154 100.249 45.1999 99.9254C44.9718 99.8797 44.6609 100.147 44.6019 100.402Z" fill="black" fill-opacity="0.7"/>
<path fill-rule="evenodd" clip-rule="evenodd" d="M48.8849 103.743C49.5172 103.87 49.988 104.299 50.2406 104.893C49.2713 105.545 48.1743 105.841 47.1442 105.635C46.1139 105.428 45.3318 104.757 44.8802 103.82C45.4654 103.393 46.1411 103.194 46.7734 103.32C47.1536 103.396 47.4755 103.582 47.7266 103.847C48.1089 103.709 48.5048 103.667 48.8849 103.743Z" fill="#FF4F6D" fill-opacity="0.7"/>
<path fill-rule="evenodd" clip-rule="evenodd" d="M52.1497 101.317C51.9132 102.043 51.2489 102.536 50.6658 102.42L46.2316 101.532C45.6485 101.415 45.3676 100.732 45.604 100.006L52.1497 101.317Z" fill="white"/>
<path d="M45.7643 91.9184C46.464 92.0585 47.2612 91.4659 47.5449 90.5949C47.8287 89.7238 47.4915 88.9042 46.7918 88.7641C46.0921 88.624 45.2949 89.2166 45.0111 90.0876C44.7274 90.9587 45.0646 91.7783 45.7643 91.9184Z" fill="black" fill-opacity="0.6"/>
<path d="M56.7443 94.1164C57.444 94.2565 58.2412 93.6639 58.5249 92.7929C58.8087 91.9218 58.4715 91.1022 57.7718 90.9621C57.0721 90.822 56.2749 91.4146 55.9911 92.2856C55.7074 93.1567 56.0446 93.9763 56.7443 94.1164Z" fill="black" fill-opacity="0.6"/>
<path d="M44.3434 86.3585C45.6418 85.076 48.1725 84.7177 49.9302 85.7052C50.1341 85.8198 50.419 85.6932 50.5665 85.4223C50.714 85.1515 50.6682 84.839 50.4642 84.7245C48.423 83.5776 45.4924 83.9925 43.8534 85.6116C43.6412 85.8212 43.5789 86.1583 43.7142 86.3646C43.8495 86.5708 44.1312 86.5681 44.3434 86.3585Z" fill="black" fill-opacity="0.6"/>
<path d="M61.3916 89.7713C61.0367 88.1578 59.0349 86.8922 56.8884 87.0982C56.6394 87.1221 56.4668 86.9038 56.5031 86.6107C56.5393 86.3176 56.7706 86.0606 57.0196 86.0367C59.5124 85.7975 61.8304 87.2631 62.2785 89.3C62.3365 89.5638 62.185 89.883 61.9401 90.0132C61.6952 90.1433 61.4496 90.035 61.3916 89.7713Z" fill="black" fill-opacity="0.6"/>
<mask id="mask1" mask-type="alpha" maskUnits="userSpaceOnUse" x="36" y="85" width="30" height="29">
<path fill-rule="evenodd" clip-rule="evenodd" d="M47.2185 106.445C44.7555 106.058 43.2001 107.287 42.8623 105.654C42.6089 104.428 43.7266 101.835 44.6393 100.906C45.938 99.5835 46.8093 100.523 48.1005 100.601C48.4515 100.622 48.827 100.574 49.1743 100.441C49.3978 100.688 49.6975 100.872 50.0185 100.985C51.1994 101.402 52.5387 100.905 52.8697 102.554C53.1022 103.712 52.4974 106.407 51.5251 107.388C50.2298 108.694 49.6815 106.832 47.2185 106.445ZM65.0849 90.1861C63.1566 93.7411 61.5948 97.4489 59.8514 101.086C59.488 101.845 59.1152 102.598 58.7353 103.349C58.6556 103.507 58.4321 104.107 58.2781 104.157C57.8115 104.312 57.4176 102.916 57.2955 102.595C56.9888 101.787 56.6887 100.974 56.2163 100.293C55.2618 98.9185 53.9346 97.953 52.3816 97.4761C51.7319 97.2764 50.7874 97.2087 50.0002 97.5573C49.5226 96.9555 48.6524 96.66 47.96 96.5909C46.3055 96.4258 44.5502 96.7742 42.8718 97.6218C42.0412 98.0412 41.2805 98.6422 40.5172 99.2358C40.2133 99.4722 39.0142 100.549 38.699 100.238C38.595 100.135 38.7659 99.5249 38.7923 99.3566C38.9182 98.5548 39.0518 97.7535 39.1967 96.9515C39.8915 93.1042 40.7888 89.2633 41.2709 85.4189C41.0605 85.3768 39.2706 90.2678 39.0976 90.7223C38.3945 92.568 37.689 94.3689 37.2236 96.2639C36.4206 99.5328 35.3617 103.621 36.5315 106.475C37.5884 109.053 40.0226 110.035 41.7957 111.883C42.024 112.121 42.3323 112.421 42.6835 112.686C42.9823 113.183 43.7491 113.635 44.7376 113.833C45.7744 114.04 46.7682 113.911 47.3222 113.549C47.7366 113.451 48.13 113.323 48.4379 113.213C51.1246 112.257 53.8614 112.31 56.3658 110.445C59.1375 108.381 60.7089 104.395 62.0036 101.225C62.7541 99.3867 63.2365 97.541 63.7484 95.6571C63.8745 95.1932 65.2952 90.2282 65.0849 90.1861Z" fill="white"/>
</mask>
<g mask="url(#mask1)">
<path fill-rule="evenodd" clip-rule="evenodd" d="M47.2185 106.445C44.7555 106.058 43.2001 107.287 42.8623 105.654C42.6089 104.428 43.7266 101.835 44.6393 100.906C45.938 99.5835 46.8093 100.523 48.1005 100.601C48.4515 100.622 48.827 100.574 49.1743 100.441C49.3978 100.688 49.6975 100.872 50.0185 100.985C51.1994 101.402 52.5387 100.905 52.8697 102.554C53.1022 103.712 52.4974 106.407 51.5251 107.388C50.2298 108.694 49.6815 106.832 47.2185 106.445ZM65.0849 90.1861C63.1566 93.7411 61.5948 97.4489 59.8514 101.086C59.488 101.845 59.1152 102.598 58.7353 103.349C58.6556 103.507 58.4321 104.107 58.2781 104.157C57.8115 104.312 57.4176 102.916 57.2955 102.595C56.9888 101.787 56.6887 100.974 56.2163 100.293C55.2618 98.9185 53.9346 97.953 52.3816 97.4761C51.7319 97.2764 50.7874 97.2087 50.0002 97.5573C49.5226 96.9555 48.6524 96.66 47.96 96.5909C46.3055 96.4258 44.5502 96.7742 42.8718 97.6218C42.0412 98.0412 41.2805 98.6422 40.5172 99.2358C40.2133 99.4722 39.0142 100.549 38.699 100.238C38.595 100.135 38.7659 99.5249 38.7923 99.3566C38.9182 98.5548 39.0518 97.7535 39.1967 96.9515C39.8915 93.1042 40.7888 89.2633 41.2709 85.4189C41.0605 85.3768 39.2706 90.2678 39.0976 90.7223C38.3945 92.568 37.689 94.3689 37.2236 96.2639C36.4206 99.5328 35.3617 103.621 36.5315 106.475C37.5884 109.053 40.0226 110.035 41.7957 111.883C42.024 112.121 42.3323 112.421 42.6835 112.686C42.9823 113.183 43.7491 113.635 44.7376 113.833C45.7744 114.04 46.7682 113.911 47.3222 113.549C47.7366 113.451 48.13 113.323 48.4379 113.213C51.1246 112.257 53.8614 112.31 56.3658 110.445C59.1375 108.381 60.7089 104.395 62.0036 101.225C62.7541 99.3867 63.2365 97.541 63.7484 95.6571C63.8745 95.1932 65.2952 90.2282 65.0849 90.1861Z" fill="#4A312C"/>
</g>
<path fill-rule="evenodd" clip-rule="evenodd" d="M47.4975 74.9056C44.3491 77.6353 42.2353 81.1321 41.1562 85.3962C43.1763 87.4806 45.6653 78.4589 50.5791 75.8026C53.855 74.0317 52.8278 73.7327 47.4975 74.9056Z" fill="#4A312C"/>
<path fill-rule="evenodd" clip-rule="evenodd" d="M65.7819 78.846C66.6466 82.1924 66.3235 85.9544 64.8127 90.1319C61.7651 91.2018 65.0987 82.3492 62.4112 78.1712C60.6195 75.3858 61.7431 75.6108 65.7819 78.846Z" fill="#4A312C"/>
<path fill-rule="evenodd" clip-rule="evenodd" d="M67.4088 73.7649C65.8283 71.6467 63.7759 70.3517 64.6024 67.8145C65.4289 65.2772 66.1152 63.7463 62.9589 62.664C59.8026 61.5817 54.7578 62.482 50.3231 67.2248C45.8885 71.9677 44.6788 76.22 49.6047 76.3052C54.5307 76.3904 62.9059 79.1932 65.2871 80.1203C67.6683 81.0474 68.9892 75.8831 67.4088 73.7649Z" fill="#4A312C"/>
</svg>
