<svg width="405" height="429" viewBox="0 0 405 429" fill="none" xmlns="http://www.w3.org/2000/svg">
<path d="M56.0394 194.93C42.6545 143.039 95.4011 98.8032 144.168 121.022C161.177 128.771 180.732 128.663 197.654 120.724L222.26 109.181C302.543 71.5195 386.465 153.821 350.374 234.823L348.92 238.086C342.127 253.332 340.029 270.255 342.893 286.698L343.287 288.961C353.862 349.671 296.643 400.167 237.72 382.126C220.757 376.932 202.572 377.337 185.857 383.281L133.374 401.944C91.5917 416.802 45.7508 394.472 31.6936 352.414L26.0006 335.38C18.8037 313.847 25.9175 290.115 43.7726 276.091C60.5468 262.916 67.9401 241.067 62.6127 220.414L56.0394 194.93Z" fill="#87BCDE"/>
<path fill-rule="evenodd" clip-rule="evenodd" d="M316.887 211.155C316.666 210.994 316.141 210.937 315.896 210.889C314.881 210.689 313.835 210.602 312.799 210.602C309.607 210.607 306.362 210.92 303.223 211.462C301.23 211.806 298.82 212.965 296.837 212.336C293.383 211.239 289.891 211.293 286.614 212.858C283.617 214.289 281.343 217.007 280.015 219.943C279.815 220.387 279.002 222.018 278.772 223.118C278.674 223.343 278.58 223.569 278.494 223.799C278.253 224.452 278.036 225.116 277.835 225.781C277.748 226.065 277.532 226.691 277.789 226.812C277.378 227.57 277.014 228.351 276.711 229.157C275.829 231.502 274.865 234.074 274.555 236.559C274.44 237.479 274.436 238.405 274.543 239.327C274.595 239.782 274.574 240.699 274.883 241.045C275.538 241.78 275.875 240.751 275.801 240.261C275.237 236.524 276.327 233.016 277.619 229.503C278.454 227.232 279.827 225.154 281.365 223.273C282.61 221.75 283.945 220.55 285.651 219.54C287.737 218.305 289.968 217.307 292.178 216.306C293.631 215.647 295.086 215.006 296.581 214.438C296.913 214.312 297.436 213.988 297.804 213.986C298.583 213.984 299.687 214.558 300.439 214.772C302.914 215.476 305.421 216.376 307.979 216.735C309.62 216.966 311.157 216.707 312.691 216.16C312.848 216.104 313.111 215.961 313.433 215.756C314.572 215.318 315.65 214.766 316.588 213.971C317.128 213.513 317.619 212.92 318.066 212.378C318.2 212.216 318.259 212.031 318.261 211.854C318.363 211.801 318.43 211.739 318.445 211.667C318.557 211.133 317.539 211.124 316.887 211.155Z" fill="#89C5CC"/>
<path fill-rule="evenodd" clip-rule="evenodd" d="M312.572 225.995C311.151 225.687 309.582 225.711 308.135 225.736C300.373 225.841 292.751 229.482 287.791 235.301C283.568 240.254 282.407 246.412 281.572 252.638C281.49 253.256 281.454 253.87 281.408 254.489C281.397 254.622 281.382 254.741 281.367 254.853C281.038 255.143 280.866 255.482 281.06 255.854C280.338 257.422 279.726 259.029 279.202 260.686C277.658 265.565 276.087 270.537 277.054 275.667C277.28 272.844 277.756 269.957 278.325 267.18C278.357 267.021 278.393 266.862 278.429 266.705C278.433 266.688 278.437 266.672 278.441 266.655C278.642 265.805 278.904 264.98 279.222 264.168C279.225 264.159 279.228 264.15 279.232 264.141C279.274 264.035 279.318 263.928 279.362 263.822C279.454 263.602 279.547 263.382 279.646 263.164C279.68 263.089 279.712 263.014 279.743 262.939C280.207 261.814 280.402 260.546 280.817 259.382C280.917 259.117 281.02 258.853 281.129 258.591C281.136 258.575 281.142 258.56 281.149 258.545C281.443 257.839 281.767 257.141 282.111 256.451C282.297 256.312 282.397 255.968 282.558 255.654C282.591 255.593 282.851 255.181 282.929 254.944C283.131 254.556 283.333 254.168 283.536 253.781C283.53 253.783 283.524 253.786 283.518 253.788C283.722 253.416 283.926 253.046 284.129 252.678C284.174 252.597 284.219 252.516 284.264 252.435C284.336 252.306 284.409 252.176 284.482 252.048C285.162 250.842 285.883 249.66 286.631 248.494C286.899 248.077 287.537 247.48 287.659 247.012C287.664 246.995 287.665 246.979 287.668 246.962C289.292 244.701 291.162 242.616 293.405 240.964C293.134 241.254 292.558 242.239 292.405 242.435C291.939 243.032 291.433 243.588 290.925 244.151C290.015 245.159 289.127 246.199 288.337 247.299C286.894 249.311 285.648 251.428 284.471 253.588C284.46 253.601 284.448 253.613 284.437 253.626C283.845 254.349 283.473 255.441 283.047 256.268C284.733 255.494 286.596 254.99 288.326 254.303C290.051 253.618 291.73 252.856 293.35 251.96C295.503 250.77 297.737 249.426 299.771 247.906C302.103 246.473 304.062 244.5 305.792 242.43C307.838 239.981 309.713 237.51 310.873 234.536C311.443 233.075 311.891 231.551 312.157 230.01C312.168 229.943 312.183 229.87 312.199 229.794C312.471 229.262 312.714 228.717 312.918 228.16C313.242 227.277 314.007 226.305 312.572 225.995Z" fill="#56919C"/>
<path fill-rule="evenodd" clip-rule="evenodd" d="M325.46 275.091C324.633 273.215 322.88 271.763 321.159 270.688C314.436 266.487 306.554 265.039 298.766 265.354C294.499 265.526 290.199 266.454 286.144 267.685C283.804 268.396 281.532 269.327 279.496 270.669C278.122 271.575 276.897 272.648 275.775 273.843C274.407 275.3 273.086 276.832 271.911 278.448C271.449 279.084 268.857 282.374 269.923 283.123C269.862 283.207 269.809 283.289 269.769 283.367C265.026 285.626 260.795 289.103 256.814 292.419C253.35 295.305 249.997 298.302 246.959 301.628C242.958 306.006 239.223 310.654 235.803 315.494C235.069 316.534 234.353 317.587 233.642 318.644C233.036 319.546 232.429 320.448 231.823 321.35C231.145 322.361 230.221 323.436 229.744 324.565C229.328 325.547 230.184 325.894 230.773 325.026C231.486 323.978 232.151 322.898 232.87 321.852C233.823 320.465 234.779 319.079 235.739 317.697C242.413 308.094 250.33 299.47 259.532 292.211C263.256 289.273 267.052 286.66 271.24 284.407C274.922 282.426 278.9 280.767 282.797 279.341C286.584 277.955 290.416 276.684 294.419 276.007C297.667 275.457 300.975 275.277 304.277 275.249C308.471 275.214 312.63 275.221 316.796 275.786C318.962 276.08 321.11 276.473 323.269 276.806C323.658 276.865 324.066 276.943 324.456 276.975C325.756 277.081 325.911 276.113 325.46 275.091Z" fill="#C1DEE2"/>
<path fill-rule="evenodd" clip-rule="evenodd" d="M68.3694 237.038C67.7425 237.53 67.1277 238.032 66.5279 238.554C66.0708 238.953 65.2618 239.429 65.0977 240.033C64.9271 240.659 65.4657 241.246 65.8911 241.625C68.141 243.63 70.6744 244.985 73.7919 245.211C78.5922 245.558 82.7698 244.371 86.9347 242.035C89.8603 240.394 91.7982 237.966 92.2215 234.689C95.7056 236.091 99.0754 238.024 101.939 240.397C103.352 241.567 104.569 242.864 105.694 244.302C106.415 245.223 107.113 246.159 107.76 247.131C108.041 247.553 108.327 248.301 108.792 248.545C109.337 248.83 109.996 248.382 109.969 247.795C109.946 247.307 109.401 246.74 109.147 246.341C108.724 245.677 108.294 245.018 107.842 244.373C107.11 243.329 106.354 242.299 105.529 241.321C103.675 239.126 101.317 237.311 98.8715 235.764C94.1808 232.797 89.0328 230.927 83.3253 230.769C79.8158 230.671 76.8635 231.832 73.8623 233.567C71.9938 234.646 70.0649 235.708 68.3694 237.038Z" fill="#C7D1D9"/>
<path fill-rule="evenodd" clip-rule="evenodd" d="M106.091 237.181C102.443 233.417 98.7825 229.7 94.7067 226.385C92.3048 224.432 89.7733 222.656 87.2941 220.804C87.5803 221.055 87.8608 221.313 88.1346 221.578C87.3608 221.052 86.3477 220.754 85.5272 220.267C84.6121 219.723 83.7373 219.102 82.8793 218.475C81.2044 217.252 79.5547 216.006 77.8331 214.847C75.9149 213.556 73.927 212.363 71.9762 211.12C70.3205 210.066 68.6446 208.912 66.8734 208.05C65.908 207.58 64.9404 207.023 63.9711 206.533C63.6467 206.369 60.3549 204.286 60.3632 204.28C60.5452 204.142 62.2017 204.922 62.4578 205.027C63.2061 205.333 63.9217 205.7 64.6412 206.065C64.2463 205.284 63.9337 204.464 63.7636 203.601C63.711 203.335 63.2899 201.396 63.5054 201.233C63.613 201.152 64.6632 204.621 64.717 204.955C64.7607 205.226 64.7543 205.616 64.8428 205.873C64.9857 206.287 64.9785 206.162 65.2934 206.396C65.8705 206.823 66.6366 207.091 67.2612 207.449C67.598 207.637 68.6408 208.384 69.2689 208.597C71.1694 209.522 73.0958 210.945 74.9015 212.126C74.4276 211.234 74.0669 210.3 73.804 209.323C73.7414 209.09 73.0665 207.008 73.2302 206.884C73.4145 206.745 74.7005 209.926 74.7767 210.227C74.9182 210.786 74.9475 211.409 75.1247 211.953C75.3192 212.55 75.926 212.762 76.473 213.11C78.4852 214.391 80.4284 215.753 82.3393 217.176C84.4242 213.461 82.0202 208.974 79.9941 205.857C78.5337 203.611 76.5676 201.684 74.4917 200.003C71.7212 197.759 68.5514 195.966 65.3855 194.326C61.6966 192.415 57.7096 191.231 53.5645 190.684C51.3966 190.398 49.1787 190.406 46.9889 190.497C45.9191 190.542 44.8923 190.684 43.8672 191.034C43.4051 191.191 42.9586 191.39 42.5234 191.613C42.1928 191.782 41.393 191.961 41.2029 192.213C39.638 194.253 38.8374 196.287 38.9597 198.851C39.0753 201.279 39.8405 203.708 40.8789 205.873C42.0354 208.284 43.5228 210.472 45.468 212.309C46.9521 213.711 48.6113 214.93 50.2597 216.134C56.1222 220.415 63.5549 224.138 71.1479 223.181C73.6057 222.872 75.9435 222.011 78.1281 220.84C78.6429 220.564 79.1545 220.286 79.6404 219.96C79.9681 219.74 80.844 218.751 81.1734 218.715C81.6251 218.666 82.5982 219.587 83.022 219.867C86.2424 221.997 89.3786 224.242 92.449 226.579C95.7156 229.064 98.8221 231.719 101.837 234.499C103.119 235.681 104.394 236.866 105.639 238.088C105.929 238.372 106.637 239.419 107.163 239.467C107.496 239.497 107.72 239.212 107.672 238.904C107.59 238.368 106.465 237.567 106.091 237.181Z" fill="#C1DEE2"/>
<path fill-rule="evenodd" clip-rule="evenodd" d="M73.3772 250.008C72.7702 250.008 72.165 250.02 71.5587 250.051C71.0965 250.075 70.3903 249.98 69.9993 250.268C69.593 250.567 69.621 251.179 69.6844 251.612C70.02 253.899 70.8389 255.927 72.552 257.548C75.1897 260.043 78.2136 261.311 81.7919 261.875C84.3054 262.272 86.6258 261.721 88.4761 259.934C89.828 262.443 90.8537 265.22 91.3683 268.022C91.6222 269.405 91.6997 270.771 91.655 272.179C91.6263 273.081 91.5765 273.981 91.4799 274.878C91.438 275.268 91.2391 275.859 91.3918 276.227C91.571 276.66 92.1753 276.702 92.4466 276.333C92.6724 276.026 92.6309 275.423 92.6773 275.059C92.7542 274.455 92.8254 273.851 92.8763 273.244C92.9591 272.262 93.0202 271.277 93.016 270.292C93.0054 268.077 92.513 265.854 91.8395 263.751C90.5473 259.718 88.4508 256.133 85.1901 253.321C83.1852 251.592 80.8906 250.891 78.2872 250.515C76.6664 250.281 75.0191 250.008 73.3772 250.008Z" fill="#89C5CC"/>
<path fill-rule="evenodd" clip-rule="evenodd" d="M82.7389 266.045C76.1871 266.045 71.7744 271.325 69.688 276.813C68.9016 278.882 68.7172 281.154 68.4141 283.326C68.3168 284.023 68.3528 285.085 68.0699 285.706C67.9672 285.931 67.7318 286.012 67.8444 286.319C67.9125 286.505 68.0462 286.619 68.2469 286.655C68.6591 286.731 69.2418 286.282 69.5951 286.105C72.5258 284.636 74.4514 282.363 76.0222 279.582C76.9959 277.859 77.9839 276.07 78.5623 274.178C78.9157 273.022 79.1213 271.805 79.2422 270.606C79.2897 270.133 79.3357 269.65 79.3329 269.175C79.3301 268.704 79.1108 268.454 78.9532 268.044C81.1394 267.217 83.607 266.991 85.8215 267.849C87.8697 268.642 89.5711 270.175 90.5237 272.1C90.7713 272.601 90.9622 273.129 91.1012 273.667C91.1922 274.02 91.1966 274.478 91.3653 274.797C91.7743 275.57 92.6348 275.053 92.5522 274.333C92.3218 272.326 91.1733 270.31 89.7054 268.914C87.854 267.154 85.3444 266.045 82.7389 266.045Z" fill="#89C5CC"/>
<path d="M151.666 162.032H93.4741C91.4496 162.032 89.8085 163.673 89.8085 165.697V282.54C89.8085 284.565 91.4496 286.206 93.4741 286.206H151.666C153.691 286.206 155.332 284.565 155.332 282.54V165.697C155.332 163.673 153.691 162.032 151.666 162.032Z" fill="#C7D1D9"/>
<path d="M122.341 278.875C126.137 278.875 129.214 275.797 129.214 272.002C129.214 268.206 126.137 265.128 122.341 265.128C118.545 265.128 115.468 268.206 115.468 272.002C115.468 275.797 118.545 278.875 122.341 278.875Z" fill="white"/>
<path d="M116.385 170.28C116.891 170.28 117.301 169.869 117.301 169.363C117.301 168.857 116.891 168.447 116.385 168.447C115.878 168.447 115.468 168.857 115.468 169.363C115.468 169.869 115.878 170.28 116.385 170.28Z" fill="white"/>
<path d="M128.298 168.447H120.508C120.002 168.447 119.592 168.857 119.592 169.363C119.592 169.869 120.002 170.28 120.508 170.28H128.298C128.804 170.28 129.214 169.869 129.214 169.363C129.214 168.857 128.804 168.447 128.298 168.447Z" fill="white"/>
<path d="M145.71 174.862H98.9726C97.9604 174.862 97.1398 175.682 97.1398 176.694V195.023C97.1398 196.035 97.9604 196.855 98.9726 196.855H145.71C146.722 196.855 147.543 196.035 147.543 195.023V176.694C147.543 175.682 146.722 174.862 145.71 174.862Z" fill="white"/>
<path d="M123.716 181.46H102.638C101.879 181.46 101.264 182.075 101.264 182.834V183.384C101.264 184.143 101.879 184.759 102.638 184.759H123.716C124.475 184.759 125.09 184.143 125.09 183.384V182.834C125.09 182.075 124.475 181.46 123.716 181.46Z" fill="#C7D1D9"/>
<path d="M115.882 186.958H102.638C101.879 186.958 101.264 187.574 101.264 188.333V188.883C101.264 189.642 101.879 190.257 102.638 190.257H115.882C116.641 190.257 117.257 189.642 117.257 188.883V188.333C117.257 187.574 116.641 186.958 115.882 186.958Z" fill="#C7D1D9"/>
<path d="M142.156 189.066C143.927 189.066 145.364 187.63 145.364 185.859C145.364 184.087 143.927 182.651 142.156 182.651C140.385 182.651 138.949 184.087 138.949 185.859C138.949 187.63 140.385 189.066 142.156 189.066Z" fill="#C7D1D9"/>
<path d="M142.156 187.233C142.915 187.233 143.531 186.618 143.531 185.859C143.531 185.099 142.915 184.484 142.156 184.484C141.397 184.484 140.781 185.099 140.781 185.859C140.781 186.618 141.397 187.233 142.156 187.233Z" fill="#F2F2F2"/>
<path d="M145.71 200.521H98.9726C97.9604 200.521 97.1398 201.342 97.1398 202.354V215.642C97.1398 216.654 97.9604 217.475 98.9726 217.475H145.71C146.722 217.475 147.543 216.654 147.543 215.642V202.354C147.543 201.342 146.722 200.521 145.71 200.521Z" fill="white"/>
<path d="M137.565 205.607H116.281C115.579 205.607 115.01 206.177 115.01 206.879C115.01 207.581 115.579 208.15 116.281 208.15H137.565C138.267 208.15 138.837 207.581 138.837 206.879C138.837 206.177 138.267 205.607 137.565 205.607Z" fill="#C7D1D9"/>
<path d="M129.732 209.846H116.281C115.579 209.846 115.01 210.415 115.01 211.117C115.01 211.819 115.579 212.389 116.281 212.389H129.732C130.434 212.389 131.003 211.819 131.003 211.117C131.003 210.415 130.434 209.846 129.732 209.846Z" fill="#C7D1D9"/>
<path d="M106.762 214.496C109.799 214.496 112.261 212.035 112.261 208.998C112.261 205.961 109.799 203.5 106.762 203.5C103.725 203.5 101.264 205.961 101.264 208.998C101.264 212.035 103.725 214.496 106.762 214.496Z" fill="#C5CFD6"/>
<path d="M145.71 221.14H98.9726C97.9604 221.14 97.1398 221.961 97.1398 222.973V236.261C97.1398 237.273 97.9604 238.094 98.9726 238.094H145.71C146.722 238.094 147.543 237.273 147.543 236.261V222.973C147.543 221.961 146.722 221.14 145.71 221.14Z" fill="white"/>
<path d="M123.819 226.227H102.535C101.833 226.227 101.264 226.796 101.264 227.498C101.264 228.2 101.833 228.77 102.535 228.77H123.819C124.521 228.77 125.09 228.2 125.09 227.498C125.09 226.796 124.521 226.227 123.819 226.227Z" fill="#C7D1D9"/>
<path d="M115.985 230.465H102.535C101.833 230.465 101.264 231.034 101.264 231.737C101.264 232.439 101.833 233.008 102.535 233.008H115.985C116.688 233.008 117.257 232.439 117.257 231.737C117.257 231.034 116.688 230.465 115.985 230.465Z" fill="#C7D1D9"/>
<path d="M142.156 232.825C143.927 232.825 145.364 231.389 145.364 229.617C145.364 227.846 143.927 226.41 142.156 226.41C140.385 226.41 138.949 227.846 138.949 229.617C138.949 231.389 140.385 232.825 142.156 232.825Z" fill="#C7D1D9"/>
<path d="M142.156 230.992C142.915 230.992 143.531 230.376 143.531 229.617C143.531 228.858 142.915 228.243 142.156 228.243C141.397 228.243 140.781 228.858 140.781 229.617C140.781 230.376 141.397 230.992 142.156 230.992Z" fill="#F2F2F2"/>
<path d="M145.71 241.76H98.9726C97.9604 241.76 97.1398 242.58 97.1398 243.593V256.881C97.1398 257.893 97.9604 258.713 98.9726 258.713H145.71C146.722 258.713 147.543 257.893 147.543 256.881V243.593C147.543 242.58 146.722 241.76 145.71 241.76Z" fill="white"/>
<path d="M137.565 246.846H116.281C115.579 246.846 115.01 247.415 115.01 248.117C115.01 248.82 115.579 249.389 116.281 249.389H137.565C138.267 249.389 138.837 248.82 138.837 248.117C138.837 247.415 138.267 246.846 137.565 246.846Z" fill="#C7D1D9"/>
<path d="M129.732 251.084H116.281C115.579 251.084 115.01 251.654 115.01 252.356C115.01 253.058 115.579 253.627 116.281 253.627H129.732C130.434 253.627 131.003 253.058 131.003 252.356C131.003 251.654 130.434 251.084 129.732 251.084Z" fill="#C7D1D9"/>
<path d="M106.762 255.735C109.799 255.735 112.261 253.273 112.261 250.237C112.261 247.2 109.799 244.738 106.762 244.738C103.725 244.738 101.264 247.2 101.264 250.237C101.264 253.273 103.725 255.735 106.762 255.735Z" fill="#C5CFD6"/>
<path d="M276.757 183.109H145.71C143.685 183.109 142.044 184.751 142.044 186.775V321.946C142.044 323.97 143.685 325.612 145.71 325.612H276.757C278.781 325.612 280.423 323.97 280.423 321.946V186.775C280.423 184.751 278.781 183.109 276.757 183.109Z" fill="#F2F2F2"/>
<path d="M270.342 200.979H248.806C246.782 200.979 245.141 202.621 245.141 204.645V230.763C245.141 232.787 246.782 234.429 248.806 234.429H270.342C272.366 234.429 274.008 232.787 274.008 230.763V204.645C274.008 202.621 272.366 200.979 270.342 200.979Z" fill="white"/>
<path d="M259.574 220.189C263.218 220.189 266.172 217.222 266.172 213.563C266.172 209.903 263.218 206.936 259.574 206.936C255.93 206.936 252.976 209.903 252.976 213.563C252.976 217.222 255.93 220.189 259.574 220.189Z" fill="#C7D1D9"/>
<path d="M268.641 221.845H250.507C249.821 221.845 249.264 222.401 249.264 223.088C249.264 223.774 249.821 224.33 250.507 224.33H268.641C269.327 224.33 269.884 223.774 269.884 223.088C269.884 222.401 269.327 221.845 268.641 221.845Z" fill="#C7D1D9"/>
<path d="M265.342 225.987H253.806C253.12 225.987 252.564 226.543 252.564 227.229C252.564 227.915 253.12 228.472 253.806 228.472H265.342C266.028 228.472 266.585 227.915 266.585 227.229C266.585 226.543 266.028 225.987 265.342 225.987Z" fill="#C7D1D9"/>
<path fill-rule="evenodd" clip-rule="evenodd" d="M145.71 183.109H276.757C278.781 183.109 280.423 184.751 280.423 186.775V194.106H142.044V186.775C142.044 184.751 143.685 183.109 145.71 183.109Z" fill="#C5CFD6"/>
<path d="M148.001 191.357C149.013 191.357 149.834 190.536 149.834 189.524C149.834 188.512 149.013 187.691 148.001 187.691C146.989 187.691 146.168 188.512 146.168 189.524C146.168 190.536 146.989 191.357 148.001 191.357Z" fill="#F2F2F2"/>
<path d="M153.499 191.357C154.511 191.357 155.332 190.536 155.332 189.524C155.332 188.512 154.511 187.691 153.499 187.691C152.487 187.691 151.666 188.512 151.666 189.524C151.666 190.536 152.487 191.357 153.499 191.357Z" fill="#F2F2F2"/>
<path d="M158.998 191.357C160.01 191.357 160.831 190.536 160.831 189.524C160.831 188.512 160.01 187.691 158.998 187.691C157.986 187.691 157.165 188.512 157.165 189.524C157.165 190.536 157.986 191.357 158.998 191.357Z" fill="#F2F2F2"/>
<path d="M270.342 237.636H248.806C246.782 237.636 245.141 239.277 245.141 241.302V313.698C245.141 315.723 246.782 317.364 248.806 317.364H270.342C272.366 317.364 274.008 315.723 274.008 313.698V241.302C274.008 239.277 272.366 237.636 270.342 237.636Z" fill="white"/>
<path d="M263.927 245.884H255.221C254.209 245.884 253.388 246.704 253.388 247.716V254.589C253.388 255.602 254.209 256.422 255.221 256.422H263.927C264.939 256.422 265.76 255.602 265.76 254.589V247.716C265.76 246.704 264.939 245.884 263.927 245.884Z" fill="#C7D1D9"/>
<path d="M263.927 260.088H255.221C254.209 260.088 253.388 260.909 253.388 261.921V268.336C253.388 269.348 254.209 270.169 255.221 270.169H263.927C264.939 270.169 265.76 269.348 265.76 268.336V261.921C265.76 260.909 264.939 260.088 263.927 260.088Z" fill="#AFB9C5"/>
<path d="M263.927 273.834H255.221C254.209 273.834 253.388 274.655 253.388 275.667V282.082C253.388 283.094 254.209 283.915 255.221 283.915H263.927C264.939 283.915 265.76 283.094 265.76 282.082V275.667C265.76 274.655 264.939 273.834 263.927 273.834Z" fill="#C7D1D9"/>
<path d="M263.927 301.327H255.221C254.209 301.327 253.388 302.147 253.388 303.159V309.574C253.388 310.587 254.209 311.407 255.221 311.407H263.927C264.939 311.407 265.76 310.587 265.76 309.574V303.159C265.76 302.147 264.939 301.327 263.927 301.327Z" fill="#C7D1D9"/>
<path d="M263.927 287.581H255.221C254.209 287.581 253.388 288.401 253.388 289.413V295.828C253.388 296.841 254.209 297.661 255.221 297.661H263.927C264.939 297.661 265.76 296.841 265.76 295.828V289.413C265.76 288.401 264.939 287.581 263.927 287.581Z" fill="#C5CFD6"/>
<path d="M235.518 203.271H151.208C150.196 203.271 149.375 204.091 149.375 205.103V220.682C149.375 221.695 150.196 222.515 151.208 222.515H235.518C236.53 222.515 237.351 221.695 237.351 220.682V205.103C237.351 204.091 236.53 203.271 235.518 203.271Z" fill="white"/>
<path d="M213.524 209.044H154.874C154.115 209.044 153.499 209.659 153.499 210.419V210.556C153.499 211.315 154.115 211.931 154.874 211.931H213.524C214.284 211.931 214.899 211.315 214.899 210.556V210.419C214.899 209.659 214.284 209.044 213.524 209.044Z" fill="#C7D1D9"/>
<path d="M193.338 213.855H154.874C154.115 213.855 153.499 214.47 153.499 215.23V215.367C153.499 216.126 154.115 216.742 154.874 216.742H193.338C194.097 216.742 194.713 216.126 194.713 215.367V215.23C194.713 214.47 194.097 213.855 193.338 213.855Z" fill="#C7D1D9"/>
<path d="M227.949 216.1C229.721 216.1 231.157 214.664 231.157 212.893C231.157 211.121 229.721 209.685 227.949 209.685C226.178 209.685 224.742 211.121 224.742 212.893C224.742 214.664 226.178 216.1 227.949 216.1Z" fill="#C7D1D9"/>
<path d="M227.949 214.267C228.708 214.267 229.324 213.652 229.324 212.893C229.324 212.134 228.708 211.518 227.949 211.518C227.19 211.518 226.574 212.134 226.574 212.893C226.574 213.652 227.19 214.267 227.949 214.267Z" fill="#F2F2F2"/>
<path d="M235.518 226.181H151.208C150.196 226.181 149.375 227.001 149.375 228.013V239.927C149.375 240.939 150.196 241.76 151.208 241.76H235.518C236.53 241.76 237.351 240.939 237.351 239.927V228.013C237.351 227.001 236.53 226.181 235.518 226.181Z" fill="white"/>
<path d="M213.731 230.854H154.668C154.022 230.854 153.499 231.378 153.499 232.023C153.499 232.668 154.022 233.191 154.668 233.191H213.731C214.376 233.191 214.899 232.668 214.899 232.023C214.899 231.378 214.376 230.854 213.731 230.854Z" fill="#C7D1D9"/>
<path d="M193.544 234.749H154.668C154.022 234.749 153.499 235.272 153.499 235.918C153.499 236.563 154.022 237.086 154.668 237.086H193.544C194.19 237.086 194.713 236.563 194.713 235.918C194.713 235.272 194.19 234.749 193.544 234.749Z" fill="#C7D1D9"/>
<path d="M227.949 237.178C229.721 237.178 231.157 235.742 231.157 233.97C231.157 232.199 229.721 230.763 227.949 230.763C226.178 230.763 224.742 232.199 224.742 233.97C224.742 235.742 226.178 237.178 227.949 237.178Z" fill="#C7D1D9"/>
<path d="M227.949 235.345C228.708 235.345 229.324 234.73 229.324 233.97C229.324 233.211 228.708 232.596 227.949 232.596C227.19 232.596 226.574 233.211 226.574 233.97C226.574 234.73 227.19 235.345 227.949 235.345Z" fill="#F2F2F2"/>
<path d="M235.518 245.426H151.208C150.196 245.426 149.375 246.246 149.375 247.258V259.172C149.375 260.184 150.196 261.005 151.208 261.005H235.518C236.53 261.005 237.351 260.184 237.351 259.172V247.258C237.351 246.246 236.53 245.426 235.518 245.426Z" fill="white"/>
<path d="M213.731 250.099H154.668C154.022 250.099 153.499 250.622 153.499 251.268C153.499 251.913 154.022 252.436 154.668 252.436H213.731C214.376 252.436 214.899 251.913 214.899 251.268C214.899 250.622 214.376 250.099 213.731 250.099Z" fill="#C7D1D9"/>
<path d="M193.544 253.994H154.668C154.022 253.994 153.499 254.517 153.499 255.162C153.499 255.808 154.022 256.331 154.668 256.331H193.544C194.19 256.331 194.713 255.808 194.713 255.162C194.713 254.517 194.19 253.994 193.544 253.994Z" fill="#C7D1D9"/>
<path d="M227.949 256.422C229.721 256.422 231.157 254.986 231.157 253.215C231.157 251.444 229.721 250.008 227.949 250.008C226.178 250.008 224.742 251.444 224.742 253.215C224.742 254.986 226.178 256.422 227.949 256.422Z" fill="#C7D1D9"/>
<path d="M227.949 254.59C228.708 254.59 229.324 253.974 229.324 253.215C229.324 252.456 228.708 251.84 227.949 251.84C227.19 251.84 226.574 252.456 226.574 253.215C226.574 253.974 227.19 254.59 227.949 254.59Z" fill="#AFB9C5"/>
<path d="M235.518 303.159H151.208C150.196 303.159 149.375 303.98 149.375 304.992V316.906C149.375 317.918 150.196 318.738 151.208 318.738H235.518C236.53 318.738 237.351 317.918 237.351 316.906V304.992C237.351 303.98 236.53 303.159 235.518 303.159Z" fill="white"/>
<path d="M213.731 307.833H154.668C154.022 307.833 153.499 308.356 153.499 309.002C153.499 309.647 154.022 310.17 154.668 310.17H213.731C214.376 310.17 214.899 309.647 214.899 309.002C214.899 308.356 214.376 307.833 213.731 307.833Z" fill="#C7D1D9"/>
<path d="M193.544 311.728H154.668C154.022 311.728 153.499 312.251 153.499 312.896C153.499 313.542 154.022 314.065 154.668 314.065H193.544C194.19 314.065 194.713 313.542 194.713 312.896C194.713 312.251 194.19 311.728 193.544 311.728Z" fill="#C7D1D9"/>
<path d="M227.949 314.156C229.721 314.156 231.157 312.72 231.157 310.949C231.157 309.177 229.721 307.741 227.949 307.741C226.178 307.741 224.742 309.177 224.742 310.949C224.742 312.72 226.178 314.156 227.949 314.156Z" fill="#C7D1D9"/>
<path d="M227.949 312.324C228.708 312.324 229.324 311.708 229.324 310.949C229.324 310.19 228.708 309.574 227.949 309.574C227.19 309.574 226.574 310.19 226.574 310.949C226.574 311.708 227.19 312.324 227.949 312.324Z" fill="#F2F2F2"/>
<path d="M235.518 283.915H151.208C150.196 283.915 149.375 284.735 149.375 285.748V297.661C149.375 298.673 150.196 299.494 151.208 299.494H235.518C236.53 299.494 237.351 298.673 237.351 297.661V285.748C237.351 284.735 236.53 283.915 235.518 283.915Z" fill="white"/>
<path d="M213.731 288.588H154.668C154.022 288.588 153.499 289.112 153.499 289.757C153.499 290.402 154.022 290.925 154.668 290.925H213.731C214.376 290.925 214.899 290.402 214.899 289.757C214.899 289.112 214.376 288.588 213.731 288.588Z" fill="#C7D1D9"/>
<path d="M193.544 292.483H154.668C154.022 292.483 153.499 293.006 153.499 293.652C153.499 294.297 154.022 294.82 154.668 294.82H193.544C194.19 294.82 194.713 294.297 194.713 293.652C194.713 293.006 194.19 292.483 193.544 292.483Z" fill="#C7D1D9"/>
<path d="M227.949 294.912C229.721 294.912 231.157 293.476 231.157 291.704C231.157 289.933 229.721 288.497 227.949 288.497C226.178 288.497 224.742 289.933 224.742 291.704C224.742 293.476 226.178 294.912 227.949 294.912Z" fill="#C7D1D9"/>
<path d="M227.949 293.079C228.708 293.079 229.324 292.463 229.324 291.704C229.324 290.945 228.708 290.33 227.949 290.33C227.19 290.33 226.574 290.945 226.574 291.704C226.574 292.463 227.19 293.079 227.949 293.079Z" fill="#F2F2F2"/>
<path d="M235.518 264.67H151.208C150.196 264.67 149.375 265.491 149.375 266.503V278.416C149.375 279.429 150.196 280.249 151.208 280.249H235.518C236.53 280.249 237.351 279.429 237.351 278.416V266.503C237.351 265.491 236.53 264.67 235.518 264.67Z" fill="white"/>
<path d="M213.731 269.344H154.668C154.022 269.344 153.499 269.867 153.499 270.512C153.499 271.157 154.022 271.681 154.668 271.681H213.731C214.376 271.681 214.899 271.157 214.899 270.512C214.899 269.867 214.376 269.344 213.731 269.344Z" fill="#C7D1D9"/>
<path d="M193.544 273.239H154.668C154.022 273.239 153.499 273.762 153.499 274.407C153.499 275.052 154.022 275.575 154.668 275.575H193.544C194.19 275.575 194.713 275.052 194.713 274.407C194.713 273.762 194.19 273.239 193.544 273.239Z" fill="#C7D1D9"/>
<path d="M227.949 275.667C229.721 275.667 231.157 274.231 231.157 272.46C231.157 270.688 229.721 269.252 227.949 269.252C226.178 269.252 224.742 270.688 224.742 272.46C224.742 274.231 226.178 275.667 227.949 275.667Z" fill="#C7D1D9"/>
<path d="M227.949 273.834C228.708 273.834 229.324 273.219 229.324 272.46C229.324 271.7 228.708 271.085 227.949 271.085C227.19 271.085 226.574 271.7 226.574 272.46C226.574 273.219 227.19 273.834 227.949 273.834Z" fill="#F2F2F2"/>
<path fill-rule="evenodd" clip-rule="evenodd" d="M21.4967 289.055C29.1694 301.992 38.1055 314.518 43.472 328.663C43.2558 326.996 43.0265 325.33 42.7698 323.667C41.4081 314.851 39.7158 306.099 37.9374 297.358C37.0318 292.908 36.074 288.473 35.0916 284.039C34.5632 281.658 34.0413 279.275 33.5021 276.896C33.3714 276.319 33.2592 275.313 33.0957 274.292C38.3111 291.493 43.3405 308.706 47.0193 326.32C47.5019 328.632 47.9129 330.939 48.2495 333.243C48.3647 332.717 48.478 332.192 48.6019 331.668C50.0905 325.386 52.3233 319.153 54.9819 313.279C56.2528 310.47 57.7127 307.723 59.4316 305.162C60.5034 303.567 63.0312 301.669 64.009 300.035C58.6614 309.892 56.7306 322.226 53.6429 332.943C52.8893 335.558 52.1309 338.169 51.3879 340.784C56.0442 331.399 63.2686 323.688 73.3131 320.347C61.1547 328.421 53.8619 342.56 48.9476 357.021C48.9314 357.193 48.9122 357.364 48.8955 357.536C50.3416 354.778 52.1632 352.283 54.632 350.535C59.9159 346.795 65.7776 347.884 70.9032 351.093C66.8804 348.523 59.6102 350.863 56.2254 353.476C53.8023 355.345 51.7314 357.854 49.9331 360.301C49.5023 360.888 48.9144 361.572 48.2933 362.303C47.4226 367.983 46.0037 373.625 43.9947 379.222C44.3263 377.615 44.0866 375.046 44.1785 373.849C44.1885 373.719 44.1966 373.589 44.2065 373.46C43.9012 374.685 43.6061 375.897 43.3221 377.089C43.8867 374.814 44.1936 372.44 44.4332 370.041C44.4949 369.01 44.5551 367.979 44.6187 366.948C44.5985 364.992 44.5184 363.027 44.3827 361.06C43.9019 359.148 43.3635 357.344 42.9195 355.845C41.3172 350.433 38.9684 345.248 36.0775 340.411C33.4398 335.997 30.2825 331.998 26.6375 328.383C24.6726 326.434 22.6162 324.578 20.5887 322.696C19.8556 322.016 18.5452 320.343 17.4119 319.471C25.6657 324.045 34.1612 328.992 40.1824 336.361C39.4765 333.636 38.7098 330.951 37.8987 328.319C33.784 314.965 28.5885 301.125 21.4967 289.055Z" fill="#C7D1D9"/>
<path fill-rule="evenodd" clip-rule="evenodd" d="M29.7834 362.268C29.7834 377.199 30.959 389.302 46.7371 389.302C62.5152 389.302 63.6907 377.199 63.6907 362.268" fill="#C5CFD6"/>
<path d="M318.912 170.051C318.912 169.418 318.399 168.905 317.766 168.905C317.134 168.905 316.621 169.418 316.621 170.051V177.84C316.621 178.473 317.134 178.986 317.766 178.986C318.399 178.986 318.912 178.473 318.912 177.84V170.051Z" fill="#C7D1D9"/>
<path d="M324.869 163.177C324.869 162.545 324.356 162.032 323.723 162.032C323.09 162.032 322.578 162.545 322.578 163.177V177.84C322.578 178.473 323.09 178.985 323.723 178.985C324.356 178.985 324.869 178.473 324.869 177.84V163.177Z" fill="#C7D1D9"/>
<path d="M330.825 159.97C330.825 159.337 330.312 158.824 329.68 158.824C329.047 158.824 328.534 159.337 328.534 159.97V177.84C328.534 178.473 329.047 178.986 329.68 178.986C330.312 178.986 330.825 178.473 330.825 177.84V159.97Z" fill="#C7D1D9"/>
<path d="M336.324 163.177C336.324 162.545 335.811 162.032 335.178 162.032C334.546 162.032 334.033 162.545 334.033 163.177V177.84C334.033 178.473 334.546 178.985 335.178 178.985C335.811 178.985 336.324 178.473 336.324 177.84V163.177Z" fill="#C7D1D9"/>
<path d="M342.28 156.762C342.28 156.13 341.768 155.617 341.135 155.617C340.502 155.617 339.989 156.13 339.989 156.762V177.84C339.989 178.473 340.502 178.985 341.135 178.985C341.768 178.985 342.28 178.473 342.28 177.84V156.762Z" fill="#C5CFD6"/>
<path fill-rule="evenodd" clip-rule="evenodd" d="M-4.00543e-05 267.851C-4.00543e-05 263.33 3.71226 259.63 8.24768 259.63V267.851L2.61119 273.834C1.00783 272.371 -4.00543e-05 270.225 -4.00543e-05 267.851Z" fill="#F2F2F2"/>
<path fill-rule="evenodd" clip-rule="evenodd" d="M8.05756 267.419H16.4955C16.4955 269.573 15.6057 271.59 14.1991 273.056C12.652 274.659 10.4489 275.667 8.05756 275.667C5.85483 275.667 3.83859 274.797 2.29107 273.423L8.05756 267.419Z" fill="#AFB9C5"/>
<path fill-rule="evenodd" clip-rule="evenodd" d="M16.4955 267.878C16.4955 263.342 12.7832 259.63 8.24776 259.63V267.878H16.4955ZM4.1239 259.63L7.42299 267.053L4.19617e-05 263.754C0.734089 261.83 2.3824 260.364 4.1239 259.63Z" fill="#C5CFD6"/>
<path fill-rule="evenodd" clip-rule="evenodd" d="M352.881 288.424C352.085 289.25 350.958 289.768 349.704 289.768C347.295 289.768 345.342 287.866 345.342 285.518C345.342 283.171 347.295 281.269 349.704 281.269V273.376C342.85 273.376 337.24 278.841 337.24 285.518C337.24 292.196 342.85 297.661 349.704 297.661C353.304 297.661 356.558 296.177 358.776 293.817L352.881 288.424Z" fill="#F2F2F2"/>
<path fill-rule="evenodd" clip-rule="evenodd" d="M349.612 273.376V281.418C352.003 281.418 353.942 283.356 353.942 285.748H361.983C361.983 278.944 356.415 273.376 349.612 273.376Z" fill="#AFB9C5"/>
<path fill-rule="evenodd" clip-rule="evenodd" d="M353.624 285.748C353.624 287.114 352.95 288.328 351.903 289.112L357.053 295.37C360.051 293.129 361.983 289.656 361.983 285.748H353.624Z" fill="#C5CFD6"/>
<path fill-rule="evenodd" clip-rule="evenodd" d="M291.819 160.843C291.193 161.482 290.305 161.883 289.318 161.883C287.421 161.883 285.884 160.411 285.884 158.595C285.884 156.779 287.421 155.308 289.318 155.308V149.202C283.922 149.202 279.506 153.43 279.506 158.595C279.506 163.76 283.922 167.988 289.318 167.988C292.152 167.988 294.714 166.841 296.46 165.014L291.819 160.843Z" fill="#F2F2F2"/>
<path fill-rule="evenodd" clip-rule="evenodd" d="M289.128 149.202V155.456C290.988 155.456 292.496 156.964 292.496 158.824H298.751C298.751 153.533 294.42 149.202 289.128 149.202Z" fill="#AFB9C5"/>
<path fill-rule="evenodd" clip-rule="evenodd" d="M292.671 158.824C292.671 159.865 292.181 160.79 291.419 161.387L295.165 166.156C297.345 164.448 298.751 161.802 298.751 158.824H292.671Z" fill="#C5CFD6"/>
<path fill-rule="evenodd" clip-rule="evenodd" d="M34.827 159.735C34.8251 159.739 34.8233 159.744 34.8206 159.749C34.8233 159.745 34.827 159.726 34.827 159.735Z" fill="#C5CFD6"/>
<path fill-rule="evenodd" clip-rule="evenodd" d="M34.8227 159.742C34.8227 159.742 34.8218 159.744 34.8218 159.746C34.8218 159.742 34.83 159.728 34.8227 159.742Z" fill="#C5CFD6"/>
<path fill-rule="evenodd" clip-rule="evenodd" d="M34.8545 159.664C34.8481 159.682 34.8398 159.7 34.8325 159.718C34.8362 159.709 34.8398 159.702 34.8435 159.692C34.7482 159.931 34.8087 159.776 34.8545 159.664Z" fill="#C5CFD6"/>
<path fill-rule="evenodd" clip-rule="evenodd" d="M34.834 159.719C34.8303 159.727 34.8267 159.736 34.823 159.745C34.7964 159.796 34.834 159.719 34.834 159.719Z" fill="#C5CFD6"/>
<path fill-rule="evenodd" clip-rule="evenodd" d="M34.8232 159.742C34.8232 159.741 34.8232 159.741 34.8242 159.74C34.8232 159.741 34.8232 159.741 34.8232 159.742Z" fill="#C5CFD6"/>
<path fill-rule="evenodd" clip-rule="evenodd" d="M34.8189 159.748C34.8134 159.759 34.8446 159.706 34.8189 159.748V159.748Z" fill="#C5CFD6"/>
<path fill-rule="evenodd" clip-rule="evenodd" d="M34.8228 159.742L34.8246 159.74C34.8237 159.741 34.8237 159.742 34.8228 159.742Z" fill="#C5CFD6"/>
<path d="M52.6938 138.205H16.9537C15.9414 138.205 15.1208 139.026 15.1208 140.038V162.49C15.1208 163.502 15.9414 164.323 16.9537 164.323H52.6938C53.706 164.323 54.5266 163.502 54.5266 162.49V140.038C54.5266 139.026 53.706 138.205 52.6938 138.205Z" fill="#C7D1D9"/>
<path fill-rule="evenodd" clip-rule="evenodd" d="M29.8751 145.536L18.3282 164.323H41.4219L29.8751 145.536Z" fill="#AFB9C5"/>
<path fill-rule="evenodd" clip-rule="evenodd" d="M41.2158 150.546L31.1123 164.323H51.3192L41.2158 150.546Z" fill="#C5CFD6"/>
<path d="M45.8207 150.577C47.8452 150.577 49.4863 148.935 49.4863 146.911C49.4863 144.887 47.8452 143.245 45.8207 143.245C43.7962 143.245 42.155 144.887 42.155 146.911C42.155 148.935 43.7962 150.577 45.8207 150.577Z" fill="white"/>
<path fill-rule="evenodd" clip-rule="evenodd" d="M300.122 335.228C300.124 335.232 300.126 335.237 300.129 335.242C300.126 335.238 300.122 335.219 300.122 335.228Z" fill="#C5CFD6"/>
<path fill-rule="evenodd" clip-rule="evenodd" d="M300.127 335.235C300.127 335.236 300.127 335.237 300.127 335.239C300.127 335.235 300.119 335.221 300.127 335.235Z" fill="#C5CFD6"/>
<path fill-rule="evenodd" clip-rule="evenodd" d="M300.095 335.157C300.101 335.176 300.109 335.193 300.117 335.211C300.113 335.202 300.109 335.195 300.106 335.186C300.201 335.424 300.14 335.269 300.095 335.157Z" fill="#C5CFD6"/>
<path fill-rule="evenodd" clip-rule="evenodd" d="M300.115 335.212C300.119 335.22 300.122 335.23 300.126 335.238C300.153 335.289 300.115 335.212 300.115 335.212Z" fill="#C5CFD6"/>
<path fill-rule="evenodd" clip-rule="evenodd" d="M300.126 335.235C300.126 335.234 300.126 335.234 300.125 335.233C300.126 335.234 300.126 335.234 300.126 335.235Z" fill="#C5CFD6"/>
<path fill-rule="evenodd" clip-rule="evenodd" d="M300.13 335.241C300.136 335.252 300.105 335.199 300.13 335.241V335.241Z" fill="#C5CFD6"/>
<path fill-rule="evenodd" clip-rule="evenodd" d="M300.126 335.235L300.125 335.233C300.125 335.234 300.125 335.235 300.126 335.235Z" fill="#C5CFD6"/>
<path d="M269.426 299.952H330.825C331.837 299.952 332.658 300.773 332.658 301.785V341.191C332.658 342.203 331.837 343.024 330.825 343.024H269.426C268.413 343.024 267.593 342.203 267.593 341.191V301.785C267.593 300.773 268.413 299.952 269.426 299.952Z" fill="#C7D1D9"/>
<path fill-rule="evenodd" clip-rule="evenodd" d="M308.499 312.324L327.31 343.024H289.687L308.499 312.324Z" fill="#AFB9C5"/>
<path fill-rule="evenodd" clip-rule="evenodd" d="M289.103 320.547L305.734 343.024H272.472L289.103 320.547Z" fill="#C5CFD6"/>
<path d="M282.026 320.571C278.61 320.571 275.84 317.802 275.84 314.385C275.84 310.969 278.61 308.2 282.026 308.2C285.443 308.2 288.212 310.969 288.212 314.385C288.212 317.802 285.443 320.571 282.026 320.571Z" fill="white"/>
<path fill-rule="evenodd" clip-rule="evenodd" d="M234.536 224.409C231.881 229.358 232.196 241.912 235.628 242.797C236.997 243.15 239.912 242.286 242.879 240.497L241.017 253.673H252.014L248.228 236.027C250.339 233.549 251.768 230.512 251.529 227.109C250.841 217.303 237.191 219.46 234.536 224.409Z" fill="#EAC7A8"/>
<path fill-rule="evenodd" clip-rule="evenodd" d="M233.498 226.631C233.607 225.99 233.873 225.277 234.088 224.671C234.365 223.888 234.784 223.183 235.245 222.518C236.113 221.266 237.155 220.136 238.305 219.198C240.406 217.484 243.08 216.496 245.71 216.817C247.038 216.979 248.327 217.485 249.424 218.328C250.415 219.09 251.368 220.211 252.652 220.292C254.048 220.379 255.328 219.147 256.448 218.385C257.711 217.527 259.054 216.902 260.53 216.659C263.003 216.252 265.325 217.087 267.029 219.115C268.843 221.274 270.161 224.44 268.97 227.3C268.749 227.832 268.464 228.28 268.055 228.651C267.68 228.992 267.108 229.354 266.956 229.899C266.795 230.477 267.277 231.224 267.464 231.746C267.732 232.494 267.952 233.279 267.873 234.092C267.745 235.427 266.906 236.702 266.02 237.579C265.118 238.472 264.009 238.984 262.823 239.22C262.032 239.378 261.223 239.465 260.419 239.406C260.019 239.376 259.667 239.266 259.28 239.177C258.904 239.092 258.694 239.191 258.375 239.398C256.892 240.356 255.297 240.727 253.585 240.585C252.14 240.464 250.475 240.114 249.296 239.124C247.987 238.025 248.013 236.508 248.321 234.888C247.995 235.05 247.092 235.15 247.631 234.505C247.845 234.25 248.249 234.146 248.523 233.996C248.842 233.821 249.167 233.595 249.415 233.31C250.416 232.158 249.405 229.814 248.146 229.428C246.277 228.854 245.858 231.498 244.523 232.182C243.756 232.576 242.953 232.038 242.378 231.489C241.608 230.754 241.083 229.78 240.63 228.789C240.256 227.972 239.909 227.145 239.529 226.332C239.351 225.953 238.736 224.881 239.045 224.452C237.706 224.185 236.214 224.741 235.061 225.471C234.584 225.773 234.22 226.106 233.966 226.638C233.912 226.752 233.793 227.092 233.644 227.105C233.367 227.131 233.471 226.793 233.498 226.631Z" fill="#B58143"/>
<path fill-rule="evenodd" clip-rule="evenodd" d="M260.883 291.704C260.057 302.98 206.831 336.179 206.521 337.111C206.383 337.525 211.905 350.611 223.088 376.371L218.435 378.179C201.283 350.898 193.147 335.804 194.028 332.897C195.29 328.735 209.055 315.044 235.325 291.824L260.883 291.704Z" fill="#EAC7A8"/>
<path fill-rule="evenodd" clip-rule="evenodd" d="M260.883 291.704C260.057 302.98 206.831 336.179 206.521 337.111C206.383 337.525 211.905 350.611 223.088 376.371L218.435 378.179C201.283 350.898 193.147 335.804 194.028 332.897C195.29 328.735 209.055 315.044 235.325 291.824L260.883 291.704Z" fill="black" fill-opacity="0.1"/>
<path fill-rule="evenodd" clip-rule="evenodd" d="M221.864 370.553L214.267 373.318C198.25 355.246 191.971 340.334 193.116 332.736C193.879 327.671 207.597 314.003 234.27 291.732L261.427 291.732C260.501 317.846 211.168 337.21 210.508 338.323C209.848 339.436 216.342 350.335 221.864 370.553Z" fill="#56919C"/>
<path fill-rule="evenodd" clip-rule="evenodd" d="M224.8 375.483C225.749 376.593 226.341 377.468 226.573 378.106C226.855 378.882 227.139 380.063 227.422 381.646C226.521 381.974 218.426 384.92 203.137 390.485C201.746 388.629 201.701 387.37 203 386.709C204.299 386.047 205.374 385.486 206.224 385.025L215.68 375.884C215.862 375.708 216.152 375.713 216.328 375.895C216.331 375.898 216.334 375.902 216.337 375.905L217.703 377.401C219.176 377.53 220.306 377.451 221.092 377.165C221.732 376.932 222.521 376.352 223.459 375.426L223.459 375.426C223.82 375.07 224.4 375.074 224.755 375.434C224.771 375.45 224.786 375.466 224.8 375.483Z" fill="#E4E4E4"/>
<path fill-rule="evenodd" clip-rule="evenodd" d="M254.763 291.704L278.473 348.626L301.777 396.748H296.279L236.126 291.704H254.763Z" fill="#EAC7A8"/>
<path fill-rule="evenodd" clip-rule="evenodd" d="M302.106 394.527C302.618 395.895 302.875 396.919 302.875 397.598C302.875 398.425 302.737 399.63 302.462 401.216C301.503 401.216 292.889 401.216 276.618 401.216C275.946 398.995 276.334 397.797 277.781 397.62C279.228 397.443 280.43 397.283 281.387 397.14L293.399 391.785C293.63 391.682 293.901 391.786 294.004 392.017C294.006 392.021 294.007 392.025 294.009 392.029L294.781 393.902C296.121 394.527 297.209 394.839 298.047 394.839C298.727 394.839 299.667 394.565 300.866 394.015L300.866 394.015C301.326 393.804 301.87 394.006 302.081 394.466C302.09 394.486 302.098 394.506 302.106 394.527Z" fill="#E4E4E4"/>
<path fill-rule="evenodd" clip-rule="evenodd" d="M299.672 386.751L287.456 389.042C278.01 375.155 238.478 318.212 234.144 291.704H261.341C275.815 310.867 290.669 372.634 299.672 386.751Z" fill="#89C5CC"/>
<path fill-rule="evenodd" clip-rule="evenodd" d="M194.941 264.857C192.956 264.448 188.11 260.844 187.275 261.576C186.04 262.659 187.141 265.983 188.439 267.636C190.865 270.727 192.873 271.783 197.836 273.167C200.431 273.891 203.237 275.341 206.253 277.518L206.651 270.508L199.665 266.67C198.685 262.94 197.513 261.063 196.15 261.04C195.103 260.553 196.926 265.266 194.941 264.857ZM206.965 248.881C208.248 251.158 209.495 253.61 208.841 254.312C208.188 255.013 206.558 254.033 205.779 255.199C205.259 255.976 208.043 257.203 214.131 258.881L225.687 269.462L231.56 263.158L215.656 254.447C213.011 251.307 210.405 248.868 207.838 247.13C207.054 246.802 205.682 246.604 206.965 248.881Z" fill="#DCAE92"/>
<mask id="mask0" mask-type="alpha" maskUnits="userSpaceOnUse" x="215" y="256" width="27" height="15">
<path fill-rule="evenodd" clip-rule="evenodd" d="M238.791 259.515C233.279 260.329 225.758 260.329 217.142 256.599L215.154 263.943C221.403 268.446 229.693 271.647 236.303 270.409C241.512 269.433 243.183 262.681 238.791 259.515Z" fill="white"/>
</mask>
<g mask="url(#mask0)">
<path fill-rule="evenodd" clip-rule="evenodd" d="M239.306 261.218C233.735 261.159 226.306 259.982 218.38 254.951L215.267 261.893C220.735 267.319 228.422 271.777 235.144 271.588C240.442 271.439 243.149 265.032 239.306 261.218Z" fill="#28AA4D"/>
</g>
<mask id="mask1" mask-type="alpha" maskUnits="userSpaceOnUse" x="197" y="243" width="72" height="67">
<path fill-rule="evenodd" clip-rule="evenodd" d="M238.935 243.593C238.233 252.605 234.703 262.537 231.805 272.35C225.891 273.825 215.974 272.086 202.053 267.132C198.6 274.276 197.004 279.368 197.264 282.41C209.208 288.649 219.444 291.43 227.877 291.613C227.606 296.615 228.215 301.377 230.261 305.728C234.467 314.672 259.095 306.389 267.376 308.019C272.562 291.178 262.535 284.334 262.527 273.558C262.518 261.757 253.043 243.593 251.648 243.593H238.935Z" fill="white"/>
</mask>
<g mask="url(#mask1)">
<path fill-rule="evenodd" clip-rule="evenodd" d="M238.935 243.593C238.233 252.605 234.703 262.537 231.805 272.35C225.891 273.825 215.974 272.086 202.053 267.132C198.6 274.276 197.004 279.368 197.264 282.41C209.208 288.649 219.444 291.43 227.877 291.613C227.606 296.615 228.215 301.377 230.261 305.728C234.467 314.672 259.095 306.389 267.376 308.019C272.562 291.178 262.535 284.334 262.527 273.558C262.518 261.757 253.043 243.593 251.648 243.593H238.935Z" fill="#43D26C"/>
</g>
<path fill-rule="evenodd" clip-rule="evenodd" d="M139.36 224.409C142.016 229.358 141.7 241.912 138.269 242.797C136.9 243.15 133.985 242.286 131.018 240.497L132.88 253.673H121.883L125.668 236.027C123.557 233.549 122.128 230.512 122.367 227.109C123.055 217.303 136.705 219.46 139.36 224.409Z" fill="#915B3C"/>
<mask id="mask2" mask-type="alpha" maskUnits="userSpaceOnUse" x="115" y="216" width="25" height="25">
<path fill-rule="evenodd" clip-rule="evenodd" d="M139.028 221.622C139.226 221.051 140.576 219.283 138.172 217.598C137.74 217.295 137.026 217.597 136.407 217.406C135.942 217.262 135.785 216.613 135.252 216.5C134.698 216.382 134.095 216.915 133.47 216.868C133.087 216.839 132.495 216.242 132.096 216.21C131.384 216.152 130.737 216.825 130.042 216.868C129.638 216.893 129.171 216.244 128.77 216.21C127.796 216.126 126.909 216.58 126.051 216.718C125.26 216.845 124.892 218.466 124.309 218.849C122.48 220.052 121.048 220.388 119.564 221.622C117.8 223.089 117.462 224.18 116.732 225.158C116.001 226.135 115.549 229.579 115.976 231.787C116.227 233.089 116.882 236.644 118.346 238.021C120.349 239.905 124.424 240.464 124.785 240.212C126.461 239.048 130.216 232.608 132.88 230.332C134.839 228.658 137.801 225.158 139.028 221.622Z" fill="white"/>
</mask>
<g mask="url(#mask2)">
<path fill-rule="evenodd" clip-rule="evenodd" d="M139.028 221.622C139.226 221.051 140.576 219.283 138.172 217.598C137.74 217.295 137.026 217.597 136.407 217.406C135.942 217.262 135.785 216.613 135.252 216.5C134.698 216.382 134.095 216.915 133.47 216.868C133.087 216.839 132.495 216.242 132.096 216.21C131.384 216.152 130.737 216.825 130.042 216.868C129.638 216.893 129.171 216.244 128.77 216.21C127.796 216.126 126.909 216.58 126.051 216.718C125.26 216.845 124.892 218.466 124.309 218.849C122.48 220.052 121.048 220.388 119.564 221.622C117.8 223.089 117.462 224.18 116.732 225.158C116.001 226.135 115.549 229.579 115.976 231.787C116.227 233.089 116.882 236.644 118.346 238.021C120.349 239.905 124.424 240.464 124.785 240.212C126.461 239.048 130.216 232.608 132.88 230.332C134.839 228.658 137.801 225.158 139.028 221.622Z" fill="#FFA434"/>
<path fill-rule="evenodd" clip-rule="evenodd" d="M131.102 215.523C129.608 221.828 128.449 226.243 127.626 228.768C126.792 231.329 126.112 233.499 125.528 235.274C126.731 232.609 128.278 229.19 129.678 225.682C130.681 223.167 131.748 219.947 132.88 216.021H134.242C132.096 222.135 130.483 226.405 129.401 228.83C127.659 232.732 126.409 235.695 125.412 237.684C127.081 235.237 129.649 231.245 132.386 225.876C133.424 223.841 134.646 220.725 136.051 216.529L137.318 217.071C135.191 222.383 133.546 226.087 132.386 228.184C128.604 235.018 124.993 239.141 123.731 240.311C123.513 240.514 123.44 240.561 123.492 240.458C123.475 240.455 123.462 240.444 123.454 240.426C123.365 240.561 123.277 240.678 123.188 240.779C121.915 242.235 125.172 234.12 127.573 225.609C128.308 223.003 129.033 219.689 129.748 215.666L131.102 215.523Z" fill="black" fill-opacity="0.2"/>
</g>
<path fill-rule="evenodd" clip-rule="evenodd" d="M120.967 291.704L143.456 348.626L158.54 396.748H164.496L140.52 291.704L120.967 291.704Z" fill="#915B3C"/>
<path fill-rule="evenodd" clip-rule="evenodd" d="M116.438 291.704C116.199 311.707 112.706 338.637 112.148 339.884C111.776 340.715 98.9343 351.286 73.6228 371.596L77.7252 375.986C107.59 358.573 123.214 348.705 124.596 346.382C126.669 342.899 133.418 310.84 138.837 291.704H116.438Z" fill="#915B3C"/>
<path fill-rule="evenodd" clip-rule="evenodd" d="M73.0741 370.131C71.6963 370.618 70.7472 371.079 70.2268 371.516C69.5938 372.047 68.7587 372.928 67.7213 374.158C68.3374 374.892 73.8748 381.491 84.3333 393.955C86.4658 393.042 87.1348 391.975 86.3403 390.753C85.5459 389.53 84.8957 388.507 84.3898 387.682L80.7708 375.038C80.7012 374.795 80.4475 374.654 80.2042 374.724C80.2001 374.725 80.1959 374.726 80.1918 374.728L78.2607 375.34C76.9209 374.716 75.9819 374.083 75.4436 373.441C75.0062 372.92 74.6127 372.024 74.2631 370.752L74.2631 370.752C74.1289 370.264 73.6246 369.977 73.1365 370.111C73.1155 370.117 73.0947 370.123 73.0741 370.131Z" fill="#E4E4E4"/>
<path fill-rule="evenodd" clip-rule="evenodd" d="M156.101 394.527C155.588 395.895 155.332 396.919 155.332 397.599C155.332 398.425 155.47 399.631 155.745 401.216C156.704 401.216 165.318 401.216 181.589 401.216C182.26 398.996 181.873 397.797 180.426 397.62C178.979 397.443 177.777 397.283 176.82 397.14L164.808 391.785C164.577 391.682 164.306 391.786 164.203 392.017C164.201 392.021 164.199 392.025 164.198 392.029L163.425 393.902C162.086 394.527 160.997 394.84 160.16 394.84C159.48 394.84 158.54 394.565 157.341 394.015L157.341 394.015C156.881 393.804 156.337 394.006 156.126 394.466C156.117 394.486 156.109 394.506 156.101 394.527Z" fill="#E4E4E4"/>
<path fill-rule="evenodd" clip-rule="evenodd" d="M136.087 391.792L164.407 388.718L141.586 291.704H118.054L136.087 391.792Z" fill="#C21B15"/>
<path fill-rule="evenodd" clip-rule="evenodd" d="M79.4805 364.514L98.0562 386.501C117.622 365.132 129.028 351.189 132.276 344.671C135.524 338.154 138.444 320.498 141.035 291.704H112.48C111.064 317.036 110.11 330.291 109.617 331.47C109.124 332.648 99.0786 343.663 79.4805 364.514Z" fill="#FF4133"/>
<path fill-rule="evenodd" clip-rule="evenodd" d="M97.5843 274.499L107.618 274.536C99.9759 299.295 95.9194 312.258 95.4482 313.426C94.3879 316.054 96.6316 320.055 97.591 322.206C94.466 323.604 94.799 318.426 90.8569 320.26C87.2588 321.934 84.5217 324.967 80.3645 322.402C79.8534 322.086 79.2933 320.899 80.6465 319.971C84.0179 317.659 88.8763 313.613 89.5327 312.282C90.4279 310.466 93.1117 297.871 97.5843 274.499ZM161.057 285.959L174.037 298.621C177.813 300.232 180.908 302.011 183.32 303.958C183.863 304.612 184.453 305.866 181.901 305.305C179.348 304.744 176.639 304.268 176.159 305.098C175.679 305.928 177.093 307.2 176.206 308.287C175.615 309.011 173.627 306.707 170.243 301.376L156.745 293.418L161.057 285.959Z" fill="#915B3C"/>
<path fill-rule="evenodd" clip-rule="evenodd" d="M128.158 246.036L132.12 245.356C138.362 267.42 170.431 282.459 172.4 290.707C173.122 293.732 170.945 295.261 172.07 296.182L166.919 299.952C166.047 298.935 164.186 300.796 160.3 299.494C156.413 298.192 128.158 272.161 128.158 246.036Z" fill="#E87613"/>
<path fill-rule="evenodd" clip-rule="evenodd" d="M121.111 241.43L133.453 242.293C134.462 242.363 135.224 243.239 135.153 244.249L134.824 248.943C134.356 278.175 151.253 285.627 147.491 297.349C144.385 307.025 114.656 317.428 109.511 307.942C107.429 304.102 106.484 299.458 106.377 294.409C105.063 298.288 104.022 301.628 103.257 304.428C101.938 309.257 96.822 310.025 96.822 311.885L90.0819 310.025C90.5391 307.497 87.3617 306.267 88.2136 300.62C92.0308 275.319 102.287 256.979 118.982 245.601L119.155 243.13C119.226 242.12 120.101 241.359 121.111 241.43Z" fill="#FFA434"/>
</svg>
