<svg width="122" height="164" viewBox="0 0 122 164" fill="none" xmlns="http://www.w3.org/2000/svg">
<path d="M17.2171 16.9366H107.778C108.38 16.9366 108.868 17.4249 108.868 18.0273V142.84C108.868 143.442 108.38 143.93 107.778 143.93H17.2171C16.6148 143.93 16.1265 143.442 16.1265 142.84V18.0273C16.1265 17.4249 16.6148 16.9366 17.2171 16.9366Z" fill="#DBC335" stroke="#243B4A"/>
<path d="M20.2621 22.5569H104.52V126.509C104.52 132.089 99.9966 136.613 94.4162 136.613H20.2621V22.5569Z" fill="#FCFCFC" stroke="#243B4A"/>
<path d="M27.6033 36.7309V35.8967H97.346V36.7309H27.6033Z" fill="#DBC335" stroke="#243B4A"/>
<path d="M27.6034 77.4175V76.5833H97.3461V77.4175H27.6034Z" fill="#DBC335" stroke="#243B4A"/>
<path d="M27.6034 46.9026V46.0684H97.3461V46.9026H27.6034Z" fill="#DBC335" stroke="#243B4A"/>
<path d="M27.6034 87.5891V86.7549H97.3461V87.5891H27.6034Z" fill="#DBC335" stroke="#243B4A"/>
<path d="M27.6034 57.0743V56.2401H97.3461V57.0743H27.6034Z" fill="#DBC335" stroke="#243B4A"/>
<path d="M27.6034 97.7609V96.9266H97.3461V97.7609H27.6034Z" fill="#DBC335" stroke="#243B4A"/>
<path d="M27.6034 67.2458V66.4116H97.3461V67.2458H27.6034Z" fill="#DBC335" stroke="#243B4A"/>
<path d="M27.6034 107.932V107.098H97.3461V107.932H27.6034Z" fill="#DBC335" stroke="#243B4A"/>
<path d="M65.1438 122.773V121.939H97.3462V122.773H65.1438Z" fill="#DBC335" stroke="#243B4A"/>
<path d="M67.5624 14.1488L68.6615 14.1488L72.5714 14.1486C78.1518 14.1486 82.6756 18.6725 82.6756 24.2529V25.7986H42.213V24.2529C42.213 18.6725 46.7368 14.1486 52.3172 14.1486C52.3172 14.1486 52.3172 14.1486 52.3172 14.1486L56.2271 14.1488L57.3262 14.1488L56.604 13.3202C55.4189 11.9604 54.7017 10.1841 54.7017 8.23911C54.7017 3.96512 58.168 0.5 62.4443 0.5C66.7206 0.5 70.1869 3.96512 70.1869 8.23911C70.1869 10.1841 69.4697 11.9604 68.2845 13.3202L67.5624 14.1488Z" fill="#DBC335" stroke="#243B4A"/>
<path d="M51.787 107.421H28.1395V113.572H51.787V107.421Z" fill="#FCFCFC" stroke="#243B4A" stroke-width="3"/>
<path d="M49.9313 111.186H29.8892C27.4295 111.186 25.4354 113.18 25.4354 115.639V139.817C25.4354 142.277 27.4295 144.271 29.8892 144.271H49.9313C52.391 144.271 54.3851 142.277 54.3851 139.817V115.639C54.3851 113.18 52.391 111.186 49.9313 111.186Z" fill="#FCFCFC" stroke="#243B4A" stroke-width="3"/>
<path d="M54.5441 99.9982H25.2764V109.224H54.5441V99.9982Z" fill="#FCFCFC" stroke="#243B4A" stroke-width="3"/>
<path d="M26.0945 137.143V120.434H53.832V137.143H26.0945Z" fill="#FCFCFC" stroke="#243B4A"/>
<mask id="path-17-inside-1" fill="white">
<path d="M54.4911 119.775H25.4354V137.802H54.4911V119.775ZM54.173 120.093V137.484H25.7536V120.093H54.173Z"/>
</mask>
<path d="M54.4911 119.775H25.4354V137.802H54.4911V119.775ZM54.173 120.093V137.484H25.7536V120.093H54.173Z" fill="#DBC335"/>
<path d="M54.4911 119.775H55.4911V118.775H54.4911V119.775ZM25.4354 119.775V118.775H24.4354V119.775H25.4354ZM25.4354 137.802H24.4354V138.802H25.4354V137.802ZM54.4911 137.802V138.802H55.4911V137.802H54.4911ZM54.173 120.093H55.173V119.093H54.173V120.093ZM54.173 137.484V138.484H55.173V137.484H54.173ZM25.7536 137.484H24.7536V138.484H25.7536V137.484ZM25.7536 120.093V119.093H24.7536V120.093H25.7536ZM54.4911 118.775H25.4354V120.775H54.4911V118.775ZM24.4354 119.775V137.802H26.4354V119.775H24.4354ZM25.4354 138.802H54.4911V136.802H25.4354V138.802ZM55.4911 137.802V119.775H53.4911V137.802H55.4911ZM53.173 120.093V137.484H55.173V120.093H53.173ZM54.173 136.484H25.7536V138.484H54.173V136.484ZM26.7536 137.484V120.093H24.7536V137.484H26.7536ZM25.7536 121.093H54.173V119.093H25.7536V121.093Z" fill="#243B4A" mask="url(#path-17-inside-1)"/>
<path d="M64.194 135.204H55.8167C53.269 135.204 51.2038 137.27 51.2038 139.817C51.2038 142.365 53.269 144.43 55.8167 144.43H64.194C66.7416 144.43 68.8069 142.365 68.8069 139.817C68.8069 137.27 66.7416 135.204 64.194 135.204Z" fill="#FCFCFC" stroke="#243B4A" stroke-width="3"/>
<path fill-rule="evenodd" clip-rule="evenodd" d="M60.0053 135.204V144.43H55.8167C53.269 144.43 51.2038 142.365 51.2038 139.817C51.2038 137.27 53.269 135.204 55.8167 135.204H60.0053Z" fill="#DBC335" stroke="#243B4A" stroke-width="3"/>
<path d="M51.681 135.204H43.3036C40.756 135.204 38.6907 137.27 38.6907 139.817C38.6907 142.365 40.756 144.43 43.3036 144.43H51.681C54.2286 144.43 56.2938 142.365 56.2938 139.817C56.2938 137.27 54.2286 135.204 51.681 135.204Z" fill="#FCFCFC" stroke="#243B4A" stroke-width="3"/>
<path fill-rule="evenodd" clip-rule="evenodd" d="M47.4923 135.204V144.43H43.3036C40.756 144.43 38.6907 142.365 38.6907 139.817C38.6907 137.27 40.756 135.204 43.3036 135.204H47.4923Z" fill="#DBC335" stroke="#243B4A" stroke-width="3"/>
<path d="M6.61286 135.204H14.9902C17.5378 135.204 19.6031 137.27 19.6031 139.817C19.6031 142.365 17.5378 144.43 14.9902 144.43H6.61286C4.06525 144.43 2 142.365 2 139.817C2 137.27 4.06525 135.204 6.61286 135.204Z" fill="#FCFCFC" stroke="#243B4A" stroke-width="3"/>
<path fill-rule="evenodd" clip-rule="evenodd" d="M10.8015 135.204V144.43H14.9902C17.5378 144.43 19.6031 142.365 19.6031 139.817C19.6031 137.27 17.5378 135.204 14.9902 135.204H10.8015Z" fill="#DBC335" stroke="#243B4A" stroke-width="3"/>
<path d="M28.3516 113.254H18.3836V118.45H28.3516V113.254Z" fill="#FCFCFC" stroke="#243B4A" stroke-width="3"/>
<path d="M26.4958 116.382H20.2393C17.7796 116.382 15.7855 118.376 15.7855 120.836V139.817C15.7855 142.277 17.7796 144.271 20.2393 144.271H26.4958C28.9556 144.271 30.9496 142.277 30.9496 139.817V120.836C30.9496 118.376 28.9556 116.382 26.4958 116.382Z" fill="#FCFCFC" stroke="#243B4A" stroke-width="3"/>
<path d="M31.1087 110.39H15.6265V114.632H31.1087V110.39Z" fill="#FCFCFC" stroke="#243B4A" stroke-width="3"/>
<path d="M16.3386 138.31V124.252H30.3966V138.31H16.3386Z" fill="#FCFCFC" stroke="#243B4A"/>
<mask id="path-29-inside-2" fill="white">
<path d="M31.0556 123.593H15.6794V138.969H31.0556V123.593ZM30.7375 123.911V138.651H15.9976V123.911H30.7375Z"/>
</mask>
<path d="M31.0556 123.593H15.6794V138.969H31.0556V123.593ZM30.7375 123.911V138.651H15.9976V123.911H30.7375Z" fill="#DBC335"/>
<path d="M31.0556 123.593H32.0556V122.593H31.0556V123.593ZM15.6794 123.593V122.593H14.6794V123.593H15.6794ZM15.6794 138.969H14.6794V139.969H15.6794V138.969ZM31.0556 138.969V139.969H32.0556V138.969H31.0556ZM30.7375 123.911H31.7375V122.911H30.7375V123.911ZM30.7375 138.651V139.651H31.7375V138.651H30.7375ZM15.9976 138.651H14.9976V139.651H15.9976V138.651ZM15.9976 123.911V122.911H14.9976V123.911H15.9976ZM31.0556 122.593H15.6794V124.593H31.0556V122.593ZM14.6794 123.593V138.969H16.6794V123.593H14.6794ZM15.6794 139.969H31.0556V137.969H15.6794V139.969ZM32.0556 138.969V123.593H30.0556V138.969H32.0556ZM29.7375 123.911V138.651H31.7375V123.911H29.7375ZM30.7375 137.651H15.9976V139.651H30.7375V137.651ZM16.9976 138.651V123.911H14.9976V138.651H16.9976ZM15.9976 124.911H30.7375V122.911H15.9976V124.911Z" fill="#243B4A" mask="url(#path-29-inside-2)"/>
<path fill-rule="evenodd" clip-rule="evenodd" d="M115.179 101.429L115.581 101.389C115.78 98.0837 115.222 94.8365 114.571 91.6427L114.166 91.6666C114.024 93.5072 113.084 95.2507 113.515 97.1449C113.926 98.641 114.797 99.9306 115.179 101.429ZM69.2174 84.7835L69.4533 84.834C69.0139 83.9998 69.4237 83.7253 69.9209 83.0357L69.975 83.161L70.1663 82.742C70.2043 82.6356 70.2431 82.5453 70.348 82.5055C70.4505 81.9842 70.7556 81.5069 71.1618 81.2475L71.2396 81.3351C71.4007 81.1941 71.5947 81.1405 71.7795 81.0751C71.3829 80.4751 71.1277 79.6967 70.8602 79.0534C70.6425 78.3777 70.302 77.722 70.238 77.0369C70.2895 76.3785 70.9106 76.8062 71.2135 77.1346C72.1388 77.9476 72.9357 79.2353 73.5329 80.7991C74.5584 80.5318 75.1466 80.8138 75.4315 82.2177C75.6938 83.1715 75.9618 84.1497 75.9972 85.1385C76.1349 85.0912 76.3791 84.9132 76.5111 85.0528C78.7903 87.5514 81.4814 89.4763 84.084 91.583C86.0508 90.1334 87.0743 87.2655 88.156 85.1125C90.0431 81.4172 91.9301 76.0073 96.7839 76.0263C97.4272 75.9591 98.0554 75.8821 98.6627 75.6949C98.8978 75.6309 99.1885 75.5538 99.2683 75.4107C99.4121 74.9498 99.4394 74.4511 99.6923 74.0284C100.386 72.8983 101.889 72.8095 103.068 73.0549C105.068 73.4263 105.017 73.2095 105.162 75.3171C105.205 75.8175 105.592 75.8891 106.005 75.9928C106.474 76.141 106.952 76.2621 107.435 76.3597C107.385 76.3456 107.335 76.3316 107.284 76.3174C115.112 76.4417 120.31 85.5394 121.341 91.9758C122.539 98.5607 120.99 105.889 118.541 111.42C118.646 113.434 118.252 115.457 118.002 117.442C117.845 117.939 117.303 117.987 117.148 117.412L116.956 116.655L116.752 117.408C116.622 117.875 116.413 117.93 116.226 117.933C115.993 117.933 115.865 117.818 115.858 117.212L115.472 117.119C115.323 117.403 115.176 117.654 114.942 117.828C114.473 121.247 114.178 124.803 113.039 128.112C112.584 129.339 111.886 130.454 111.374 131.659C113.79 137.123 114.195 143.178 114.776 149.029C114.729 149.033 114.489 149.054 114.438 149.058L114.57 149.411C114.751 149.487 114.857 149.649 114.912 149.827C115.034 149.817 115.542 149.821 115.514 149.938C115.501 150.086 110.647 150.17 110.621 150.301C110.597 150.425 110.535 151.25 110.99 151.365C112.267 151.689 115.109 151.266 114.898 151.473C114.893 151.584 114.886 151.696 114.878 151.8C115.601 154.329 116.131 157.024 116.453 159.803C116.862 160.197 116.965 161.495 116.354 161.842C114.669 163.004 112.405 163.556 110.273 163.347C107.966 163.128 105.215 162.207 106.319 159.571C106.333 159.489 106.445 159.485 106.534 159.503C106.729 159.313 106.941 159.169 107.17 159.089C107.626 157.948 108.036 156.753 108.393 155.559C108.568 155.011 108.748 154.444 108.733 153.843C108.647 152.367 108.495 151.757 107.471 150.594C106.837 150.899 105.629 148.688 105.352 148.224C104.964 147.308 104.777 147.575 104.792 149.023C104.55 149.871 104.454 151.288 103.848 151.919C103.519 154.117 105.775 155.124 104.321 157.561C104.813 157.595 104.859 157.792 104.85 158.391C104.852 158.821 104.863 159.272 104.782 159.674C104.684 160.167 104.229 160.3 103.547 160.445C102.993 160.568 102.461 160.708 101.912 160.84C101.357 161.025 100.772 161.01 100.543 160.447C97.7939 161.381 89.8679 161.274 87.2464 160.037C86.5225 159.747 86.0119 159.583 86.6767 158.765C87.0427 156.433 93.6509 159.062 94.4949 156.503C94.6153 156.171 96.2048 154.091 96.6358 153.843C96.4598 153.589 96.6429 151.548 96.6358 151.473C96.6165 151.269 98.2103 151.771 99.1201 151.569C99.5604 151.472 99.7637 150.826 99.6931 150.587C99.6651 150.492 96.18 149.667 96.15 149.567C95.506 147.427 94.4384 144.219 94.2788 142.532C94.048 138.497 94.2645 135.096 93.0375 130.997C91.3223 124.505 87.9903 118.413 87.9454 111.544C88.0026 110.405 87.6875 109.193 87.9732 108.076L87.6184 107.891C87.5673 107.95 87.475 107.948 87.4566 107.868C87.2238 107.489 87.4847 107.036 87.5383 106.621C87.4165 106.491 87.4773 106.372 87.6243 106.3C89.2004 100.727 91.8366 99.9128 91.111 92.9462C89.9269 95.4594 87.3039 98.0034 84.4126 97.6294C81.5 98.0655 74.7057 90.9583 73.3935 88.6607C73.153 88.6794 73.1501 88.5067 73.1135 88.344C71.915 88.4852 70.7932 87.5429 70.7708 86.3901C69.7191 87.0432 68.5952 86.1105 69.1524 84.9713C69.1743 84.9098 69.1966 84.847 69.2174 84.7835Z" fill="#FDBD96"/>
<path fill-rule="evenodd" clip-rule="evenodd" d="M106.735 159.401L106.451 160.324C106.197 161.152 106.501 161.849 107.279 162.286C109.696 163.57 112.886 163.479 115.49 162.158C115.71 162.044 115.923 161.923 116.129 161.794L116.19 161.756L116.242 161.723L116.267 161.706C116.374 161.636 116.442 161.572 116.489 161.482L116.495 161.469L116.498 161.463L116.501 161.455C116.512 161.422 116.523 161.388 116.532 161.353L116.539 161.326L116.546 161.299C116.594 161.109 116.609 160.937 116.62 160.6L116.625 160.44L116.638 160.047L116.404 160.363C116.308 160.493 116.178 160.603 115.963 160.747L115.869 160.81L115.686 160.93L115.681 160.934C115.219 161.243 114.702 161.503 114.133 161.719C112.071 162.486 109.723 162.39 107.895 161.412L107.841 161.383L107.697 161.296L107.653 161.269C107.375 161.098 107.21 160.971 107.082 160.813L107.072 160.801L107.062 160.788L107.024 160.738L106.96 160.741C106.79 160.747 106.685 160.594 106.691 160.377L106.691 160.365L106.735 159.401ZM104.383 157.494L104.206 157.606C102.234 158.863 100.435 159.655 98.6012 159.978C97.554 160.152 96.4471 160.199 95.1803 160.146L95.0328 160.139L94.9109 160.133C94.151 160.094 93.4499 160.031 92.1601 159.894L91.6766 159.842L91.0732 159.764L90.8162 159.73C89.6766 159.576 88.9515 159.459 88.1974 159.295L88.1162 159.277L88.1139 159.276C88.0934 159.261 88.071 159.247 88.0386 159.229L88.0104 159.213C87.9342 159.171 87.9057 159.149 87.8912 159.122L87.8893 159.119L87.8529 159.045L87.7408 159.052L87.739 159.051C87.7158 159.039 87.6923 159.026 87.6684 159.014L87.6323 158.996L87.5956 158.978L87.5804 158.97L87.5369 158.962L87.4901 158.953C87.4026 158.936 87.3186 158.915 87.1945 158.882L87.0953 158.855L87.059 158.845L87.0233 158.857C86.7338 158.956 86.6572 159.23 86.8254 159.441L86.8327 159.45L86.838 159.456L86.8387 159.462C86.8488 159.531 86.8966 159.582 86.9687 159.628L86.9792 159.635L86.9948 159.644L87.0076 159.651L87.0122 159.658C87.0229 159.671 87.035 159.684 87.0486 159.695L87.0591 159.704L87.0701 159.712L87.075 159.715L87.1736 159.779L87.2062 159.8C87.2795 159.845 87.3345 159.874 87.3936 159.894L87.407 159.899L87.4077 159.9C87.6497 160.135 88.0224 160.263 88.5817 160.369L88.6403 160.38L88.6695 160.385L88.7581 160.401C91.6493 160.919 94.6167 161.061 97.5641 160.826C98.0224 160.789 98.4781 160.743 98.9304 160.689L99.0811 160.67L99.2601 160.647L99.4555 160.624L99.5066 160.617L99.5571 160.611C100.005 160.549 100.268 160.461 100.503 160.252L100.516 160.241L100.533 160.225C100.629 160.133 100.813 160.196 100.816 160.315L100.816 160.322L100.815 160.329C100.803 160.507 100.912 160.619 101.087 160.651C101.206 160.673 101.357 160.661 101.54 160.625C101.612 160.61 101.686 160.593 101.764 160.572L101.819 160.557L101.896 160.535C101.907 160.531 101.918 160.528 101.929 160.525L102.096 160.474L102.302 160.418C102.38 160.396 102.466 160.372 102.576 160.341L103.161 160.176L103.303 160.136C103.427 160.102 103.532 160.074 103.642 160.045L103.695 160.032L103.824 160.007L103.869 159.997L103.911 159.988C104.345 159.891 104.419 159.772 104.428 159.226L104.429 159.178L104.452 158.969L104.466 158.848C104.482 158.714 104.497 158.601 104.514 158.492L104.523 158.43L104.527 158.409L104.54 158.332C104.541 158.327 104.56 158.238 104.567 158.2C104.578 158.147 104.586 158.098 104.592 158.051C104.604 157.942 104.603 157.853 104.579 157.782C104.55 157.695 104.487 157.639 104.404 157.629L104.394 157.628L104.391 157.627L104.383 157.494Z" fill="white"/>
<path fill-rule="evenodd" clip-rule="evenodd" d="M115.057 106.846L114.756 107.008C113.6 107.632 112.329 108.151 110.874 108.613L110.755 108.65C109.671 108.99 108.553 109.282 107.012 109.643L106.955 109.656L106.62 109.734L106.269 109.815C101.557 110.958 96.6566 110.943 92.0187 109.755L91.9182 109.732C90.8554 109.493 90.0745 109.254 89.3506 108.919C88.8192 108.673 88.3881 108.386 88.0767 108.044L88.0566 108.022L87.9015 107.848L87.8457 108.074C87.7672 108.393 87.7312 108.732 87.7277 109.118V109.165L87.7315 109.215L87.7361 109.269C87.7517 109.448 87.7731 109.62 87.8116 109.885L87.8195 109.94L87.8841 110.376C87.9197 110.621 87.9397 110.778 87.955 110.939L87.9603 110.997L87.9636 111.036L87.9665 111.104C88.0385 112.705 88.3095 114.345 88.7727 116.154L88.7939 116.236L88.8261 116.36L88.8683 116.52C89.1927 117.74 89.5372 118.834 90.1833 120.745L90.2693 120.999L90.7096 122.294C90.7771 122.493 90.8329 122.658 90.8835 122.809L90.9049 122.873L91.0992 123.457L91.2146 123.772L91.3195 124.059C92.4256 127.094 93.1391 129.301 93.6878 131.527L93.7259 131.682C94.416 134.525 94.7487 137.144 94.6934 139.701C94.6416 142.727 95.2207 145.844 96.363 149.14L96.4278 149.326L96.5983 149.319C99.0702 149.229 101.5 149.487 103.795 150.096L103.869 150.116L103.99 150.149L104.021 150.025C104.03 149.978 104.188 149.106 104.281 148.7L104.287 148.676L104.299 148.625L104.318 148.548C104.527 147.725 104.78 147.269 105.035 147.311C105.423 147.375 105.977 147.962 106.575 148.872C106.787 149.195 106.994 149.542 107.172 149.869L107.213 149.944L107.265 150.041C107.375 150.25 107.456 150.419 107.465 150.452L107.51 150.665L107.669 150.518C107.736 150.456 107.843 150.417 108.009 150.389L108.049 150.382L108.251 150.354L108.289 150.348L108.319 150.343L108.438 150.322C108.873 150.244 109.323 150.181 109.794 150.13L109.908 150.118L109.955 150.091C110.682 149.683 111.659 149.589 112.51 149.827L112.566 149.843L112.654 149.828C113.138 149.746 113.617 149.703 114.079 149.704L114.136 149.704L114.276 149.705L114.248 149.474C114.234 149.351 114.22 149.226 114.206 149.099L114.183 148.884C114.129 148.384 114.086 147.927 114.031 147.29L113.986 146.764L113.844 145.039C113.83 144.878 113.818 144.736 113.805 144.594L113.787 144.389L113.775 144.252C113.407 140.298 112.715 136.288 111.712 132.208L111.668 132.033L111.481 131.592L111.396 131.961C111.35 132.161 111.334 132.358 111.351 132.561C111.356 132.629 111.318 132.664 111.247 132.664C111.169 132.664 111.111 132.617 111.104 132.541C111.071 132.13 111.157 131.759 111.372 131.295L111.386 131.267L111.409 131.217L111.434 131.167L111.509 131.014L111.615 130.804L111.916 130.21C112.609 128.84 112.92 128.136 113.166 127.276L113.181 127.222L113.2 127.154L113.366 126.561L113.402 126.429C113.478 126.152 113.531 125.94 113.578 125.722L113.594 125.643C113.957 123.93 114.219 122.252 114.549 119.711L114.58 119.472L114.64 119.007L114.798 117.759L114.761 117.717C114.642 117.585 114.578 117.387 114.547 117.113L114.543 117.077C114.532 116.979 114.515 116.894 114.479 116.755L114.464 116.697L114.435 116.59L114.409 116.491C114.387 116.404 114.371 116.334 114.361 116.267L114.356 116.236L114.35 116.222C114.259 116.004 114.208 115.754 114.177 115.426L114.174 115.395C114.169 115.343 114.165 115.297 114.161 115.241L114.16 115.219L114.136 114.842L114.112 114.51L114.097 114.293C114.093 114.23 114.088 114.166 114.084 114.098L114.075 113.955L114.033 113.257L113.993 112.612L113.992 112.601L113.992 112.596L113.993 112.517L113.993 112.483L113.993 112.454C113.991 112.344 113.978 112.279 113.928 112.228C113.856 112.156 113.753 112.147 113.581 112.163L113.565 112.165C113.55 112.167 113.534 112.168 113.518 112.17L113.501 112.172L113.377 112.189L113.353 112.191L113.341 112.192L113.324 112.193C113.009 112.224 112.626 112.17 112.356 112.044C112.049 111.901 111.911 111.687 111.972 111.389L111.974 111.38L111.976 111.372C112.02 111.243 112.107 111.143 112.281 111.002L112.314 110.976L112.415 110.898L112.444 110.875L112.594 110.754C112.643 110.714 112.694 110.674 112.747 110.632L112.787 110.6L113.901 109.717L114.114 109.548L114.234 109.451L114.422 109.299L114.44 109.284C114.47 109.258 114.497 109.232 114.532 109.197L114.565 109.164L114.661 109.066C114.791 108.935 114.862 108.875 114.953 108.823L115.048 108.77L115.008 108.63L114.991 108.572C114.825 107.968 114.787 107.527 114.922 107.179L114.928 107.163L115.057 106.846Z" fill="#FFCF77"/>
<path fill-rule="evenodd" clip-rule="evenodd" d="M99.5797 73.7415C99.5461 74.2082 99.4344 74.7005 99.2641 75.1581C99.2031 75.1679 99.1446 75.2023 99.102 75.2691C99.0447 75.3587 98.7706 75.4212 98.6276 75.4634L98.6072 75.4696C98.0135 75.6531 97.3938 75.7272 96.778 75.7927C93.8819 75.953 92.8278 76.8616 91.194 79.1574C89.2546 81.7438 88.1664 84.8133 86.7044 87.668C86.3446 88.3621 85.9562 89.0399 85.5293 89.6952L85.4681 89.7885C85.0921 90.3593 84.6749 90.9339 84.1028 91.3189C82.6932 90.1358 81.1859 89.0795 79.7915 87.878L79.6611 87.7649C78.6149 86.8596 77.6158 85.9002 76.6651 84.8949C76.5529 84.7763 76.3425 84.7451 76.187 84.8147C76.1262 83.9099 75.8709 83.0224 75.6356 82.1481C75.3885 81.022 74.9593 80.2609 73.6645 80.5396L73.6313 80.4567C73.1137 79.1719 72.4231 77.9234 71.3887 76.9844L71.3209 76.9232C71.0959 76.7187 70.8006 76.4255 70.4846 76.4519C70.1977 76.4757 70.0503 76.7356 70.0389 77C70.0258 77.3136 70.1624 77.6329 70.2602 77.9268L70.2685 77.952C70.3946 78.338 70.5305 78.7207 70.6741 79.1005C70.8125 79.466 70.9606 79.8278 71.1157 80.1864C71.2738 80.4862 71.3902 80.9829 71.6782 81.1642C71.8268 81.2527 71.9799 81.1337 71.9958 80.9816C72.0182 80.7823 71.9037 80.6072 71.8194 80.4336C71.7416 80.274 71.6654 80.1135 71.5914 79.9522C71.2936 79.303 71.0265 78.6403 70.7969 77.9643L70.7901 77.9423C70.7119 77.7007 70.4525 77.1389 70.5464 76.9406C70.6434 76.9414 70.843 77.1465 70.9136 77.2075C72.0236 78.1279 72.745 79.3997 73.5703 80.5601C73.0524 80.7082 72.4902 80.7777 72.06 81.1257C71.1752 81.8985 71.8857 83.4289 73.0718 83.144C72.7408 83.8481 72.4561 84.9857 73.0428 85.6219C73.2191 85.7872 73.5617 85.7344 73.6154 85.4709C73.6726 85.1909 73.6039 84.951 73.5409 84.6797C73.4267 84.1273 73.3574 83.5615 73.4353 82.9991L73.4598 82.9845C73.6608 82.8623 73.7872 82.7252 73.7811 82.4728C73.8073 82.2902 73.6129 82.0442 73.4177 82.1936C73.3542 82.2419 73.2768 82.2456 73.2102 82.2943C73.097 82.402 72.9564 82.4867 72.796 82.4854L72.7804 82.485C72.5741 82.4834 72.4218 82.3589 72.3588 82.1658C72.1861 81.6357 72.784 81.4577 73.1729 81.3558L73.2733 81.3248C74.3347 81 74.7193 80.9947 74.9861 82.2431L75.018 82.3467C75.2941 83.2454 75.5476 84.1649 76.018 84.9846L75.9418 85.1666C75.4532 86.3286 74.8359 87.6519 73.5294 88.0073C73.4827 87.6162 73.0601 87.6021 72.7542 87.6119C72.3594 87.5906 71.9631 87.39 71.6842 87.1019C71.4406 86.8564 71.3181 86.5142 71.0486 86.2952C71.1706 86.0177 70.8952 85.7115 70.6074 85.8711C70.4134 85.9784 70.2963 86.1314 70.0622 86.1625C69.8547 86.1904 69.6636 86.1179 69.506 85.9849C69.0947 85.637 69.2903 85.1258 69.1896 84.6702C69.3222 84.8998 69.5424 85.0759 69.7782 85.1974C71.3524 86.0987 71.3366 84.3317 70.4666 84.6219C69.5215 84.4067 69.5375 84.0649 69.8907 83.2623L69.9004 83.2335C69.9593 83.0635 70.0805 82.7736 69.9636 82.5955C69.957 82.5865 69.9452 82.5836 69.9366 82.5919C69.8285 82.6982 69.7859 82.8767 69.6947 83.0019L69.6079 83.1055C69.2712 83.5093 68.9051 83.9919 69.1245 84.5356C69.1016 84.5307 69.0766 84.5405 69.0689 84.5683C68.9673 84.9379 68.7656 85.301 68.8073 85.6964C68.8946 86.5628 69.8331 87.0386 70.6103 86.6774C70.7597 87.7914 71.8573 88.5931 72.9572 88.5434C72.992 88.6961 73.105 88.8304 73.2797 88.8443C74.8985 91.4397 81.2618 98.1168 84.3824 97.8378C84.6808 97.9733 85.0606 97.9053 85.3766 97.8644C87.8001 97.5481 89.8256 95.7742 90.9553 93.6716C91.3706 100.559 89.0238 100.475 87.4534 106.181C87.2962 106.28 87.2045 106.495 87.3264 106.677C87.2591 107.022 87.1211 107.376 87.1742 107.73C87.2004 107.831 87.2532 107.923 87.3011 108.016C87.3996 108.205 87.6595 108.182 87.7812 108.035C87.5749 108.782 87.6629 109.567 87.7157 110.328C87.7481 110.776 87.7456 111.217 87.746 111.665C87.8076 118.481 91.1347 124.627 92.845 131.094C93.3289 132.907 93.7005 134.754 93.8466 136.627C94.0018 138.619 93.8937 140.622 94.0803 142.612C94.2994 144.948 94.9296 147.218 95.667 149.438L95.6948 149.405L95.6863 149.703C95.6967 149.729 95.7103 149.754 95.7268 149.777L95.7332 149.779C96.3131 149.882 96.8713 150.023 97.6991 150.264L97.9048 150.324L98.4894 150.497L98.6568 150.546L98.6675 150.55L98.6788 150.554C98.7161 150.568 98.748 150.591 98.7728 150.619L98.779 150.626L98.9673 150.689L98.9773 150.693L98.9872 150.697C99.1108 150.75 99.1605 150.88 99.1254 150.999C99.0877 151.127 98.9628 151.205 98.8246 151.159L98.5732 151.075L98.4443 151.033L98.3162 150.991C97.3618 150.68 96.7044 150.505 96.0297 150.404L95.955 150.394L95.9135 150.377L95.8995 150.371C95.8571 150.639 95.8474 150.909 95.8587 151.186C95.87 151.659 96.0184 152.129 95.9566 152.602C95.9086 152.809 95.7408 153.007 95.8473 153.229L95.7988 153.26C95.5166 153.442 95.2469 153.641 95.0614 153.921C95.0209 153.982 94.9902 154.109 94.944 154.152C94.8957 154.197 94.8056 154.202 94.7463 154.224C94.4457 154.315 94.2566 154.587 94.2825 154.902C93.5787 155.105 93.8211 155.82 93.0947 156.318C92.349 156.858 91.3392 156.918 90.4584 157.058L88.9576 157.298L88.8667 157.309C87.8785 157.431 86.5979 157.669 86.4775 158.859C86.2928 158.987 86.2296 159.248 86.1764 159.454C86.1353 159.618 86.1394 159.786 86.2592 159.915C86.4003 160.067 86.6514 160.13 86.8369 160.211C87.0795 160.306 87.2905 160.471 87.5534 160.517C87.8676 160.647 88.2145 160.723 88.5008 160.776C91.655 161.36 94.8914 161.501 98.0841 161.194C98.6056 161.143 99.1266 161.082 99.6452 161.007L99.707 160.998C99.9651 160.96 100.232 160.907 100.467 160.797C100.797 161.352 101.432 161.282 101.966 161.125C102.386 161.021 102.805 160.918 103.225 160.816C103.874 160.641 104.828 160.605 104.988 159.798C105.069 159.39 105.064 158.937 105.06 158.523L105.061 158.4L105.061 158.364C105.06 158.018 105.025 157.565 104.639 157.493C105.187 156.477 105.068 155.228 104.558 154.221L104.531 154.172C104.155 153.483 103.92 152.907 104.045 152.093C104.295 151.858 104.412 151.519 104.504 151.186C104.764 150.248 104.982 149.296 105.149 148.337C105.535 149.065 106.001 149.749 106.525 150.385C106.733 150.682 106.903 150.778 107.241 150.893C107.293 150.915 107.346 150.916 107.396 150.901C107.708 151.325 108.087 151.66 108.251 152.166C108.43 152.725 108.498 153.34 108.534 153.924C108.552 154.686 108.235 155.405 108.036 156.128C107.724 157.126 107.376 158.113 106.99 159.085C106.737 159.144 106.354 159.115 106.262 159.418C106.203 159.454 106.154 159.511 106.128 159.595L106.107 159.666C105.922 160.279 105.765 160.988 106.005 161.602C106.668 163.09 108.799 163.461 110.256 163.639C112.415 163.844 114.678 163.328 116.475 162.097C116.729 161.919 116.902 161.717 116.944 161.401L116.951 161.342C117.007 160.818 117.016 160.203 116.654 159.799C116.341 157.122 115.828 154.446 115.09 151.853C115.096 151.78 115.1 151.707 115.104 151.633C115.313 151.415 115.458 151.151 115.556 150.869C115.242 150.829 114.964 150.819 114.708 150.842L114.698 150.842L114.752 150.897L114.504 150.927L114.473 150.93C114.401 150.938 114.333 150.943 114.22 150.948L114.097 150.954C113.873 150.965 113.761 150.976 113.636 151.005L113.614 151.01L113.581 151.005C113.518 150.997 113.454 150.999 113.344 151.008L113.283 151.014C113.162 151.024 113.097 151.025 113.014 151.017L112.971 151.011L112.967 151.01L112.956 151.008L112.943 151.005C112.918 150.999 112.896 150.988 112.876 150.975L112.872 150.972L112.764 150.971C112.72 150.971 112.674 150.971 112.624 150.971L112.477 150.972L112.179 150.974L111.935 150.976C111.739 150.976 111.574 150.975 111.419 150.97L111.333 150.967L111.28 150.964C111.142 150.958 111.046 150.851 111.036 150.724C111.025 150.586 111.12 150.467 111.272 150.474C111.415 150.481 111.564 150.484 111.734 150.485L111.808 150.485L111.906 150.486L112.439 150.482C112.87 150.479 113.114 150.482 113.377 150.498L113.447 150.502L113.496 150.493C113.535 150.485 113.578 150.475 113.635 150.461L113.753 150.433C113.764 150.431 113.774 150.429 113.784 150.426L113.849 150.412L113.897 150.402L113.902 150.397L113.912 150.39C113.935 150.373 113.963 150.361 113.993 150.353C114.18 150.306 114.376 150.273 114.584 150.251C114.904 150.216 115.24 150.215 115.608 150.244L115.699 150.251C115.709 150.173 115.718 150.095 115.724 150.018C115.717 149.678 115.284 149.708 115.041 149.651C114.429 143.596 114.076 137.353 111.602 131.705C112.096 130.564 112.762 129.476 113.205 128.307L113.236 128.223C113.419 127.743 113.531 127.254 113.676 126.764C113.77 126.529 113.848 126.291 113.886 126.04C114.468 123.375 114.797 120.664 115.14 117.961C115.372 117.77 115.524 117.495 115.658 117.241L115.659 117.305C115.669 117.717 115.736 118.177 116.25 118.165C116.674 118.155 116.859 117.839 116.954 117.489C117.139 118.22 117.959 118.26 118.199 117.54C118.306 117.249 118.302 116.918 118.334 116.613C118.505 114.939 118.863 113.267 118.76 111.582C118.868 111.545 118.962 111.462 119.008 111.324C121.054 105.118 122.876 98.476 121.547 91.927C120.219 85.5107 116.621 78.3278 109.822 76.5084C108.446 76.1602 107.048 76.042 105.637 75.9522C105.433 75.5578 105.302 75.1093 105.275 74.6629C105.267 74.5339 105.273 74.4063 105.273 74.2773C105.274 74.1582 105.223 74.0162 105.247 73.9049C105.253 73.8778 105.216 73.8688 105.206 73.8938C105.176 73.972 105.115 74.0113 105.074 74.0772C104.971 74.2634 104.944 74.4846 104.917 74.6927C104.813 75.5147 105.052 76.3607 105.555 77.0163L105.583 77.0534C105.741 77.2613 106.014 77.5791 106.296 77.4125C106.564 77.2542 106.381 76.9275 106.223 76.7626C106.012 76.5432 105.835 76.3087 105.691 76.0529C106.33 76.2232 106.963 76.4107 107.6 76.5882L107.645 76.6132C108.143 76.8825 108.868 77.1743 108.803 77.8411C107.478 81.8452 101.615 82.8741 97.9908 81.9181C97.2784 81.7279 96.5584 81.4189 96.0736 80.8427L96.054 80.8191C95.2164 79.8263 95.2806 78.186 96.3294 77.3708C96.9524 76.86 97.8132 76.5886 98.5904 76.4118C98.3644 76.7876 97.8644 77.0529 97.7735 77.4981C97.7501 77.6508 97.8344 77.7961 98.0027 77.7993C98.43 77.8075 98.7451 77.3507 98.9694 77.0438C99.4375 76.4016 99.703 75.6252 99.7598 74.8344C99.788 74.4496 99.7172 74.1029 99.621 73.7358C99.6149 73.7117 99.5813 73.7186 99.5797 73.7415ZM106.548 160.362C106.537 160.604 106.656 160.876 106.945 160.865C107.154 161.137 107.469 161.316 107.761 161.491C109.689 162.549 112.114 162.595 114.155 161.836C114.707 161.627 115.238 161.366 115.729 161.037L115.775 161.007C116.022 160.843 116.307 160.675 116.482 160.438L116.476 160.632C116.467 160.907 116.452 161.161 116.364 161.418C116.311 161.529 116.204 161.589 116.104 161.654C115.88 161.797 115.649 161.929 115.413 162.051C112.952 163.3 109.789 163.493 107.316 162.18C106.607 161.781 106.306 161.15 106.548 160.362ZM104.252 157.712C104.253 157.742 104.284 157.767 104.315 157.758C104.562 157.686 104.414 158.226 104.398 158.313C104.349 158.598 104.317 158.884 104.286 159.172L104.285 159.227C104.277 159.799 104.22 159.803 103.648 159.913C103.172 160.036 102.7 160.176 102.226 160.307L102.037 160.36C101.835 160.417 100.908 160.742 100.917 160.352L100.917 160.34C100.935 160.085 100.605 159.98 100.435 160.131L100.428 160.137C100.1 160.45 99.6318 160.476 99.2036 160.53L99.1822 160.533C98.6346 160.603 98.0845 160.661 97.534 160.705C94.6378 160.936 91.7121 160.803 88.8507 160.298L88.6646 160.265C88.415 160.22 88.0564 160.148 87.7684 160.009C87.6582 160 87.0994 159.729 87.12 159.611C87.1101 159.594 87.1015 159.576 87.094 159.558C86.9848 159.44 86.9882 159.189 87.1317 159.095C87.3707 159.158 87.6094 159.219 87.8493 159.278L87.8495 159.279C88.0918 159.466 88.4228 159.465 88.7152 159.53C89.0312 159.587 89.3476 159.64 89.6644 159.69C91.4792 159.976 93.3096 160.178 95.1453 160.264C98.3927 160.547 101.57 159.511 104.252 157.712ZM114.816 107.117C114.621 107.596 114.761 108.216 114.904 108.71C114.683 108.834 114.532 109.044 114.343 109.207C113.689 109.736 113.023 110.251 112.368 110.779L112.34 110.802C112.147 110.953 111.934 111.103 111.857 111.348C111.676 112.154 112.739 112.373 113.337 112.316C113.448 112.311 113.766 112.239 113.842 112.315C113.886 112.359 113.867 112.557 113.871 112.616C113.913 113.256 113.947 113.897 113.992 114.536L114.009 114.776C114.046 115.261 114.046 115.809 114.238 116.269C114.279 116.547 114.395 116.827 114.423 117.102C114.449 117.347 114.506 117.616 114.67 117.799L114.519 118.992C114.234 121.229 113.933 123.466 113.464 125.672C113.359 126.167 113.214 126.646 113.08 127.133C112.693 128.54 111.966 129.813 111.325 131.113L111.3 131.163C111.084 131.612 110.941 132.041 110.983 132.551C111.009 132.864 111.5 132.866 111.474 132.551C111.457 132.339 111.478 132.145 111.524 131.958C112.543 136.048 113.284 140.201 113.666 144.4C113.82 146.13 113.933 147.855 114.138 149.581C113.612 149.577 113.082 149.628 112.574 149.717C111.701 149.465 110.659 149.546 109.871 149.999C109.384 150.05 108.899 150.116 108.417 150.201L108.314 150.22C108.089 150.262 107.762 150.265 107.586 150.428C107.517 150.105 107.282 149.876 107.075 149.633C106.886 149.405 106.708 149.169 106.539 148.926C106.075 148.263 105.69 147.548 105.364 146.808C105.368 146.691 105.32 146.599 105.243 146.534C103.922 143.493 103.102 140.265 102.374 137.039C100.704 129.793 99.2689 122.488 98.4075 115.098C98.4038 115.064 98.3542 115.062 98.3538 115.098C98.1784 120.572 99.1272 125.993 100.272 131.326C101.442 136.595 102.349 141.983 104.495 146.968C104.337 147.985 104.149 148.998 103.902 149.998C101.5 149.351 98.9985 149.102 96.5149 149.2C95.4463 146.144 94.7617 142.952 94.8173 139.703C94.9395 134.051 93.1433 128.655 91.2156 123.415C89.8847 119.376 88.2647 115.323 88.0873 111.029C88.005 110.034 87.7015 109.03 87.904 108.032C88.2683 108.473 88.7897 108.794 89.3001 109.031C90.1568 109.428 91.0744 109.671 91.9933 109.875C96.6792 111.075 101.601 111.074 106.299 109.935L106.648 109.854C109.444 109.208 112.28 108.485 114.816 107.117ZM115.127 109.298C115.735 110.408 117.007 111.091 118.22 111.339C118.264 111.483 118.402 111.578 118.553 111.599C118.32 113.446 117.942 115.273 117.741 117.124L117.73 117.193C117.709 117.31 117.68 117.436 117.591 117.516C117.47 117.468 117.468 117.267 117.453 117.156C117.406 116.514 117.35 115.873 117.295 115.232C117.273 114.952 116.813 114.844 116.768 115.161L116.572 116.564L116.568 116.578C116.521 116.806 116.505 117.594 116.282 117.628L116.275 117.629C116.137 117.65 116.189 117.372 116.19 117.271L116.177 116.543L116.161 115.605C116.158 115.449 116.155 115.293 116.152 115.136C116.145 114.792 115.661 114.807 115.627 115.136L115.613 115.276C115.547 115.906 115.456 116.574 115.145 117.128C115.087 117.088 115.006 117.079 114.93 117.099C114.904 116.686 114.815 116.292 114.651 115.914C114.699 115.512 114.654 115.083 114.634 114.695L114.632 114.654C114.608 114.156 114.578 113.658 114.549 113.16L114.533 112.861C114.508 112.427 114.546 111.876 114.054 111.693C113.574 111.543 113.029 111.791 112.57 111.534C113.107 111.055 113.657 110.616 114.206 110.151C114.401 109.988 114.606 109.83 114.792 109.656C114.91 109.545 115.005 109.405 115.127 109.298ZM114.376 91.6734L114.54 92.5188C114.812 93.9279 115.074 95.3386 115.238 96.7659C115.41 98.2998 115.455 99.8424 115.382 101.384C115.007 99.8912 114.129 98.5784 113.719 97.0986C113.3 95.2603 114.243 93.4906 114.376 91.6734ZM71.327 80.9104C70.1654 81.3924 69.6912 83.1185 70.5656 84.069C70.8559 84.3755 71.291 84.5528 71.6872 84.3919C72.1685 84.3104 72.452 83.8283 72.5187 83.3792L72.5209 83.3637C72.5251 83.3426 72.5015 83.333 72.488 83.3463L72.4857 83.3491C72.3017 83.5761 72.0116 83.7281 71.7473 83.8443C71.6732 83.8042 71.5922 83.7723 71.5107 83.7534C71.3949 83.7272 71.2762 83.8181 71.2873 83.9364C70.7405 83.8362 70.5213 83.1848 70.5047 82.6906L70.5042 82.6757C70.4822 81.9918 70.7912 81.3594 71.3474 80.9595C71.3701 80.944 71.3576 80.8979 71.327 80.9104Z" fill="black"/>
<path fill-rule="evenodd" clip-rule="evenodd" d="M93.6368 63.5546C94.4416 58.6767 100.587 57.7972 104.591 58.8239C104.665 57.8856 105.255 57.0566 105.991 56.5112C109.118 54.2564 112.82 58.0846 112.079 61.3839C111.946 62.3834 111.148 63.5239 110.033 63.3528C111.435 66.0119 111.983 71.3739 108.894 73.0314C108.596 73.2439 108.546 73.6756 108.317 73.9524C107.945 74.3988 106.354 74.9675 105.493 74.5118C105.223 74.7608 104.911 75.0031 104.546 75.0892C102.661 76.6009 99.9074 76.9419 97.6127 76.3182C96.1989 76.0778 94.7334 75.4387 94.006 74.133C93.3897 73.1393 93.6737 71.9749 93.9563 70.9231C94.0784 70.3446 94.1579 69.7613 94.2068 69.1732C94.1066 69.056 94.101 68.8931 94.076 68.7449C93.9675 68.2193 93.7303 67.7315 93.6117 67.2074C93.3464 66.0178 93.3924 64.7467 93.6368 63.5546Z" fill="#FDBD96"/>
<path fill-rule="evenodd" clip-rule="evenodd" d="M111.111 58.2685C110.415 56.9417 109.053 56.1932 107.69 56.2958C106.295 56.4009 105.228 57.3643 104.981 58.9199L104.974 58.9673L104.959 59.0682L104.972 59.0729L104.966 59.0843L104.954 59.1039C104.94 59.1265 104.923 59.1522 104.9 59.1858L104.869 59.2301L104.765 59.3769L104.757 59.3874L104.735 59.4195L104.69 59.4036C102.505 58.639 100.072 58.6469 97.8961 59.4599L97.8302 59.4848L97.7696 59.5082L97.7353 59.5172C96.4016 59.8706 95.3357 60.7206 94.6062 61.9377L94.5841 61.9747L94.5619 62.0127C93.8959 63.1589 93.5544 64.5756 93.5784 65.998L93.5793 66.0416L93.5796 66.0485L93.5833 66.0914C93.615 66.4328 93.7007 66.7379 93.8781 67.2031L93.9008 67.2621L93.9359 67.3521L94.0452 67.6297L94.072 67.6987L94.3856 68.5241L94.3275 67.6957C94.3211 67.6036 94.3175 67.5227 94.3144 67.3992L94.3139 67.377L94.3068 67.0264L94.3047 66.9481C94.3036 66.9117 94.3025 66.8788 94.3011 66.8468L94.2988 66.7989L94.2946 66.7246L94.2936 66.7092L94.2956 66.6925C94.3624 66.166 94.6036 65.7165 95.0186 65.2907L95.0402 65.2686L95.0622 65.2467L95.0884 65.2208C95.3942 64.9211 95.7034 64.692 96.3438 64.2715L96.3715 64.2534L96.7437 64.0107L96.883 63.9192C97.1901 63.7164 97.3772 63.5852 97.5752 63.432L97.6178 63.3989L97.6511 63.3726C97.9938 63.1008 98.2614 62.8337 98.4669 62.5457L98.486 62.5186L98.5265 62.4604L98.4976 62.3984L98.498 62.3992L98.4981 62.399L98.4967 62.3923L98.4947 62.3812L98.4927 62.3678C98.4891 62.3411 98.486 62.3064 98.4838 62.2671C98.483 62.2529 98.4823 62.2383 98.4818 62.2236L98.4811 62.2014L98.4807 62.1823L98.4884 62.2049C98.8851 63.3525 99.8253 64.31 101.151 65.0166L101.191 65.0379L101.236 65.0617C102.543 65.7391 104.141 66.128 105.526 66.139L105.571 66.1393L105.615 66.1394L105.649 66.1112C105.776 66.0063 106.01 66.137 105.967 66.3239C105.573 68.0536 105.491 69.8439 105.731 71.5691L105.74 71.6292L105.741 71.6349L105.75 71.6837C105.758 71.7272 105.766 71.7718 105.774 71.8231L105.787 71.906L105.837 72.2419L105.86 72.3858L105.869 72.4441C105.954 72.9337 106.061 73.2669 106.256 73.5541L106.275 73.5812L106.294 73.5996L106.313 73.6184C106.351 73.658 106.375 73.6901 106.387 73.7125L106.39 73.7175L106.391 73.7206L106.388 73.7219C106.326 73.7442 106.199 73.7397 106.093 73.7106L106.08 73.7069L106.068 73.703L105.982 73.6752L105.923 73.7592L105.905 73.784C105.872 73.8293 105.838 73.875 105.795 73.9309L105.745 73.9963L105.629 74.1461L105.735 74.22C106.096 74.4694 106.599 74.4198 107.135 74.186L107.155 74.1768L107.163 74.1731C107.418 74.0377 107.585 73.8742 107.861 73.5256L107.893 73.4845L108.015 73.327L108.062 73.2681C108.095 73.2273 108.123 73.1935 108.15 73.1608L108.16 73.15L108.192 73.1127L108.2 73.0982C108.334 72.8265 108.527 72.6458 108.864 72.4514L108.912 72.4244L108.942 72.4035C109.797 71.8091 110.302 70.8715 110.515 69.6556C110.681 68.7051 110.663 67.6356 110.511 66.4346L110.504 66.3773L110.496 66.3176C110.365 65.3068 110.064 64.363 109.607 63.5038L109.584 63.4594L109.562 63.42L109.669 63.3349L109.713 63.3006C109.75 63.2726 109.776 63.2534 109.8 63.2375L109.813 63.2292L109.825 63.2218L109.828 63.2278L109.91 63.219C110.255 63.1821 110.595 63.0328 110.872 62.8027L110.894 62.7835L110.917 62.7612C111.452 62.216 111.714 61.4603 111.715 60.5972C111.715 59.8344 111.506 59.0225 111.149 58.3395L111.131 58.306L111.111 58.2685Z" fill="#E8E1E1"/>
<path fill-rule="evenodd" clip-rule="evenodd" d="M93.7014 66.0399C93.7478 66.6281 93.9966 67.1573 94.2049 67.7054C94.1821 67.3811 94.1928 67.0436 94.1702 66.7068C94.4124 64.598 97.2742 64.044 98.3851 62.4494C98.343 62.3593 98.3279 61.5542 98.4936 61.7806C99.1361 64.5984 102.955 66.0121 105.57 66.0176C105.768 65.8543 106.16 66.0268 106.086 66.3523C105.695 68.0702 105.61 69.8672 105.861 71.6128C105.979 72.2291 105.999 72.9708 106.368 73.5019C106.76 73.8752 106.289 73.9052 106.03 73.8209C105.957 73.9227 105.881 74.0215 105.805 74.12C106.177 74.3777 106.72 74.2372 107.105 74.0656C107.534 73.8383 107.779 73.3978 108.089 73.0447C108.259 72.7027 108.516 72.5062 108.847 72.3209C110.686 71.0683 110.638 68.3205 110.374 66.3346C109.605 60.4249 103.06 57.5734 97.8066 59.6264C94.9697 60.3534 93.6406 63.2927 93.7014 66.0399ZM110.811 62.6942C111.933 61.5746 111.707 59.6173 111.002 58.3266C109.589 55.6299 105.575 55.7175 105.094 58.9863C107.141 59.6889 108.868 61.1956 109.897 63.098C110.231 63.0622 110.555 62.9127 110.811 62.6942ZM104.592 58.8259C104.665 57.8876 105.255 57.0585 105.991 56.5131C109.118 54.2584 112.82 58.0866 112.079 61.3859C111.946 62.3853 111.149 63.5258 110.033 63.3548C111.435 66.0139 111.983 71.3758 108.894 73.0333C108.596 73.2459 108.546 73.6776 108.317 73.9543C107.945 74.4008 106.354 74.9695 105.493 74.5137C105.288 74.7653 104.127 75.5305 104.212 74.7804C104.297 74.5784 104.561 74.5256 104.737 74.4258C105.106 74.2214 105.427 73.9333 105.68 73.5949C104.887 71.3566 104.948 68.8642 105.392 66.5594C102.74 66.4258 99.619 65.2609 98.4493 62.703C97.6586 64.5645 95.2064 64.804 94.587 66.8853C94.5496 67.9784 94.7835 69.0553 94.6139 70.149C94.5641 71.2202 93.999 72.2843 94.3257 73.3485C95.2384 75.6691 98.524 76.0096 100.695 75.9126C101.21 75.87 101.638 75.5908 102.062 75.3257C102.316 75.2048 102.619 75.4576 102.463 75.7273C101.869 76.5584 100.646 76.6311 99.7075 76.6011C97.2715 76.4564 93.751 75.7352 93.6245 72.7208C93.7048 71.5258 94.1727 70.3822 94.2069 69.1752C94.1067 69.0579 94.1011 68.8951 94.0761 68.7468C93.9676 68.2212 93.7304 67.7335 93.6118 67.2094C93.3465 66.0197 93.3925 64.7487 93.6369 63.5566C94.4417 58.6787 100.587 57.7992 104.592 58.8259Z" fill="black"/>
<path fill-rule="evenodd" clip-rule="evenodd" d="M93.6655 69.5869C93.8011 69.4048 94.0449 69.1658 94.2916 69.1786C94.3231 69.1803 94.335 69.2145 94.316 69.2376C94.2353 69.3361 94.1251 69.4062 94.0443 69.5067C93.9486 69.6258 93.8796 69.7693 93.8347 69.9145C93.7694 70.1254 93.7514 70.3641 93.8096 70.5786C93.9121 70.9566 94.2361 71.2337 94.5897 71.3752C94.9396 71.5153 95.3607 71.5631 95.6917 71.3579C96.1802 71.0549 96.5945 70.6182 97.2085 70.6096C97.3521 70.6075 97.4533 70.6733 97.5136 70.7672C97.5742 70.6767 97.6741 70.6126 97.8142 70.611C98.5025 70.6033 99.0162 71.0771 99.594 71.3725C99.9844 71.5722 100.49 71.5102 100.892 71.3783C101.272 71.2539 101.685 71.0041 101.828 70.6097C101.907 70.3918 101.89 70.1375 101.808 69.9228C101.755 69.7816 101.672 69.6452 101.57 69.5342C101.465 69.4191 101.325 69.3467 101.217 69.2376C101.195 69.2153 101.212 69.1806 101.242 69.1786C101.702 69.1474 102.117 69.697 102.204 70.0958C102.29 70.4884 102.162 70.8801 101.904 71.1797C101.379 71.7889 100.406 71.9899 99.6492 71.8108C99.0365 71.666 98.4546 71.3323 97.8142 71.3802C97.6738 71.3907 97.573 71.3322 97.5122 71.2435C97.4513 71.3348 97.3499 71.3945 97.2085 71.3808C96.6116 71.323 96.0788 71.7457 95.4994 71.849C95.0381 71.9311 94.5397 71.8203 94.1444 71.5718C93.7312 71.312 93.4404 70.8953 93.4212 70.3985C93.4102 70.1127 93.4941 69.8169 93.6655 69.5869Z" fill="black"/>
<path fill-rule="evenodd" clip-rule="evenodd" d="M97.4202 71.2377C97.2797 70.9899 96.8607 71.0302 96.7966 71.3192C96.6667 71.9051 97.3653 72.4461 97.8959 72.4596C98.4232 72.473 99.0149 72.0242 98.9385 71.4573C98.9197 71.3171 98.7324 71.3341 98.6685 71.422L98.6437 71.4558C98.4703 71.6887 98.2415 71.9299 97.9196 71.8731C97.7862 71.8496 97.6651 71.7663 97.5845 71.659C97.4872 71.5295 97.4979 71.3749 97.4202 71.2377ZM100.773 66.9515C100.702 66.9318 100.63 66.9394 100.566 66.9664C100.425 66.9923 100.307 67.1102 100.265 67.2447C100.262 67.2564 100.258 67.2679 100.254 67.2793L100.248 67.2963L100.265 67.2531C100.257 67.2956 100.222 67.3403 100.21 67.3829C100.195 67.4354 100.191 67.4949 100.196 67.5526C100.151 67.5531 100.106 67.5546 100.061 67.5585L100.018 67.5624C99.7757 67.5849 99.5095 67.6262 99.3658 67.8357C99.2851 67.9534 99.3608 68.1653 99.5091 68.188C99.7374 68.2229 99.934 68.0966 100.162 68.0713C100.377 68.0474 100.602 68.0611 100.814 68.0999C101.252 68.1801 101.655 68.3577 102.082 68.4691L102.14 68.4839L102.14 68.4836C102.213 68.5013 102.296 68.3995 102.224 68.34C101.882 68.059 101.444 67.8312 101.012 67.6925C101.075 67.5925 101.094 67.4608 101.051 67.3534C101.045 67.3312 101.036 67.3095 101.028 67.288L101.01 67.2436C101.008 67.2227 101.004 67.202 100.998 67.1818L100.997 67.1756L100.997 67.1759C100.964 67.0715 100.881 66.9812 100.773 66.9515ZM96.4081 66.9677C96.3145 66.8741 96.1831 66.8879 96.0854 66.9616L96.0724 66.9717C95.9804 67.0126 95.9042 67.102 95.8542 67.1848C95.8023 67.2708 95.7678 67.3584 95.7664 67.453C95.5399 67.4538 95.3229 67.5217 95.1566 67.7046C95.1029 67.7636 95.0663 67.8546 95.0958 67.9347L95.1134 67.9823C95.1693 68.1334 95.4203 68.2204 95.5056 68.0427L95.5096 68.034C95.6002 67.823 95.9483 67.8451 96.1332 67.8667C96.2622 67.8818 96.3895 67.9138 96.514 67.9497C96.5579 67.9624 96.6013 67.9761 96.6448 67.9901L96.6882 68.0042C96.7114 68.0117 96.832 68.0772 96.757 68.0617C96.7368 68.0575 96.7216 68.0869 96.7422 68.0968C96.8317 68.1395 96.9271 68.0544 96.9211 67.9583C96.9108 67.7914 96.6459 67.7 96.5184 67.6425L96.5108 67.639C96.4619 67.6164 96.4107 67.5947 96.3579 67.5746C96.3876 67.5304 96.4121 67.4813 96.4325 67.4286C96.4519 67.3788 96.4648 67.3304 96.4718 67.2775C96.4788 67.2517 96.4788 67.2258 96.4718 67.1999L96.4708 67.1925C96.4744 67.1754 96.4761 67.1577 96.4759 67.1399L96.4766 67.133H96.4759C96.4734 67.0706 96.4486 67.0082 96.4081 66.9677ZM97.9032 68.7442C97.5437 68.8553 96.9506 69.1579 97.138 69.625C97.3996 70.0539 98.0933 69.7387 98.4294 69.6001C98.7315 69.5001 98.8887 69.9233 98.5967 70.0509C96.1835 71.0056 96.1924 68.486 97.8157 68.523C97.9944 68.527 98.0001 68.7073 97.9032 68.7442ZM101.096 65.4589L101.035 65.441C100.716 65.3487 100.391 65.1893 100.108 65.438C99.9967 65.5357 99.9738 65.7386 100.053 65.8604C100.234 66.138 100.503 66.0956 100.795 66.1192C101.018 66.1372 101.237 66.2026 101.445 66.2844C101.615 66.3512 101.773 66.4453 101.921 66.5503C102.067 66.6534 102.167 66.8147 102.317 66.9076C102.372 66.9417 102.436 66.9066 102.455 66.8514C102.525 66.6556 102.407 66.4116 102.307 66.2447C102.185 66.0411 102 65.8746 101.801 65.7486C101.582 65.6107 101.341 65.531 101.096 65.4589ZM96.4529 65.2482C95.9144 65.248 95.3961 65.5476 95.0949 65.9867C94.9925 66.1359 95.0675 66.3569 95.2144 66.4428C95.3793 66.5393 95.5555 66.4698 95.6642 66.3316L95.6706 66.3233C95.8434 66.0932 96.0661 65.912 96.3301 65.7941C96.4589 65.7365 96.6013 65.6898 96.7406 65.6661L96.7857 65.6583C96.8488 65.6478 96.922 65.6377 96.9791 65.6476C97.0096 65.6516 97.0377 65.6617 97.0636 65.6771C97.0511 65.7043 97.0833 65.737 97.1129 65.7207C97.2468 65.6472 97.2304 65.5161 97.1198 65.4141C96.9634 65.2699 96.6549 65.2482 96.4529 65.2482Z" fill="black"/>
<path fill-rule="evenodd" clip-rule="evenodd" d="M96.1186 68.5681C96.4802 68.1928 96.8433 67.812 97.306 67.5527C97.2856 67.4415 97.3305 67.3138 97.4626 67.2605C98.7434 66.7817 99.5576 68.1599 100.485 68.7757C100.702 68.8922 100.919 69.0266 101.161 69.0721C101.676 69.2224 102.113 69.5335 102.423 69.9422C102.591 70.1033 102.886 70.372 102.968 70.591C103.019 70.6804 107.523 68.5374 108.548 68.2989C109.034 68.1366 109.295 68.5955 108.68 68.831C107.063 69.4499 103.897 70.8353 103.19 71.2346C103.326 71.6536 103.367 72.2091 103.234 72.6236C103.345 73.2687 103.13 73.8596 102.703 74.3228C102.613 74.4543 102.475 74.5491 102.385 74.6632C102.058 75.5171 101.274 75.9301 100.357 76.3382C98.8971 76.9877 97.6246 77.1178 96.8247 76.8333C94.7482 76.0406 93.543 73.7112 93.9313 71.5888C94.2965 70.0937 94.2211 68.7822 96.1186 68.5681Z" fill="#9DDADB"/>
<path fill-rule="evenodd" clip-rule="evenodd" d="M100.623 68.5584C99.3742 67.8612 99.1632 66.4402 97.3517 67.1626C96.7857 67.3912 96.5869 67.7297 96.2094 68.1525C96.0138 68.3302 95.7676 68.4185 95.5247 68.5132C94.6008 68.8199 94.059 69.6913 93.8523 70.6067C93.3116 72.5068 93.8777 74.7328 95.2595 76.1155C95.24 76.1505 95.2438 76.201 95.286 76.2243C95.3636 76.2671 95.4408 76.3109 95.5176 76.3555C96.0009 76.773 96.9815 77.322 97.7083 77.322C99.329 77.322 100.895 76.6645 101.851 75.8206C103.076 74.833 103.848 72.7723 103.451 71.2892C105.728 70.2171 107.837 69.403 108.719 69.0499C108.936 68.8217 108.938 68.7377 108.725 68.7981C106.655 69.3829 102.579 71.2849 102.529 71.2869C102.5 71.2881 102.394 71.0545 102.372 70.9541C102.468 70.9437 108.09 68.5182 108.791 68.2932L108.828 68.2814C109.161 68.1762 109.078 68.0943 108.822 68.1092C108.303 68.1395 103.903 70.1818 103.047 70.3864C102.664 69.5269 101.578 69.0807 100.623 68.5584ZM97.8959 67.3399C98.5912 67.1353 99.1024 67.64 99.4744 68.169C100.352 69.257 101.952 69.2914 102.613 70.584L102.633 70.6236L102.371 70.7021L102.364 70.6903C102.343 70.6582 102.282 70.5768 102.23 70.6509C101.959 70.9417 102.383 71.9069 102.605 71.4818L102.612 71.4685L102.975 71.3685C103.631 74.0275 101.128 76.4217 98.6085 76.8271C98.6085 76.8271 97.5575 76.8439 97.1363 76.7422C96.8257 76.6672 96.5574 76.5222 96.2707 76.3782C95.9858 76.2352 95.7505 76.0137 95.4745 75.8624C94.686 75.0805 94.1675 74.0071 94.0265 72.8937C93.8884 71.5586 94.0177 69.8587 95.1763 69.0121C95.5578 68.7702 96.028 68.7052 96.3767 68.4061C96.7928 67.9462 97.2799 67.4785 97.8959 67.3399ZM99.1464 73.586C99.1581 73.5668 99.1311 73.5485 99.1158 73.5627C98.872 73.791 98.6363 74.0286 98.4087 74.2732C98.3967 74.2694 98.383 74.2657 98.3654 74.2614C98.2818 74.241 98.2095 74.3283 98.25 74.4053L98.2596 74.4225C98.3204 74.5261 98.4603 74.6173 98.5436 74.4924C98.7555 74.1981 98.9572 73.8955 99.1464 73.586ZM102.16 74.1333L102.16 74.1244C102.165 74.0354 102.237 73.8111 102.09 73.8455C101.92 73.9444 101.857 74.2029 101.848 74.3865C101.837 74.588 102.171 74.5906 102.163 74.3865C102.159 74.302 102.152 74.2177 102.16 74.1333ZM95.1012 73.5131C95.0776 73.5087 95.065 73.5382 95.0855 73.5517C95.3549 73.703 95.3323 74.0082 95.3758 74.2625C95.6852 74.4687 95.6537 73.5852 95.1012 73.5131ZM102.832 72.4335C100.238 72.6951 97.4466 73.4696 94.7931 72.6821C94.6323 72.6385 94.5685 72.8871 94.7288 72.9301C97.4036 73.608 100.244 73.2031 102.832 72.4335ZM95.7956 71.3618C95.7153 71.3431 95.6396 71.7394 95.5157 71.8132C95.4541 71.9371 94.9657 72.0462 95.1715 72.1982C95.5228 72.2716 95.908 71.6777 95.7956 71.3618ZM98.0748 71.4556C98.0145 71.4544 97.9732 71.5006 97.9535 71.5532C97.8997 71.7075 98.1301 71.683 98.2159 71.7343C98.5789 71.9843 98.9982 72.1859 99.4443 72.1953C99.4722 72.1958 99.4724 72.1589 99.4496 72.15L99.3718 72.1196C99.1264 72.023 98.89 71.9241 98.6643 71.7812C98.4815 71.6656 98.3057 71.4504 98.0748 71.4556ZM99.4455 68.7388C99.5069 68.2967 98.1104 67.1806 97.6824 67.6605C97.5717 67.784 97.7169 67.9674 97.8629 67.8894C98.4595 67.7329 99.0301 68.3832 99.4455 68.7388Z" fill="black"/>
<path d="M113.444 78.5675L113.577 78.1121C113.771 77.4544 114.031 76.9445 114.357 76.5823C114.685 76.2146 115.194 75.8755 115.883 75.5652C116.838 75.1435 117.461 74.7984 117.754 74.5302C118.052 74.2636 118.269 73.8999 118.404 73.4389C118.573 72.8655 118.517 72.3697 118.237 71.9514C117.964 71.5292 117.482 71.2165 116.791 71.0133C116.346 70.8828 115.898 70.809 115.445 70.7919C114.994 70.7691 114.455 70.8154 113.828 70.9306L113.666 69.646C114.892 69.4017 116.084 69.4497 117.242 69.7901C118.315 70.1057 119.073 70.6152 119.513 71.3188C119.954 72.0224 120.033 72.8548 119.75 73.8161C119.63 74.2265 119.467 74.5725 119.262 74.8543C119.064 75.1321 118.817 75.3801 118.521 75.5984C118.226 75.8111 117.634 76.1226 116.744 76.5328C116.034 76.8493 115.539 77.1406 115.26 77.4065C114.986 77.6741 114.77 78.0749 114.613 78.6089L114.531 78.8872L113.444 78.5675ZM112.294 80.9505C112.519 80.1859 112.969 79.9028 113.643 80.1011C113.969 80.1969 114.191 80.3688 114.307 80.6168C114.429 80.8664 114.436 81.1767 114.327 81.5477C114.221 81.9075 114.048 82.1622 113.809 82.3117C113.571 82.4556 113.292 82.4804 112.972 82.3862C112.679 82.3003 112.463 82.1421 112.323 81.9117C112.185 81.6756 112.175 81.3552 112.294 80.9505Z" fill="black"/>
<path d="M111.649 60.4212L111.783 59.9659C111.976 59.3082 112.236 58.7982 112.562 58.4361C112.89 58.0683 113.399 57.7293 114.089 57.419C115.043 56.9972 115.667 56.6522 115.959 56.384C116.257 56.1174 116.474 55.7536 116.61 55.2927C116.778 54.7193 116.722 54.2234 116.442 53.8052C116.169 53.383 115.687 53.0703 114.996 52.8671C114.552 52.7365 114.103 52.6627 113.65 52.6456C113.199 52.6229 112.66 52.6691 112.034 52.7843L111.871 51.4997C113.097 51.2555 114.289 51.3035 115.447 51.6439C116.521 51.9594 117.278 52.469 117.718 53.1726C118.159 53.8761 118.238 54.7086 117.955 55.6699C117.835 56.0802 117.672 56.4263 117.467 56.7081C117.269 56.9859 117.023 57.2339 116.726 57.4522C116.432 57.6649 115.839 57.9763 114.949 58.3865C114.239 58.7031 113.745 58.9943 113.465 59.2603C113.191 59.5278 112.975 59.9286 112.818 60.4627L112.737 60.7409L111.649 60.4212ZM110.5 62.8042C110.724 62.0397 111.174 61.7566 111.849 61.9548C112.175 62.0506 112.396 62.2225 112.512 62.4705C112.634 62.7201 112.641 63.0305 112.532 63.4015C112.426 63.7613 112.254 64.0159 112.014 64.1654C111.776 64.3093 111.497 64.3342 111.177 64.24C110.885 64.1541 110.668 63.9959 110.529 63.7655C110.39 63.5294 110.381 63.209 110.5 62.8042Z" fill="black"/>
</svg>
